<?xml version="1.0" standalone="no"?>
<!DOCTYPE svg PUBLIC "-//W3C//DTD SVG 1.1//EN" "http://www.w3.org/Graphics/SVG/1.1/DTD/svg11.dtd" >
<svg xmlns="http://www.w3.org/2000/svg" xmlns:xlink="http://www.w3.org/1999/xlink" version="1.1">
<metadata>
Created by FontForge 20161003 at Tue Mar  6 03:10:05 2018
 By www-data
(c) 2000-2012 Typodermic Fonts Inc. See attached license agreement. If agreement is missing visit typodermicfonts.com for more info. This font is part of the Larabie Fonts collection from Typodermic Fonts.
</metadata>
<defs>
<font id="Cretino-Regular" horiz-adv-x="543" >
  <font-face 
    font-family="Cretino"
    font-weight="400"
    font-stretch="normal"
    units-per-em="1000"
    panose-1="1 0 4 0 0 0 0 0 0 0"
    ascent="787"
    descent="-213"
    x-height="429"
    cap-height="685"
    bbox="-220 -309 1784 892"
    underline-thickness="20"
    underline-position="-143"
    unicode-range="U+0017-2212"
  />
<missing-glyph horiz-adv-x="470" 
d="M134 -198q-49 0 -75 21.5t-26 65.5v736q0 45 26 67t75 22h201q101 0 101 -89v-736q0 -87 -101 -87h-201zM373 381q0 4 -2 17.5t-5 29.5t-5 32t-2 25q0 39 41 94q-20 -7 -43.5 -15.5t-50.5 -20.5l-91 -40q7 14 15.5 27t18.5 27l-79 -26q-24 -32 -38.5 -62.5t-18.5 -61.5
l78 26q3 29 19 59q17 6 40.5 15t53.5 23q-12 -21 -18.5 -40.5t-6.5 -39.5q0 -8 3 -23.5t7 -32t7 -31.5t3 -23q0 -71 -145 -171l85 28q20 10 33 17.5t24.5 13.5t22.5 10.5t26 9.5q65 74 65 114q0 16 -14 27zM156 10q-5 19 -10 33t-8 22l-77 -24q5 -18 9 -32t8 -23z" />
    <glyph glyph-name=".notdef" horiz-adv-x="470" 
d="M134 -198q-49 0 -75 21.5t-26 65.5v736q0 45 26 67t75 22h201q101 0 101 -89v-736q0 -87 -101 -87h-201zM373 381q0 4 -2 17.5t-5 29.5t-5 32t-2 25q0 39 41 94q-20 -7 -43.5 -15.5t-50.5 -20.5l-91 -40q7 14 15.5 27t18.5 27l-79 -26q-24 -32 -38.5 -62.5t-18.5 -61.5
l78 26q3 29 19 59q17 6 40.5 15t53.5 23q-12 -21 -18.5 -40.5t-6.5 -39.5q0 -8 3 -23.5t7 -32t7 -31.5t3 -23q0 -71 -145 -171l85 28q20 10 33 17.5t24.5 13.5t22.5 10.5t26 9.5q65 74 65 114q0 16 -14 27zM156 10q-5 19 -10 33t-8 22l-77 -24q5 -18 9 -32t8 -23z" />
    <glyph glyph-name="uni0017" horiz-adv-x="166" 
 />
    <glyph glyph-name="space" unicode=" " horiz-adv-x="166" 
 />
    <glyph glyph-name="exclam" unicode="!" horiz-adv-x="183" 
d="M73 80q0 64 39 153l39 13q16 46 28.5 81t23 62.5t19.5 49t17.5 40.5t17.5 37.5t20 39.5l42 13l7 18l79 26q-23 -48 -63 -150l-48 -15q-17 -49 -43 -120.5t-61 -168.5l-34 -10l-7 -44zM63 -24q-4 5 -6.5 16t-6.5 43l78 24q1 -15 4 -30.5t9 -27.5z" />
    <glyph glyph-name="quotedbl" unicode="&#x22;" horiz-adv-x="297" 
d="M357 556l78 24l17 -80q-37 -37 -137 -74l58 50zM232 556l77 24l16 -80q-37 -37 -136 -74l57 50z" />
    <glyph glyph-name="numbersign" unicode="#" horiz-adv-x="447" 
d="M287 99q11 31 27 71.5t38 91.5l-70 -10q-16 -38 -24 -56.5t-12 -28t-5 -17t-2 -22.5l-77 -25q2 29 17.5 66.5t31.5 76.5h-24q-47 0 -76 11l80 26q16 -7 32 -8q5 10 11 29t14 48q-19 -1 -35.5 -1.5t-32.5 -0.5h-23.5t-22.5 1q42 14 72.5 20t50.5 6q8 26 16 47.5t16 37.5
l79 26q-9 -20 -19 -47t-22 -62l77 5q11 26 20 49.5t17 43.5l77 25q-8 -24 -19 -52.5t-25 -60.5q51 3 90 3q-83 -28 -100 -28h-2l-30 -74q21 4 53 8.5t74 10.5q-42 -14 -75.5 -23t-58.5 -13q-20 -46 -35 -83t-26 -66zM395 361l-75 -5q-9 -27 -16.5 -48l-12.5 -35q31 2 68 6z
" />
    <glyph glyph-name="dollar" unicode="$" horiz-adv-x="409" 
d="M260 46q8 14 17 31t17 37q-13 -4 -23 -6t-20 -2h-5q-4 -14 -8.5 -25.5t-12.5 -23.5l-30 -11q8 14 15.5 29t14.5 32q-8 2 -16 5t-17 7l-37 -12q-26 17 -39.5 26.5t-20.5 16.5t-9 14t-4 20l77 26l4 -14l41 14q16 -30 43 -51q9 20 18.5 46t21.5 58q-93 15 -93 59q0 17 15 37
t39 39.5t52.5 36t55.5 25.5l28 63l30 10l-30 -64q28 9 46 9l20 45l29 10l-25 -57l21 -6l65 20q11 -28 16 -87l-77 -26l-3 33l-29 -9l-17 19q-11 -26 -24 -58.5t-28 -73.5q85 -18 85 -53q0 -14 -13.5 -30.5t-34.5 -32t-47 -29t-52 -21.5q-8 -23 -14.5 -38.5t-11.5 -26.5z
M361 291q8 24 21 59.5t30 83.5q-17 12 -35 15q-14 -30 -28.5 -67.5t-31.5 -83.5zM303 135q10 23 20.5 51t22.5 63q-8 4 -18.5 6.5t-24.5 4.5q-7 -18 -17.5 -46t-23.5 -64q9 -6 19.5 -9.5t21.5 -5.5zM300 304q17 48 30 84.5t23 61.5q-15 -9 -29 -23t-25.5 -29t-18.5 -29.5
t-7 -25.5q0 -25 27 -39zM325 133q23 16 40.5 37t17.5 41t-21 31l-42 -109h5z" />
    <glyph glyph-name="percent" unicode="%" horiz-adv-x="468" 
d="M309 335l8 14l-43 -14q-52 12 -52 61q0 36 13 57.5t37 36.5t58.5 26.5t78.5 26.5q5 1 11 1q28 0 28 -35q0 -14 -5 -32.5t-13.5 -39.5t-19.5 -41.5t-22 -36.5zM471 423q34 32 53.5 51t31.5 29.5t19.5 15t18 8t27 7.5t45.5 14q-26 -18 -62 -49.5t-75.5 -69t-79.5 -77.5
t-74 -75t-59 -60t-34 -33q-111 -96 -227 -128q21 14 47.5 35t62.5 51.5t82.5 73t108.5 99.5zM430 102q-86 -27 -87 -27q-13 0 -24 15.5t-11 32.5q0 52 51 120l60 21q20 7 34.5 9.5t25.5 2.5q38 0 38 -35q0 -17 -9.5 -39t-24.5 -43t-32 -36t-32 -18zM347 514q-48 -42 -48 -95
q0 -35 31 -49q41 73 41 111q0 28 -24 33zM392 122q50 59 50 93q0 22 -22 27q-36 -56 -36 -93q0 -18 8 -27z" />
    <glyph glyph-name="ampersand" unicode="&#x26;" horiz-adv-x="562" 
d="M415 -11q-17 -6 -25 -6q-29 0 -29 40q0 5 0.5 13t1.5 16q-104 -78 -187 -78q-54 0 -86 31.5t-32 83.5q0 40 18.5 81.5t52.5 79.5t81 72.5t103 61.5q-19 7 -57 25l-33 -10q-26 12 -26 35q0 27 33 66l80 26l-16 -20q15 11 41 22.5t54.5 21t55 15.5t43.5 6q11 0 21 -2
q-36 -7 -69 -18.5t-58 -25.5t-40 -29.5t-15 -29.5q0 -31 68 -58q-60 -27 -108.5 -62t-83.5 -74t-54 -80t-19 -81q0 -16 10 -35t25 -36t33 -28.5t34 -11.5q20 0 45.5 19t50.5 49.5t47 68t36 73.5h-7q-7 0 -17.5 0.5t-22 0.5t-22 0.5t-16.5 0.5q-34 0 -59 -7q27 13 43.5 20.5
t29.5 11t24 4t28 0.5h14t16 -1l52 172l51 16q9 31 9 54l78 26q0 -38 -19 -86l-31 -81l-43 -14q-15 -54 -30 -90q74 2 166 19q-23 -9 -66.5 -18t-106.5 -20q-14 -32 -28.5 -59t-32.5 -50l28 9q-23 -43 -23 -66q0 -34 49 -34q9 0 20 1.5t23 3.5z" />
    <glyph glyph-name="quotesingle" unicode="'" horiz-adv-x="138" 
d="M301 565q17 -31 17 -49q0 -7 -5 -17.5t-12.5 -21t-16.5 -19t-16 -11.5q-8 -3 -20 -7q-11 -4 -26.5 -9t-35.5 -11q53 45 53 68q0 21 -16 53z" />
    <glyph glyph-name="parenleft" unicode="(" horiz-adv-x="203" 
d="M108 -26q-45 85 -45 130q0 39 11.5 85t31.5 93t47 91.5t57 82.5t62.5 65t64.5 39l77 25v-3q-33 -14 -66 -42t-63.5 -65.5t-57 -81t-46 -89.5t-30.5 -91t-11 -84q0 -40 46 -130z" />
    <glyph glyph-name="parenright" unicode=")" horiz-adv-x="213" 
d="M315 585q33 -56 33 -136q0 -107 -75 -252q-31 -59 -56.5 -94.5t-54 -58.5t-63 -37t-82.5 -29q52 37 98.5 89.5t81.5 112.5t55.5 122.5t20.5 118.5q0 76 -36 138z" />
    <glyph glyph-name="asterisk" unicode="*" horiz-adv-x="392" 
d="M377 328q18 68 40 106l79 26q-13 -22 -22 -48.5t-19 -58.5zM348 169q4 14 11.5 35t17.5 50l79 25l-30 -85zM242 136l34 145q-80 -16 -117 -16q-20 0 -28 4l80 25q7 -3 23 -3q7 0 18.5 1.5t28.5 3.5q10 37 20.5 70.5t20.5 62.5l79 25q-12 -33 -23.5 -69t-22.5 -76
q121 21 156 21q-20 -7 -59.5 -15.5t-100.5 -20.5l-31 -132zM193 299q1 5 7 29t17 67l77 25q-11 -32 -24 -96zM144 128l10 45t15 64l78 25q-5 -11 -9 -30t-8 -36q-4 -21 -8 -43z" />
    <glyph glyph-name="plus" unicode="+" horiz-adv-x="350" 
d="M191 151q24 40 45 101q-38 -2 -70.5 -3.5t-61.5 -1.5q41 14 75.5 20.5t63.5 7.5l12.5 42.5t18.5 59.5l78 24l-37 -120l141 13q-45 -14 -82 -22.5t-66 -11.5q-9 -26 -18 -46.5t-20 -36.5z" />
    <glyph glyph-name="comma" unicode="," horiz-adv-x="182" 
d="M157 79q0 -1 1.5 -8t3.5 -15.5t3.5 -17.5t1.5 -14q0 -11 -8 -20.5t-26.5 -19.5t-50 -21t-78.5 -25q86 41 86 61q0 6 -1.5 15.5t-3.5 18t-3.5 14.5t-1.5 7z" />
    <glyph glyph-name="hyphen" unicode="-" horiz-adv-x="289" 
d="M114 273q13 6 23.5 10.5t25 8.5t37.5 6.5t61 4.5l138 6q-13 -6 -23 -10.5t-25 -8.5t-38 -7t-61 -5z" />
    <glyph glyph-name="period" unicode="." horiz-adv-x="150" 
d="M53 -9v32q0 8 -0.5 14.5t-0.5 11.5v5l77 25v-5q0 -5 0.5 -12t0.5 -15v-31z" />
    <glyph glyph-name="slash" unicode="/" horiz-adv-x="392" 
d="M596 561q-25 -27 -94.5 -98.5t-185.5 -189.5q-242 -246 -254 -251q-5 -2 -25 -8.5t-55 -17.5q303 313 534 540z" />
    <glyph glyph-name="zero" unicode="0" horiz-adv-x="412" 
d="M472 164q-18 -35 -34.5 -59.5t-36.5 -42t-47 -30.5t-66 -25q11 10 21 19t19 20q-11 -6 -33.5 -14t-47.5 -15.5t-47 -12.5t-31 -5q-61 0 -61 66q0 67 47 150l-47 -14q32 70 89 100q9 4 40.5 15t86.5 29h-12q-11 0 -24 -2t-30 -5v3q48 17 81.5 24.5t52.5 7.5q74 0 74 -77
q0 -70 -39 -146zM242 25q26 0 52.5 26t47.5 64.5t34.5 81.5t13.5 77q0 26 -14.5 48t-33.5 22q-24 0 -52 -28.5t-51 -68.5t-38.5 -82.5t-15.5 -70.5q0 -26 15.5 -47.5t41.5 -21.5z" />
    <glyph glyph-name="one" unicode="1" horiz-adv-x="210" 
d="M101 -41q2 11 5 22.5t7 22.5l-36 -11l68 188l-46 -16q11 56 28.5 103t41.5 88l79 25l-28 -53l58 18q-12 -18 -24.5 -45t-23.5 -64l-38 -116l41 13q-41 -88 -55 -150z" />
    <glyph glyph-name="two" unicode="2" horiz-adv-x="363" 
d="M407 25q-44 -14 -77 -21t-56 -7q-20 0 -35.5 6.5t-31.5 14t-34 14t-42 6.5h-12l-161 -59q6 9 24 26.5t38 36t37 32.5t22 15l16 3q30 6 70 31t77 58t62.5 67t25.5 58q0 32 -28 32q-32 -3 -50.5 -14t-29 -26.5t-14.5 -34t-5 -35.5l-78 -24q4 32 14.5 65t29.5 65l79 24
l-17 -31q84 39 135 39q14 0 26 -5l62 20q0 -45 -7 -75.5t-24 -52t-46.5 -36t-75.5 -26.5q41 35 58 63q-41 -34 -100.5 -86t-140.5 -121q48 14 81 14q15 0 38 -6t47 -13t46.5 -13t35.5 -6q18 0 41 5v-3z" />
    <glyph glyph-name="three" unicode="3" horiz-adv-x="320" 
d="M162 -105q8 3 22 15q-17 -10 -39.5 -20.5t-46 -18.5t-45.5 -13.5t-38 -5.5q-8 0 -15 2t-12 4l81 25q3 -1 9 -1q28 0 56.5 22.5t51 53t36.5 61t14 46.5q0 74 -121 74q52 24 85.5 41.5t52.5 32.5t26.5 29t7.5 31q0 21 -17 33t-39 12q-13 0 -28 -5l-27 -61l-79 -24
q16 37 56 113l79 26q-8 -11 -14 -23t-13 -27q32 11 60 16.5t51 5.5q53 0 53 -33q-2 -22 -9 -37.5t-24.5 -30.5t-48.5 -31.5t-82 -40.5q109 -2 109 -75q0 -24 -13 -50l49 15q-9 -32 -22 -55.5t-34 -42.5t-53 -34.5t-79 -30.5v2z" />
    <glyph glyph-name="four" unicode="4" horiz-adv-x="449" 
d="M205 -141q14 40 27.5 75.5t27.5 67.5q-39 20 -86 20q-21 0 -39 -2.5t-38 -9.5t-46 -20t-65 -34q17 31 56 81q25 34 40 49t27 21t25 8.5t36 10.5q7 1 97 105l106 120l81 26q-24 -27 -57 -63.5t-68 -75.5t-70 -77t-62 -67.5t-43.5 -47.5t-15.5 -17q85 27 111 27q19 0 32 -4
q17 37 33 68.5t32 58.5l40 13l19 49l79 26q-19 -52 -72 -166l-48 -16l-26 -57q52 -27 87 -27q9 0 24.5 2t31 5t27.5 5.5t14 2.5q-121 -41 -173 -41q-8 0 -16.5 0.5t-15.5 1.5l-35 -93z" />
    <glyph glyph-name="five" unicode="5" horiz-adv-x="344" 
d="M189 -113q14 6 26.5 18.5t24.5 30.5q-14 -10 -47.5 -25t-72.5 -29.5t-74.5 -24.5t-52.5 -10q-16 0 -20 7l79 24q10 -6 22 -6q23 0 50.5 16.5t51 40.5t39 52.5t15.5 52.5q0 42 -31 68t-85 26q-25 0 -53 -6q7 12 25 40.5t37 57t33.5 50t13.5 21.5q24 3 68.5 12t131.5 22
l18 29l80 25l-46 -69q-14 -20 -22.5 -38.5t-16.5 -33.5l-78 -25q8 19 21.5 42t30.5 51q-6 -2 -25 -5.5t-41 -7t-41 -6.5t-25 -4q-28 -38 -83 -133q27 6 51 6q111 0 111 -97v-11t-1 -13l49 17q-3 -34 -12.5 -59.5t-28.5 -45t-48.5 -34.5t-73.5 -28v2z" />
    <glyph glyph-name="six" unicode="6" horiz-adv-x="316" 
d="M350 98q-19 -39 -36 -65t-38 -43t-49 -29.5t-70 -24.5q36 20 64 56q-9 -7 -22 -12.5t-30 -10.5h15l-36 -14q-14 -5 -26 -9.5t-15 -4.5q-10 0 -22 5.5t-22.5 15.5t-17.5 23.5t-7 29.5q0 18 9 45.5t24.5 60t36 67.5t43 67.5t45 60.5t43.5 47l-65 -21q26 26 48.5 44.5
t46 32.5t50.5 24.5t62 21.5q-47 -20 -93 -63q28 21 69 35l75 22q-118 -39 -233 -215q43 15 71 15q61 0 61 -64q0 -51 -35 -114zM191 231q-77 -124 -77 -199q0 -44 35 -58q16 12 35 37t35.5 53.5t27 57t10.5 48.5q0 59 -66 61z" />
    <glyph glyph-name="seven" unicode="7" horiz-adv-x="369" 
d="M326 86q-78 -83 -87 -89q-32 -23 -117 -49q17 11 34 23.5t34 28.5q-21 -17 -37.5 -28.5t-35.5 -20.5t-44.5 -18t-65.5 -21q82 43 156 115q10 9 28.5 30t42 47.5t49.5 56.5t51.5 58.5t47.5 52.5t38 39q-65 -21 -91 -21q-23 0 -47.5 8.5t-56.5 11.5q-29 -22 -55 -94
l-76 -26q17 50 33.5 82.5t36.5 54t45.5 34t61.5 23.5q-29 -25 -54 -68q45 15 82 15q8 0 22.5 -2.5t29.5 -6t28 -6t19 -2.5q20 0 65 18q66 27 67 27q-21 -15 -48 -41.5t-56 -58t-57 -64.5t-51 -60.5t-38.5 -46.5t-18.5 -23z" />
    <glyph glyph-name="eight" unicode="8" horiz-adv-x="338" 
d="M0 -126q-5 8 -8 15.5t-3 18.5q0 24 18 59l40 12q9 11 24.5 27.5t36.5 32.5l71 53q-36 33 -36 84q0 25 9.5 50.5t26 47.5t38.5 39t47 26l171 53l4 -21l52 17l-31 -70q-8 -20 -17.5 -36t-18.5 -30l-47 -14q-38 -57 -118 -122q55 -52 55 -95q0 -27 -20.5 -50.5t-52.5 -41
t-71 -28t-76 -10.5q-21 0 -24 6zM321 343q-20 -7 -38 -24t-32.5 -39t-23 -46t-8.5 -44q0 -29 16 -49q24 23 47 51t41 55.5t28.5 52t10.5 39.5q0 10 -5 16zM202 72q-17 -12 -35 -31t-33 -38.5t-24.5 -37t-9.5 -26.5q0 -24 37 -24q11 0 28.5 5t34 15.5t28.5 26t12 37.5
q0 38 -38 73z" />
    <glyph glyph-name="nine" unicode="9" horiz-adv-x="338" 
d="M393 246q-26 -88 -73.5 -160.5t-107 -124.5t-126 -80.5t-129.5 -28.5q-22 0 -43.5 3.5t-44.5 9.5q30 -3 58 -3q53 0 98 12t84.5 38.5t75.5 68t70 100.5q-14 -4 -35 -11t-50 -15l35 -6q-46 -15 -70 -22t-28 -7q-21 0 -34.5 20t-13.5 46q0 21 7 35l35 10q0 40 19 79.5
t51.5 73t74.5 59t89 38.5l-20 11l38 14q11 4 20 7.5t16 3.5q26 0 26 -34l39 13q6 -15 6 -33q0 -46 -33 -106zM338 372q-161 -89 -161 -218q0 -28 14 -49.5t40 -21.5q16 0 30 16.5t26 42t21.5 56.5t16.5 61t10.5 54.5t3.5 36.5v11.5t-1 10.5z" />
    <glyph glyph-name="colon" unicode=":" horiz-adv-x="166" 
d="M165 184q-2 9 -6.5 23.5t-9.5 29t-9.5 25.5t-4.5 14l77 25q7 -14 14.5 -37.5t15.5 -53.5zM65 -24q0 26 -17 79l78 25q16 -47 16 -79z" />
    <glyph glyph-name="semicolon" unicode=";" horiz-adv-x="178" 
d="M187 215q-7 8 -14 24.5t-13 41.5l77 24l10 -34q6 -16 19 -31zM9 -58l48 28q19 11 26.5 20t8.5 14q0 4 -5 10.5t-14 18.5l-24 31l79 24q11 -14 20 -25q8 -10 14.5 -20t6.5 -15t-9.5 -14t-22 -18t-24.5 -16.5t-18 -9.5z" />
    <glyph glyph-name="less" unicode="&#x3c;" horiz-adv-x="259" 
d="M216 90q-39 61 -93 102l96 80q40 33 63 49.5t27 19.5q1 1 21.5 7t61.5 20q-32 -24 -78.5 -62t-109.5 -89q25 -20 47.5 -45t42.5 -57z" />
    <glyph glyph-name="equal" unicode="=" horiz-adv-x="367" 
d="M399 302q-4 -1 -14 -1h-26q-10 0 -32 0.5t-46.5 1.5t-46.5 1.5t-32 0.5q14 5 43 17t64 12q11 0 32.5 -0.5t45 -1.5t45.5 -1.5t33 -0.5h22zM451 263q-29 -12 -56.5 -19.5t-53.5 -11.5q-12 -2 -38 -3.5t-56 -3t-59 -3t-47 -4.5l71 23q42 11 75 11h62q58 0 102 14v-3z" />
    <glyph glyph-name="greater" unicode="&#x3e;" horiz-adv-x="249" 
d="M80 160q73 24 194 106q-2 2 -17 15t-34 31t-37.5 37.5t-28.5 34.5l79 26q8 -14 26.5 -33t38 -37.5t35 -33t18.5 -17.5q-126 -84 -274 -132v3z" />
    <glyph glyph-name="question" unicode="?" horiz-adv-x="336" 
d="M207 169q145 100 145 171q0 8 -3 23t-7 31.5t-7 32t-3 23.5q0 20 6.5 39.5t18.5 40.5q-30 -14 -53.5 -23t-40.5 -15q-16 -30 -19 -59l-78 -26q4 31 18.5 61.5t38.5 62.5l79 26q-10 -14 -18.5 -27t-15.5 -27l91 40q27 12 50.5 20.5t43.5 15.5q-41 -55 -41 -94q0 -9 2 -25
t5 -32t5 -29.5t2 -17.5l23 8q14 -11 14 -27q0 -40 -65 -114q-15 -5 -26 -9.5t-22.5 -10.5t-24.5 -13.5t-33 -17.5zM131 -14q-4 9 -8 23t-9 32l77 24q3 -8 8 -22t10 -33z" />
    <glyph glyph-name="at" unicode="@" horiz-adv-x="593" 
d="M579 232q-103 -53 -151 -53q-14 0 -19.5 4.5t-5.5 14.5q-42 -14 -61 -14q-8 0 -13 1l16 -10l-80 -26q-34 16 -34 67q0 9 0.5 24.5t0.5 21.5l47 15q47 107 192 131l4 9l34 10l17 29l80 25q-32 -48 -65 -140l-34 -12q-26 -64 -26 -90q0 -21 9 -34q29 14 54 39t44 56
t29.5 65.5t10.5 67.5q0 68 -42.5 103.5t-124.5 35.5q-34 0 -67.5 -18.5t-64.5 -50t-57 -72t-45.5 -85t-30.5 -90t-11 -85.5q0 -35 14.5 -65t40.5 -51.5t61 -33.5t77 -12q25 0 58 10.5t64 24t54 24.5t28 13q-17 -13 -52.5 -30.5t-78.5 -33.5t-88.5 -27.5t-83.5 -11.5
q-78 0 -122 48t-44 134q0 33 7 69.5t20 72t31 69t41 62.5l-42 -14q14 30 25 49t29 33t47 26t79 28l-35 -26q118 74 239 74q145 0 145 -132q0 -28 -6 -59l52 17l-37 -106q-10 -24 -23 -41.5t-31 -31t-43 -23.5t-58 -19zM468 397q-6 -2 -13.5 -4t-18.5 -7q-14 -5 -29.5 -19
t-28.5 -31.5t-21.5 -36.5t-8.5 -34q0 -43 56 -52q3 34 26 93z" />
    <glyph glyph-name="A" unicode="A" horiz-adv-x="739" 
d="M728 -9q-13 -5 -24.5 -7.5t-20.5 -2.5q-17 0 -28 7q-21 -12 -36 -12q-32 0 -32 51q0 65 47 191q-42 -7 -104 -9q-60 -68 -101 -112t-73.5 -74.5t-61 -52t-63.5 -44.5q46 -14 93 -38.5t94 -48t95 -41t96 -17.5q137 0 294 92q-70 -51 -136 -76.5t-129 -25.5q-35 0 -70.5 8
t-73.5 23q-12 4 -46.5 20t-76.5 35.5t-84 37t-68 24.5q-104 -68 -177 -68q-60 0 -60 38q0 12 9.5 23t25.5 19t38 12.5t46 4.5q55 0 123 -21q23 16 42.5 30t38.5 29.5t39 34.5t45 45t56.5 61t73.5 82l-39 -4q-147 -164 -337 -180q41 14 82.5 27.5t74.5 36.5l-79 -25
q173 99 306 279l-25 1q-36 -48 -57.5 -76.5t-37.5 -44.5t-31 -24t-37 -15q16 9 33.5 26.5t35.5 39.5t36.5 46.5t36.5 47.5h-17q-117 -154 -169 -169q78 61 159 170h-57q14 8 37 8q6 0 12 -0.5t12 -1.5q15 21 29.5 42t29 39t27.5 31t25 18q-7 -7 -31.5 -39.5t-68.5 -90.5
l16 -1q22 30 44.5 60t45 55.5t45.5 45t48 29.5q-55 -49 -161 -190h24q46 61 74.5 98.5t48.5 60t37 35.5t40 26l-149 -12q-83 -14 -109 -86l-78 -25q23 68 62 124l79 27l-29 -49q26 7 60 13.5t72 12.5t79 11l82 10l7 18q-8 32 -43.5 51t-80.5 19q-35 0 -56 -12.5t-21 -33.5
q0 -20 13 -20q16 0 24 14q-5 -21 -24 -21q-25 0 -25 22q0 26 27 41.5t64 15.5q24 0 46 -5t40 -14.5t30.5 -22.5t17.5 -28l67 21l-59 -142l-32 -11l-78 -219q-29 -78 -41.5 -130.5t-12.5 -81.5l40 14q8 -21 14 -33.5t12 -19.5t12.5 -9t15.5 -2q5 0 8 0.5t7 1.5v-3zM624 -69
q-38 0 -61 29.5t-23 71.5q0 38 22 57q-11 -25 -11 -54q0 -87 77 -104h-4zM532 222q52 57 86 98t56.5 75.5t37.5 67.5t30 74q-16 -17 -39 -44.5t-48.5 -60.5t-51.5 -67t-48.5 -64t-40 -52.5t-25.5 -31.5q8 1 18.5 2t24.5 3zM641 238q11 29 26.5 75.5t36.5 111.5
q-19 -32 -59 -81.5t-102 -118.5q39 7 63.5 10t34.5 3zM214 -80q-72 22 -127 22q-42 0 -67 -13t-25 -35q0 -19 17.5 -29t39.5 -10q60 0 162 65z" />
    <glyph glyph-name="B" unicode="B" horiz-adv-x="663" 
d="M780 301q1 -4 1.5 -7t0.5 -7q0 -115 -312 -233q41 20 78.5 51t66.5 68t46 77t17 79q0 85 -87 85q-14 0 -29.5 -2.5t-33.5 -7.5q31 22 60 42.5t51.5 39.5t36 36t13.5 32q0 13 -16 25t-39 12q-9 0 -25 -8t-36 -20t-41 -26.5t-40 -27t-34 -21t-22 -9.5q-6 -13 -14 -35
t-17.5 -49t-19.5 -56t-19.5 -55.5t-17 -47.5t-12.5 -32q6 3 21 3h11q18 48 35.5 95t35 86.5t34.5 70t34 45.5q-16 -42 -44.5 -115.5t-70.5 -179.5l32 2q7 22 14.5 42.5t14.5 37t14 27t15 12.5q-3 -7 -11 -27.5t-19 -49t-24 -62t-26.5 -65.5t-25.5 -60.5t-22 -46.5l16 2t16 3
l-103 -35l1 3q-21 -2 -44 -4.5t-47 -4.5l-10 -12l-81 -25l28 36h-28q-36 -59 -67 -96q56 -29 113.5 -53t107.5 -24q66 0 149 42.5t171 114.5q23 19 47.5 40t53.5 43q-121 -169 -352 -238q-33 -10 -68 -10q-52 0 -118 24l-110 51q-77 -87 -128 -87q-39 0 -39 42q0 32 27 53
t63 21q35 0 76 -16q17 23 40.5 63.5t52.5 99.5q32 68 71 166t93 227q-21 -63 -43 -128t-45 -125.5t-46.5 -114.5t-47.5 -95l35 13q1 1 15.5 28.5t42.5 82.5l35 11q37 80 90 226q67 177 67 215q0 5 -2 6h-20l-23 -67l-78 -25q7 26 18.5 55t27.5 64l78 25l-21 -48
q36 12 56.5 17.5t25.5 5.5q18 0 18 -19q0 -8 -4 -22t-11 -34l233 115q81 36 139.5 54.5t96.5 18.5q19 0 33 -6.5t23 -16.5t13.5 -22t4.5 -22q0 -11 -5.5 -24.5t-15 -25t-21.5 -19t-24 -7.5q-20 0 -20 24q0 9 3 23v-10q0 -22 21 -22q18 0 29.5 13t11.5 31q0 9 -4 20.5t-13 22
t-23.5 17.5t-35.5 7q-43 0 -110.5 -22t-160.5 -67q56 19 89 19q37 0 47 -25l55 18q-5 -50 -32 -78.5t-87 -48.5l23 29l-108 -78q13 3 24.5 5t22.5 2q91 0 91 -106q0 -22 -3 -43zM21 -121q-47 22 -73 22q-12 0 -25.5 -6t-25.5 -16.5t-20 -24.5t-8 -31q0 -26 30 -26
q53 0 122 82zM292 12q14 37 32 84.5t41 105.5l-30 -3q-15 -31 -35.5 -78t-47.5 -111zM343 18q32 58 78 187l-32 -1l-74 -189zM636 101q-202 -117 -324 -157q78 51 158.5 90t165.5 67zM470 54q-41 -21 -79 -29zM389 25q-1 0 -1 -0.5t-1 -0.5h-1zM913 608q0 1 0.5 1t0.5 1
q0 -1 -0.5 -1t-0.5 -1z" />
    <glyph glyph-name="C" unicode="C" horiz-adv-x="511" 
d="M685 -34q-62 -19 -107.5 -32t-80 -22.5t-60 -15t-48 -8t-45 -3.5t-50.5 -1q-232 0 -232 199q0 100 60 225q-18 13 -18 35q0 20 13 44t32.5 44.5t42 34.5t41.5 14h5q43 43 89 63q-41 -25 -81 -65q32 -13 32 -39q0 -9 -5.5 -19.5t-14 -19t-18.5 -14.5t-19 -6q-10 0 -10 12
v5.5t2 7.5q-1 -3 -1 -7q0 -8 6 -8q7 0 15 6.5t15 16t11.5 19t4.5 15.5q0 20 -21 28q-65 -67 -109 -162q7 -6 14.5 -8.5t15.5 -2.5q39 0 92 56l72 90q23 28 46 48t45 33q6 3 23.5 11t40.5 16.5t48 15t46 6.5q37 0 68 -22l2 10l78 26q-13 -41 -30.5 -79t-39.5 -74l-79 -23
q20 31 33.5 57t23.5 48h-3q-1 0 -12.5 3.5t-28 8t-34 8.5t-29.5 4q-142 0 -232 -289l54 4l38 101q23 59 32 101l26 9q-5 -23 -13 -49.5t-19 -56.5l-41 -103h23l24 62l12 5l-25 -68l23 -9q-8 -1 -13 -1.5t-4 -0.5q-1 0 -9 2q-30 -74 -87 -225q7 -2 15.5 -3t16.5 -1
q55 0 183 61q-17 -17 -47.5 -33t-66 -29t-70.5 -20.5t-61 -7.5q-28 0 -47 8q-22 -11 -41 -11q-26 0 -41.5 21t-15.5 52v13l52 17q5 136 89 283q-13 -15 -29 -29.5t-33.5 -25.5t-34.5 -17.5t-32 -6.5q-14 0 -23 4q-55 -122 -55 -216q0 -97 57 -146.5t164 -49.5q42 0 90.5 6.5
t106.5 21.5zM294 250q-25 -79 -25 -137q0 -27 6 -45q10 23 27.5 69.5t43.5 118.5zM127 319q46 93 108 157q-17 0 -38 -13t-39 -32.5t-30 -41.5t-12 -41t11 -29zM392 256l-22 1l-81 -212l15 -14zM521 19q-21 -14 -48.5 -26.5t-55 -22.5t-53 -16t-41.5 -6q-27 0 -40 14
q5 -1 11.5 -2t14.5 -1q21 2 47.5 6.5t59.5 15.5z" />
    <glyph glyph-name="D" unicode="D" horiz-adv-x="589" 
d="M700 426q-19 -73 -68 -142t-119.5 -127.5t-157 -103t-179.5 -67.5l-10 -20l-79 -25q3 6 14 25.5t23.5 43.5t24 48.5t14.5 39.5l51 16l103 242q-23 -33 -46.5 -60t-46.5 -47q12 -6 25 -6q7 0 13 2q-16 -13 -23 -13q-5 0 -26 8q-63 -46 -114 -46q-55 0 -55 55q0 20 7.5 42
t20 40t28.5 30t33 12q32 0 57 -51q4 -8 6.5 -17t6.5 -17q4 -11 7 -19.5t8 -14.5q123 110 167 298l62 19h-99q82 30 180 30t147 -37l35 11q41 -12 41 -80q0 -10 -0.5 -27.5t-0.5 -24.5zM429 257q-23 -56 -44 -104t-42 -89q32 20 66.5 50t67 65t61.5 73t50.5 74.5t34 69.5
t12.5 59q0 108 -174 116q-11 -45 -40 -122t-77 -187l28 -1q30 70 53.5 123.5t37.5 91.5l26 9q-14 -39 -38 -95t-56 -129l25 1l40 108l14 4q-11 -29 -21.5 -56.5t-21.5 -54.5l29 1q-18 -7 -28 -7h-3zM610 -183q-154 -58 -247 -58q-62 0 -129.5 24t-139.5 73
q-128 -41 -174 -41q-25 0 -29 10q1 16 9.5 31t22 25.5t29.5 17t31 6.5q57 0 122 -43q103 33 226.5 104t260.5 189q-38 -45 -91 -88t-116 -81.5t-134 -70.5t-144 -55q142 -94 251 -94q27 0 45 1t42 6t61.5 16t103.5 31v-3zM209 245q-5 5 -10.5 14t-8.5 20t-6.5 20.5
t-6.5 17.5q-20 46 -58 46q-12 0 -24 -10t-21 -25t-14.5 -32.5t-5.5 -31.5q0 -29 19 -45.5t48 -16.5q36 0 88 43zM90 -142q-66 44 -113 44q-8 0 -14 -3q-5 -2 -15.5 -9t-21 -17t-18 -21t-7.5 -21q4 -10 28 -10t64 9.5t97 27.5zM226 8q10 2 19 5t19 8q12 18 25.5 45t27 58.5
t27 65t25.5 65.5l-27 1q-17 -42 -43.5 -103.5t-63.5 -142.5zM327 54q22 43 44.5 93t46.5 109l-26 -1l-45 -112q-14 -34 -26.5 -60.5t-24.5 -46.5zM575 171q-38 -31 -80.5 -61.5t-82.5 -55t-72.5 -42t-51.5 -21.5q51 27 83 46.5t60.5 38t61 40.5t82.5 55z" />
    <glyph glyph-name="E" unicode="E" 
d="M614 123q-21 -22 -47 -42t-60 -35q-11 -6 -29 -13.5t-40.5 -15.5t-49.5 -14t-57 -9q-61 -9 -89.5 -17.5t-44.5 -8.5q-57 0 -57 77l47 15q-1 5 -1 9.5v9.5q0 38 15 73t42.5 65t65.5 53t85 38q-50 30 -50 72q0 38 40 91q-12 -8 -29.5 -15t-37 -12.5t-38 -9t-33.5 -3.5
q-67 0 -67 53q0 19 17.5 39.5t42.5 37t53 27t49 10.5q42 0 42 -36q0 -14 -13.5 -30.5t-32.5 -30t-38.5 -22.5t-32.5 -9q-14 0 -14 11q0 13 18 28t38 20q-41 -21 -44 -47q3 -6 10 -6q11 0 28 9t32.5 22t26.5 27t11 24q0 33 -38 33q-20 0 -45 -9.5t-47 -24.5t-37 -33.5
t-15 -35.5q0 -51 70 -51q59 0 121 37l97 66q57 37 107 37q44 0 93 -26l6 20l78 26q-3 -13 -15 -45t-34 -84l-79 -25l28 61l-23 -7q-51 44 -100 44q-23 0 -43.5 -11.5t-36 -30.5t-24.5 -44t-9 -51q0 -30 12 -43l46 112l27 8l-57 -136q54 -40 89 -40q15 0 27 4
q-2 -7 -14 -14.5t-28 -13.5t-33.5 -10t-29.5 -4q-6 0 -14 2l-26 -70l39 5q-12 -6 -23 -8.5t-19 -2.5q-18 -48 -36 -92.5t-36 -86.5h15q95 0 169 84zM1025 -128q-92 -35 -175.5 -52t-160.5 -17q-164 0 -348 81q-116 -68 -199 -68q-40 0 -64 16t-24 39q0 29 33 46.5t80 17.5
q74 0 178 -43q45 27 85 57t75 62q-83 -42 -139 -42q-7 0 -12.5 0.5t-10.5 1.5q111 12 244 98q-64 -53 -98 -81.5t-55 -44t-38 -26t-45 -27.5q180 -79 323 -79q73 0 177 21zM441 272q-4 1 -7.5 2t-7.5 3l-34 -80l20 1zM405 285q-8 3 -15.5 4.5t-14.5 2.5q-51 -36 -83 -98
q20 0 39.5 0.5t37.5 1.5zM341 16q17 42 35 85.5t35 90.5l-20 -2q-41 -95 -69 -171zM366 190q-17 -1 -36 -1.5t-42 -0.5q-24 -50 -24 -90q0 -49 38 -71q14 37 30 77.5t34 85.5zM336 -114q-93 39 -162 39q-110 0 -110 -51q0 -10 9 -19t23 -15.5t31.5 -10.5t35.5 -4
q72 0 173 61z" />
    <glyph glyph-name="F" unicode="F" horiz-adv-x="685" 
d="M702 290l18 51l-41 -4l-35 -78h7q32 0 64 9q-26 -16 -74 -16l-45 -96l-13 -5l47 101h-13q-47 -111 -91 -174l-28 -9q46 67 95 183l-19 -1q-31 -71 -57 -120t-49 -75q-16 -18 -41 -39.5t-56 -39.5t-65 -30t-67 -12q-26 0 -47 10.5t-21 27.5q0 35 87 62q-4 -12 -4 -28
q0 -52 37 -52q17 0 36.5 10.5t38.5 28.5t36 41.5t31 48.5q8 14 25 55t46 109h-5q-16 -16 -42.5 -35t-55 -35.5t-55 -27.5t-41.5 -11q-33 0 -35 37q-23 -9 -37 -9q-20 0 -30 16.5t-10 36.5q0 15 6 27q0 -30 9 -51.5t37 -21.5q13 0 25 4q0 22 12 43t30 37q8 7 20 15t24 8
q20 0 20 -22q0 -47 -94 -80q2 -35 32 -35q13 0 37 10.5t49.5 26.5t49.5 34t38 33l-37 -3q21 8 44 10q22 22 41 72q-35 -3 -66.5 -8t-64.5 -14q29 12 62 21t76 20l75 199q-27 10 -38 10q-24 -1 -55 -17.5t-76 -59.5l-16 -25l-79 -26q20 33 40.5 64t41.5 60l80 25l-25 -36
q33 13 82.5 20.5t121.5 9.5h91q38 0 60 3t27 6h-9q-41 0 -75.5 4t-66 13t-61 22.5t-59.5 31.5q-16 10 -31 19.5t-32 18.5q-18 9 -35 12.5t-34 3.5q-28 0 -73.5 -17t-89 -43t-75 -58t-31.5 -63q0 -25 39 -25q13 0 33 4.5t39 12t32 17t13 20.5q0 8 -6 15.5t-17 7.5
q-14 0 -19.5 -8t-5.5 -19t9 -18q-24 4 -24 21q0 13 14 24t28 11q12 0 23.5 -10t11.5 -22q0 -11 -14.5 -22.5t-35.5 -21t-45.5 -15.5t-45.5 -6q-41 0 -41 30q0 23 15.5 47t40.5 46t56.5 41t63.5 33.5t61.5 22.5t51.5 8q21 0 48.5 -8.5t56.5 -25.5q24 -15 48 -30.5t50 -29.5
q41 -22 89 -30t105 -8q7 0 20 4.5t28.5 12t32.5 17t33 19.5l-28 -27l40 12q-29 -36 -48.5 -57t-38 -33.5t-39.5 -20t-53 -16.5q24 21 44.5 41t37.5 40q-104 -39 -169 -39q-25 0 -50 3l-70 -186l22 1q8 20 18 42t23 47q3 0 23 7l-40 -94l16 1q6 14 12 29t14 31l10 3l-24 -61
l111 7l-20 -53zM1279 -69q-134 -98 -417 -98q-35 0 -84.5 2.5t-104 6.5t-108 8.5t-97 8t-71.5 6.5t-31 3q-110 -96 -206 -96q-29 0 -51.5 12t-22.5 30q0 16 14 28.5t39 21t59 13t75 4.5q21 0 43.5 -1.5t47.5 -3.5q21 20 39.5 42.5t34.5 48.5q-17 -12 -37.5 -23.5t-42.5 -21
t-43 -16.5t-39 -9q29 7 75 29t110 60q-6 -6 -11.5 -14t-14.5 -20.5t-23.5 -31t-38.5 -45.5q66 -6 133.5 -11.5t131.5 -10t120.5 -7t99.5 -2.5q254 0 421 87zM668 336h-17l-31 -76h14zM596 259q5 8 12 27t18 48l-20 -2l-30 -74zM282 182q83 30 83 70q0 22 -13 22
q-8 0 -17.5 -6t-17.5 -16q-14 -15 -24.5 -35.5t-10.5 -34.5zM356 -131q-29 2 -50.5 3t-38.5 1q-73 0 -119.5 -16.5t-46.5 -45.5q0 -14 22.5 -21.5t53.5 -7.5q17 0 40 7t47.5 18.5t48 27.5t43.5 34z" />
    <glyph glyph-name="G" unicode="G" 
d="M1197 -69q-29 -2 -73 -6.5t-106 -16.5q-17 -4 -47 -10.5t-68 -15t-80 -17t-81.5 -15t-73.5 -11t-55 -4.5q-33 0 -49 8q-118 -55 -189 -55q-54 0 -126 28l-119 53q-63 -32 -101 -32q-25 0 -25 18q0 8 9 14.5t21 11t24.5 6.5t20.5 2q30 0 56 -11q41 23 79 57
q-106 25 -106 86q9 13 20 22q-7 -10 -7 -20q0 -55 101 -81q72 63 72 104q0 31 -60 31q-45 0 -78 -16q43 23 87 23q61 0 61 -39q0 -41 -74 -104q19 -11 38 -11q95 0 215 241q-57 -23 -100.5 -33.5t-73.5 -10.5h-12.5t-10.5 1l9 -7l-79 -26q-46 29 -46 103q0 9 0.5 18.5
t1.5 20.5l46 14q7 37 22 76t35 74.5t44.5 66t51.5 51.5q-98 -45 -158 -45q-30 0 -30 18q0 11 8 25.5t20 28t26 22.5t25 9q22 0 39 -31q-7 8 -17 16t-21 8q-9 0 -21 -8t-22 -19t-17 -24t-7 -22q0 -16 27 -16q60 0 231 73q14 8 41.5 19.5t56.5 11.5q45 0 70 -29l10 21l78 25
q-6 -14 -19 -44t-36 -76l-77 -25q-3 17 -11 35t-20.5 33t-28 24.5t-32.5 9.5q-20 0 -45.5 -23t-51 -58t-47 -76.5t-34.5 -79.5l33 2l27 72q11 29 19.5 45t11.5 20l22 7l-57 -143h24q7 18 14.5 37.5t17.5 39.5l10 3l-32 -80l57 -1q-13 -7 -36 -7h-11.5t-11.5 1l-66 -155
q22 -9 49 -9q21 0 42 5.5t39.5 16t32.5 25t22 32.5l39 13q10 16 18 30.5t13 28.5l78 25q-10 -27 -38 -69l-44 -67l-23 -7q-158 -264 -285 -264q-25 0 -52 9q-20 -16 -39.5 -30.5t-40.5 -26.5l119 -53q34 -15 65.5 -22t58.5 -7q70 0 174 51l-19 21q-1 3 -1 8q0 13 8.5 25
t21 21t27 14.5t26.5 5.5q29 0 29 -25q0 -26 -74 -65q8 -2 17.5 -3.5t21.5 -1.5q26 0 69 7t102 20l183 42q56 11 102 16.5t84 5.5q13 0 24.5 -1t21.5 -3h-4zM571 -149q69 36 69 62q0 21 -24 21q-10 0 -21.5 -5t-21.5 -13t-16.5 -17.5t-6.5 -19.5q0 -19 21 -28zM384 319h-22
q-10 -23 -23.5 -57.5t-30.5 -80.5l14 -12zM125 -129q-28 11 -54 11q-55 0 -55 -24q0 -15 27 -15q33 0 82 28zM305 316q-16 -47 -16 -83q0 -17 4 -28q7 18 18 46t28 68zM503 30q-55 -91 -160 -106q22 7 39 17t34.5 22.5t37.5 29t49 37.5z" />
    <glyph glyph-name="H" unicode="H" horiz-adv-x="657" 
d="M593 -68l-12 16l-42 -13q-37 16 -37 70q0 56 35 144l62 137q-11 -1 -24 -1.5t-27 -0.5q-31 0 -79 3l-60 -145q-47 -96 -92 -117q-39 -18 -68 -26.5t-47 -8.5q-5 0 -33 6t-67 9q77 26 88 26h6q18 38 35.5 77.5t35.5 81.5l-37 -1q15 7 33 7h6q17 47 42 100l9 3l-39 -102
l22 1l52 129q-42 37 -92 37q-31 0 -64 -14t-60 -36.5t-44.5 -50t-17.5 -54.5q0 -29 20 -41.5t61 -12.5h9l16 8q3 24 3 47q0 20 -3 43.5t-11 50.5q27 -56 27 -110q0 -42 -17 -82.5t-45.5 -72.5t-66.5 -51.5t-81 -19.5h-13t-11 1q-29 -14 -44.5 -22t-25 -11.5t-15.5 -4.5
t-16 -1q-25 0 -45 8t-39 30q17 -11 34.5 -20.5t40.5 -9.5q42 0 106 34q-15 15 -15 36q0 14 6 27.5t16 24t23 17t27 6.5q12 0 25.5 -8.5t13.5 -19.5q0 -7 -7 -17t-18.5 -21t-26 -22t-29.5 -19q5 -1 16 -1q33 0 66 16t60 42t44.5 58.5t19.5 64.5q-12 -5 -23.5 -7.5t-23.5 -2.5
q-29 0 -50.5 14.5t-21.5 42.5q0 31 21 61t52.5 53.5t67.5 38t65 14.5q52 0 90 -32q6 18 14.5 38t19.5 43q2 0 23 7l-39 -104l13 -21l19 8q43 109 65 169.5t22 72.5q0 17 -21 17q-11 0 -25 -4t-29.5 -9.5t-32 -12t-32.5 -12.5l-37 -54l-80 -26q28 42 44 65t34 36.5t44 22.5
t73 23q-17 -8 -31.5 -20.5t-29.5 -27.5q54 17 92.5 26.5t62.5 9.5q46 0 46 -35q0 -8 -8.5 -32.5t-21.5 -58.5t-30 -71.5t-33 -70.5q22 -2 43.5 -3t43.5 -1q11 0 22 0.5t22 0.5l69 161q-26 -42 -44.5 -68.5t-33.5 -42.5t-29.5 -22t-30.5 -6q-24 0 -24 23q0 41 41 49
q-31 -21 -31 -44q0 -22 23 -22q12 0 34.5 23t48 57t48 73.5t34.5 72.5l78 25q-17 -46 -45.5 -115t-70.5 -163l78 9l-86 -28l-55 -128q-19 -43 -27.5 -75t-10.5 -55l52 18q7 -34 17.5 -58.5t24.5 -40.5zM315 -115q43 12 66 18t37.5 9t25 3.5t29.5 1.5q-26 13 -26 57
q0 23 6 37.5t21 19.5q-9 -7 -12 -19t-3 -29q0 -51 43 -68q-51 -8 -100 -15t-83 -17q57 -21 131.5 -32t167.5 -11q133 0 255 21q-74 -29 -231 -29q-223 0 -340 46q-46 -13 -84 -20t-69 -7q-92 0 -92 46q0 12 7.5 21.5t20 17t28 11.5t31.5 4q44 0 89 -24zM221 -79
q-43 23 -85 23q-26 0 -47 -12t-21 -31q0 -20 25 -31.5t68 -11.5q57 0 137 21zM256 12q16 12 27 22t21.5 28t24 50t36.5 87l-40 -3q-23 -54 -44 -99t-41 -81zM-28 -22q72 42 72 75q0 22 -27 22q-25 0 -43.5 -18t-18.5 -40q0 -30 17 -39zM221 22q20 37 39.5 79.5t40.5 91.5
l-23 -3q-17 -43 -35.5 -83.5t-37.5 -78.5zM364 291l-36 -90q7 1 16.5 2t23.5 2q18 45 18 56q0 12 -6 29zM371 309l-5 -15l11 3zM402 289l-8 1l3 -15z" />
    <glyph glyph-name="I" unicode="I" horiz-adv-x="774" 
d="M888 459q-14 -37 -32.5 -89t-43 -107.5t-56 -110t-71.5 -98t-89 -70t-109 -26.5q-51 0 -99 39l-78 74q-45 38 -86 38q-51 0 -117 -80q8 19 21.5 36t30.5 29.5t37 20t40 7.5q40 0 84 -41l78 -74q49 -39 102 -39q60 0 131 52q-93 -30 -134 -30q-21 0 -34 10.5t-22 24
t-16 26t-14 15.5l80 26q6 -3 12 -12.5t12 -20.5t12 -21t12 -14q43 76 77 171l-41 3q8 7 23 7q11 0 20 -3l16 57q10 41 25 46q-6 -24 -13 -49.5t-17 -53.5h15l56 147q-24 9 -46 9q-18 0 -31 -4q1 -3 1 -10q0 -15 -12 -29t-31 -24.5t-41 -17t-43 -6.5q-12 0 -17 1
q-71 -65 -71 -115q0 -21 13 -34t33 -13q12 0 24.5 5t23 13.5t17 20t6.5 25.5q0 11 -10 16t-20 5q-24 0 -24 -22q0 -13 16 -17q-5 -2 -9 -4t-8 -2q-11 0 -11 11q0 16 14 29t28 13q11 0 21.5 -7.5t10.5 -20.5q0 -14 -7.5 -27t-19.5 -23t-26.5 -15.5t-28.5 -5.5q-24 0 -39.5 14
t-15.5 37q0 51 76 120q-9 3 -16 11q-136 -112 -192 -112q-34 0 -34 41q0 15 5.5 32.5t14.5 32.5t20.5 25.5t24.5 12.5q-55 -38 -55 -90q0 -45 34 -45q49 0 179 109q-4 8 -4 21q0 18 7.5 38.5t20.5 41t31.5 40t41.5 34.5q21 16 51 27.5t60 11.5q91 0 129 -118q18 49 34 88.5
t30 70.5q-13 0 -40.5 1t-58.5 2.5t-59 2.5t-41 1q-102 0 -111 -17q12 -24 37 -28q-83 -27 -84 -27q-10 0 -19 12.5t-9 22.5q0 16 21 28t50.5 20t62.5 12t57 4q10 0 26.5 -0.5l33 -1t29.5 -1t16 -0.5q-7 2 -25.5 9.5t-43.5 18.5t-54.5 23t-59 22t-56.5 17t-47 7
q-32 0 -79 -15t-90.5 -40.5t-74.5 -60.5t-31 -74q0 -43 52 -43q20 0 41.5 7t39.5 18t30.5 26t14.5 32q-11 18 -27 18q-14 0 -27.5 -14t-16.5 -29q-1 2 -1 6q0 20 15.5 30.5t35.5 10.5q32 0 32 -19q0 -18 -15 -34.5t-37 -29t-48 -20.5t-47 -8q-55 0 -55 46q0 35 29 72t75 67
t102.5 49t112.5 19q24 0 43.5 -1.5t39 -7.5t41.5 -18t52 -33q28 -19 48.5 -30t43 -16t52.5 -6.5t77 -2.5l11 21l80 25q-21 -34 -37 -69t-29 -73zM1374 -149q-30 -11 -99 -11q-35 0 -80 3t-102 8l-351 41q-9 -23 -38.5 -43t-69.5 -35t-87 -23.5t-91 -8.5q-51 0 -82.5 11.5
t-31.5 30.5q0 11 11.5 23.5t32.5 22.5q43 20 91.5 31.5t99.5 11.5q18 0 56.5 -3t98.5 -10q3 6 3 14q0 41 -80 41q-37 0 -142 -18q48 14 83 28.5t64.5 33t55 42.5t54.5 57q-8 -19 -25.5 -39.5t-41.5 -40t-52.5 -36t-58.5 -28.5q17 2 33.5 3.5t31.5 1.5q88 0 88 -45
q0 -10 -1 -15l266 -34q79 -11 145.5 -15t122.5 -4q30 0 54 1.5t42 6.5v-3zM783 365q-6 26 -20 50.5t-32.5 43t-40 29.5t-41.5 11q-25 0 -50.5 -14t-42.5 -28q-18 -15 -35.5 -34.5t-31 -39t-22 -37.5t-8.5 -31q0 -12 3 -19q91 80 131 80q22 0 29 -20q25 9 46 9t35 -7
q5 13 7 18.5t5 7.5t8.5 4t17.5 7l-17 -47q25 -17 33 -54zM730 -107q-69 7 -110.5 10t-57.5 3q-44 0 -86.5 -10.5t-87.5 -29.5q-17 -7 -26 -20t-9 -21q0 -15 34 -23.5t88 -8.5q46 0 89 7t77.5 20t58 31.5t30.5 41.5zM608 20q31 9 94 144l-3 -1q9 11 22 42q-17 -2 -30 -4.5
t-25 -3.5q-20 -51 -38.5 -96t-36.5 -83zM668 203q12 1 25 3t30 4q25 56 25 65q0 35 -29 61zM610 353q-9 16 -26 16q-11 0 -24.5 -6.5t-28.5 -18t-31 -25.5t-32 -29q2 -4 5.5 -6.5t7.5 -5.5q64 56 129 75zM488 275q17 0 39 4.5t41.5 14.5t32.5 23.5t12 31.5
q-33 -14 -64 -32.5t-61 -41.5zM541 24q12 -5 27 -6q17 39 35.5 83t38.5 94h-16q-34 -100 -75 -169z" />
    <glyph glyph-name="J" unicode="J" horiz-adv-x="745" 
d="M876 275q-75 -28 -118 -30q-14 -56 -25 -89.5t-22 -51.5t-24 -23.5t-31 -5.5h-7q-22 -46 -36.5 -73.5t-27 -43.5t-25.5 -23.5t-32 -14.5q-110 -39 -158 -39q-25 0 -41 11q-60 8 -115 29.5t-112 43.5q-24 9 -44.5 13t-37.5 4q-87 0 -169 -112q67 120 171 120q17 0 44.5 -6
t59 -15.5t64 -21t60 -21.5t47 -17t25.5 -8q-7 16 -16.5 33.5t-22.5 23.5l81 25q2 -1 10.5 -13.5t20.5 -27.5t26 -27.5t26 -12.5q14 0 28 11h-2q-27 0 -39.5 16t-18.5 40.5t-8.5 53t-9 53t-20.5 40.5t-43 16q-15 0 -33 -3q-7 -2 -26.5 -10.5t-41.5 -20.5t-42 -25.5t-27 -24.5
q-5 -8 -6 -15.5t-1 -13.5q0 -20 14 -33t34 -13q10 0 21 4.5t19 12t13.5 17t5.5 18.5q0 5 -2 9t-10 4q-7 0 -13 -9t-10 -23q0 2 -0.5 2.5t-0.5 2.5q0 11 7 22t23 11q17 0 17 -20q0 -13 -7 -24t-18.5 -18.5t-25.5 -11.5t-29 -4q-52 0 -52 37q2 25 16 44.5t34.5 34.5t44.5 25.5
t45.5 17.5t38 10t22.5 3q30 0 44.5 -16t21.5 -40.5t9 -53t7.5 -53t17.5 -40.5t38 -16l7 1q56 47 144 276l-40 -6q-13 -33 -33 -82t-46 -115l-26 -10l81 204l-20 -3q-19 -59 -37.5 -103t-36.5 -76l-14 -4q38 63 76 183q-9 -1 -17.5 -1h-16.5h-15.5t-14.5 1q5 2 19.5 3t37.5 2
h8q3 9 8.5 30.5t13 43.5t16 39.5t16.5 19.5l-24 -73l30 11q5 19 10.5 38.5t13 36t17 28.5t23.5 16q-8 -26 -17 -53t-20 -57l37 5q0 1 2 7l33 91q-23 24 -66 24q-19 0 -43.5 -6t-50.5 -16t-51 -23.5t-45 -28.5q17 -8 17 -28t-11 -36.5t-28 -28t-38.5 -18t-43.5 -6.5
q-16 0 -28 4q-21 -17 -55.5 -35t-72 -33t-74 -24.5t-61.5 -9.5q-88 0 -96 83q9 -73 96 -73q25 0 57 7t66.5 20t68.5 30t64 37q-37 13 -37 51q0 10 3 19l-99 -35q-32 -10 -56 -15.5t-41 -5.5q-19 0 -19 9q0 14 28 36q-12 -14 -12 -24q0 -12 21 -12q16 0 39 4t52 14l88 32
q12 37 44.5 71t76 60.5t93 42.5t94.5 16q105 0 128 -81l29 71q-23 -3 -40 -3q-20 0 -33.5 1.5t-27.5 10t-31.5 25.5t-46.5 48q-11 2 -31.5 4.5t-31.5 2.5q-13 0 -24 -5t-11 -15q0 -12 11.5 -19t25.5 -9l-39 -16q-12 -5 -21 -6t-17 -2q-14 0 -25.5 6.5t-11.5 21.5
q0 20 31 36.5t107 34.5q-42 18 -86 18q-111 0 -203 -86q11 19 35 37t54 31t63 21t62 8q57 0 94 -29q91 -4 161 -6.5t123 -3.5l9 23l78 25q-5 -20 -25 -58t-54 -95l-30 -10l-69 -181l27 -1q6 18 15.5 35t20 30.5t21.5 21.5t19 8q20 0 31 -39q-7 8 -13 18.5t-18 10.5
q-18 0 -35 -24.5t-30 -60.5q11 -1 21 -1.5t18 -0.5q41 0 69 7v-3zM695 388q-20 80 -127 80q-44 0 -89 -14.5t-85 -39.5t-70 -57.5t-42 -68.5q37 10 61 10q16 0 25 -4q22 27 66 29q104 77 201 77q33 0 60 -12zM1385 -119q21 -5 39.5 -7.5t33.5 -2.5h11t14 1q-29 -10 -54 -10
q-27 0 -70 12q-41 12 -77.5 18.5t-74 10.5t-78.5 5t-90 1q-37 0 -78.5 -2t-89.5 -4q-9 -17 -29.5 -30.5t-47.5 -23.5t-59 -15.5t-63 -5.5q-87 0 -87 24q0 14 44.5 29.5t117.5 20.5l115 7v5q0 23 -41 23q-17 0 -43 -4.5t-61 -12.5l-168 -46q-20 -5 -49 -10.5t-67 -12.5
q41 16 73 32.5t59 36t50.5 43t47.5 52.5l14 4q-37 -47 -73.5 -80t-73.5 -55q181 57 282 57q61 0 61 -29v-3q99 6 176 6q150 0 263 -19zM748 -102q-33 -3 -60.5 -8t-47.5 -11.5t-31 -13.5t-11 -14q0 -20 88 -20q19 0 46.5 6.5t54 16.5t47 23t26.5 25zM767 543h-97
q-83 3 -98 3q26 -27 43 -43t30.5 -23.5t27 -9.5t32.5 -2q8 0 15 0.5t16 1.5zM317 216q18 -5 33 -5q16 0 33 6.5t31.5 17.5t23.5 25.5t9 30.5q0 18 -15 24q-10 -8 -22 -18t-26 -23q0 -18 -6 -18q-7 0 -11 4zM719 244q-20 -55 -36.5 -95t-28.5 -66q6 -2 9 -2q17 0 29 13.5
t21.5 36t17.5 52t17 61.5h-29zM364 264q-3 4 -3 10q0 5 2 11q-11 7 -31 7q-5 0 -14 -0.5t-18 -2.5t-16 -8t-7 -16q0 -32 35 -47zM651 247q-10 1 -18.5 1h-15.5l-21 -53l38 6zM567 245l-16 -55q12 0 19 6.5t11.5 15.5t7 19t4.5 16zM426 316q-1 1 -5 1q-30 0 -45 -28
q4 -3 6 -8q12 10 22.5 18.5t21.5 16.5z" />
    <glyph glyph-name="K" unicode="K" horiz-adv-x="803" 
d="M824 446l52 67q-42 -34 -72.5 -58t-52.5 -42.5t-38 -32t-29.5 -26t-26.5 -25.5t-29 -30h2q48 0 48 -89q0 -7 -0.5 -21t-1 -30t-1 -30.5t-0.5 -21.5q0 -98 56 -98q11 0 38 5.5t81 34.5q-16 -15 -41.5 -27.5t-53.5 -21.5t-54 -14t-42 -5q-61 0 -61 84q0 8 1 23t1.5 31
t1.5 30.5t1 20.5q0 62 -25 90q-20 -50 -43 -94t-51 -82l64 20q-25 -41 -43.5 -66t-39.5 -41.5t-50.5 -28t-75.5 -25.5v3q48 15 99 86q-21 -18 -54 -34t-71 -28t-77 -19t-72 -7q62 16 99.5 27.5t51.5 17.5q29 12 50.5 26t40 36.5t36.5 56.5t39 84l-21 -1q-20 -44 -36.5 -75
t-31.5 -50.5t-29 -29.5t-28 -12q53 55 103 166l-28 -1q-29 -64 -50.5 -94t-41.5 -32q40 35 82 126l-29 3q-31 -49 -75 -95t-94.5 -82t-104.5 -58t-105 -22q-44 0 -44 26q0 22 42 64q-37 -42 -37 -61q0 -22 40 -22q14 0 33.5 3.5t39.5 9t38.5 12.5t30.5 13q41 22 73 45
t62 53.5t60.5 72.5t68.5 101q29 46 52 78.5t43.5 54t40.5 33.5t44 18q-15 34 -25.5 44.5t-29.5 10.5q-14 0 -30.5 -6.5t-32.5 -17t-29.5 -23t-21.5 -23.5q-12 -17 -22 -49.5t-18.5 -66.5t-15.5 -63t-11 -38q-8 -15 -20 -30.5t-28 -28.5t-34.5 -21t-39.5 -8q-28 0 -39 23
q-18 -5 -34.5 -8t-33.5 -3q-61 0 -61 39q1 9 3.5 21.5t13.5 25.5q-6 -9 -8.5 -18t-2.5 -16q0 -45 76 -45q21 0 45 6q-4 8 -6.5 15t-2.5 14q0 16 10.5 31.5t26.5 27.5t35 19.5t35 7.5q23 0 23 -16q0 -12 -8.5 -26t-23 -27t-34 -24.5t-41.5 -20.5q14 -20 34 -20q11 0 27.5 7.5
t33.5 21.5t32 34.5t24 47.5q3 6 7 30t13 66q7 36 22 67t35.5 53t46.5 34.5t56 12.5q44 0 61 -42q15 29 30 54t32 46q-18 -2 -35.5 -3t-34.5 -1q-6 0 -17.5 0.5t-24.5 1t-25 1t-17 0.5q-18 0 -35 -4t-35 -14t-39.5 -27t-49.5 -43q33 64 73.5 94.5t102.5 30.5q11 0 33.5 -1.5
t48 -4t48 -4t33.5 -1.5q30 0 56 3q-29 -37 -61 -100t-66 -155q31 29 77.5 68t109.5 88q14 56 14 93q0 101 -105 101q-42 0 -91.5 -12t-114 -39.5t-148.5 -72.5t-196 -111q25 -22 48.5 -43.5t46 -38.5t43 -27.5t40.5 -10.5h8q-7 -2 -12.5 -2h-10.5q-23 0 -44.5 10t-43.5 26.5
t-44 37t-44 41.5q-84 -44 -139 -44q-53 0 -53 36q0 13 7.5 25t19.5 21t27.5 14t32.5 5q57 0 113 -46q395 236 555 236q115 0 115 -114q0 -28 -11 -72l56 46q16 14 32.5 20.5t31.5 11.5l19 23l80 26q-12 -15 -31.5 -40t-38.5 -49t-33 -42t-15 -20zM580 -101
q-81 -33 -143.5 -53t-108.5 -20q-27 0 -41 8.5t-14 19.5q0 14 13 24.5t33 17.5t43.5 11.5t46 7t40 3t24.5 0.5q27 0 56 -3.5t59 -8.5q21 9 40.5 16t38.5 13q-47 1 -73.5 32.5t-26.5 79.5q0 16 5 38q-1 -5 -1 -14q0 -57 29 -94t79 -37q13 0 30 3q-41 -10 -115 -38
q104 -14 200 -21.5t187 -7.5q62 0 125 3.5t129 9.5q-45 -15 -103 -22t-129 -7q-141 0 -423 39zM574 -101q-17 3 -44.5 8t-54.5 5q-11 0 -41 -2t-61.5 -7.5t-56 -16t-24.5 -27.5q0 -25 43 -25q76 0 239 65zM133 438q-23 19 -58.5 33t-64.5 14q-20 0 -37 -14t-17 -42
q0 -33 41 -33q59 0 136 42zM192 146q19 8 37 19.5t31.5 24t21.5 25t8 22.5q0 13 -20 13q-14 0 -29 -6t-27.5 -16t-21 -23.5t-8.5 -27.5q0 -13 8 -31zM484 198q15 40 38.5 98.5t55.5 136.5q-22 -7 -44 -25q-7 -43 -24.5 -95.5t-46.5 -115.5zM441 195q24 53 38 97.5t20 82.5
q-5 -5 -11 -12.5l-14 -17.5q-5 -10 -11.5 -27t-14.5 -38t-17.5 -43.5t-18.5 -41.5h29zM403 195q11 23 23 53.5t26 67.5q-12 -15 -31.5 -44.5t-46.5 -74.5q2 0 8.5 -0.5t20.5 -1.5z" />
    <glyph glyph-name="L" unicode="L" horiz-adv-x="607" 
d="M525 -190q0 14 13.5 29t34 27t44 19.5t43.5 7.5q26 0 45.5 -8t19.5 -20q0 -11 -14 -21t-38 -18.5t-57.5 -14.5t-72.5 -9q37 -47 132 -47q49 0 112.5 11.5t142.5 35.5q25 7 57.5 18.5t80 28t112 38t154.5 48.5q-11 -5 -56 -21t-124 -46q-93 -35 -166.5 -59.5t-132 -39.5
t-104.5 -22t-84 -7q-106 0 -139 59q-12 -1 -24 -1.5t-25 -0.5q-20 0 -45.5 1t-57.5 5l-103 9q-35 -45 -99 -45q-17 0 -35 5q36 39 128 47q12 21 12 38q0 11 -6 22q-21 -4 -40.5 -5.5t-38.5 -1.5q-65 0 -120 21q-107 -114 -183 -114q-32 0 -49 19.5t-17 51.5q0 39 19.5 75.5
t53 68.5t79 58.5t98.5 44.5q-31 6 -58 20.5t-47 33.5t-31.5 42.5t-11.5 47.5q0 25 12 52q-3 -21 -3 -36q0 -121 154 -156q54 20 131 27l17 28q-115 18 -115 79q0 24 17.5 45.5t44.5 37.5t58.5 25.5t60.5 9.5q24 0 49 -5q145 237 179 248q-50 -68 -92 -130.5t-77 -120.5
q12 -4 27 -11.5t33 -17.5l50 96l-28 -9q16 40 32.5 68t37.5 47.5t50 33t71 25.5l-38 -32q29 11 47 15.5t23 4.5q35 0 49 -58l-78 -25q-4 14 -10.5 25.5t-15.5 23.5q-15 -19 -38 -56.5t-45.5 -78t-42.5 -75.5t-29 -48q5 -11 5 -25v-7q13 22 26.5 44t24.5 39t18.5 28.5
t9.5 12.5l22 7l-91 -153l19 1q28 39 41.5 60t21.5 29q-12 -23 -24.5 -45t-27.5 -43l27 4q-8 -4 -30 -9l-32 -42q68 21 122.5 54t92.5 76t58.5 94.5t20.5 109.5q0 19 -3.5 39.5t-9.5 37.5t-14 29.5t-18 16.5q12 -2 22 -14.5t18 -31t12.5 -41t4.5 -44.5q0 -58 -21.5 -110
t-62 -94.5t-97.5 -75t-129 -51.5l-37 -43q48 -2 83.5 -3.5t58.5 -1.5q20 0 39.5 0.5t37.5 1.5q-30 -12 -91 -12q-12 0 -45 1.5t-88 5.5q-18 -15 -26.5 -22t-14 -10t-10.5 -4.5t-15 -5.5q31 16 55 42l-27 3q-40 -32 -86 -41q34 16 66 42h-8q-10 0 -25 -6t-30 -14.5
t-28.5 -18.5t-20.5 -18q16 0 41.5 -3.5t56.5 -8.5t64.5 -11.5t64 -11.5t56 -8.5t41.5 -3.5h16t17 1q-59 -29 -126 -29q-21 0 -62.5 7.5t-87.5 16.5t-89 16.5t-67 7.5l-55 -85q24 -2 43.5 -5t37.5 -10t37.5 -19t43.5 -33q20 4 62.5 15.5t107.5 32.5q-18 2 -37 8.5t-40 18.5
q79 -24 91 -24q8 0 23 2t51 6q-43 -12 -106.5 -27t-148.5 -35q5 -8 5.5 -14.5t0.5 -12.5q0 -17 -16 -37q12 -1 41 -3.5t61.5 -5t63.5 -4.5t48 -2h17.5t16.5 1v5zM15 -49q9 4 43 4h23t30 -1q25 38 47 71.5t39 62.5q-8 -1 -17 -1.5t-18 -0.5q-43 0 -82 9q-51 -17 -95 -43.5
t-76.5 -58.5t-51.5 -68.5t-19 -74.5q0 -64 57 -64q70 0 170 110q-44 18 -50 55zM349 340q-30 8 -56 8q-28 0 -56.5 -8.5t-51 -22.5t-36.5 -33.5t-14 -40.5q0 -59 107 -80zM417 305q-13 11 -28 18.5t-32 13.5l-105 -176q11 -2 22.5 -3t23.5 -2q37 38 66.5 75.5t52.5 73.5z
M539 -194q38 3 70.5 8.5t56.5 13t37.5 16.5t13.5 19q0 11 -17.5 18.5t-38.5 7.5q-19 0 -40.5 -8t-40 -19.5t-31 -24t-12.5 -22.5q0 -3 2 -9zM269 -116q-11 13 -27.5 23t-37 18t-43.5 13t-45 8q-8 -12 -16 -23t-19 -23q31 -11 61.5 -16.5t62.5 -5.5q14 0 30.5 2t33.5 4z
M258 -188q-72 0 -103 -35q15 -5 29 -5q47 0 78 40h-4zM407 212q-11 -14 -24.5 -27.5t-29.5 -28.5q27 2 52 6q11 11 20 23.5t20 26.5h-38zM28 -52q7 -27 45 -44q9 11 17.5 21.5t16.5 21.5q-13 1 -26.5 1h-28.5h-24zM218 122q-74 -8 -123 -21q34 -7 79 -7h27zM325 130
q4 -1 14.5 -1.5t16.5 -0.5q18 0 44 29q-14 -2 -26 -3t-26 -2zM292 150q-12 1 -23 1.5t-22 2.5l-15 -26l39 2zM468 213q-9 -14 -17.5 -25t-17.5 -22l21 4l34 45zM428 162q-18 -21 -35 -34l25 -2q17 22 34 40zM449 219q3 3 3 15q0 18 -4 27q-8 -11 -16 -21t-18 -21h35z
M229 122l-17 -28l24 3l29 27zM209 89l-24 -37q14 11 24.5 21t21.5 19zM318 123l-16 -14l35 14h-19z" />
    <glyph glyph-name="M" unicode="M" horiz-adv-x="847" 
d="M692 79q-35 -134 -107 -206q157 -39 380 -39q62 0 125 3t130 8q-49 -22 -191 -22q-52 0 -117.5 3.5t-129 9.5t-118.5 13.5t-86 15.5q-63 -55 -97 -55q-19 0 -19 13q0 21 26 64q-20 4 -40.5 8.5t-40.5 8.5t-38 7t-33 3q-21 -29 -47 -58t-51 -52t-45.5 -37.5t-31.5 -14.5
q-19 0 -19 14q0 30 15 55.5t41 45t59.5 33.5t71.5 20q37 54 42 90q-23 -25 -42.5 -41t-39.5 -25t-42 -12.5t-49 -3.5h-5q26 1 48.5 6.5t44 16.5t43 28.5t47.5 44.5l12 3q-2 -20 -13.5 -46.5t-34.5 -60.5h8q30 0 69.5 -9t77.5 -17q53 80 186 184q17 73 23 158
q-81 -105 -156 -213l-78 -26q20 67 33.5 125.5t21.5 109.5q-9 11 -20 22t-25 20l-25 -49l28 4q-10 -5 -16.5 -7t-10.5 -2h-3l-54 -108q-41 -77 -84 -111t-97 -34h-9.5t-10.5 1q44 8 75 29.5t55 54.5t43.5 75t40.5 91l-37 -2q-16 -31 -31.5 -59t-27.5 -50t-20 -36t-10 -15
l-21 -6l87 165h-25q-14 -28 -27 -53.5t-24 -45.5t-19.5 -32.5t-12.5 -14.5q8 22 25.5 58t46.5 87h-37q14 7 27 7q9 0 13 -1q3 7 8 18.5t11.5 23t13.5 21t15 11.5l-37 -73h25l45 88q-42 12 -91 12q-66 0 -126 -19t-105 -53.5t-72 -81.5t-27 -104q0 -16 6.5 -30t18 -25
t26 -17.5t31.5 -6.5q19 0 35 8.5t28 23t19 32t7 35.5q0 22 -13 22q-5 0 -12.5 -5t-14.5 -12.5t-12.5 -15.5t-5.5 -13q0 -4 6 -4q11 0 24 10q-12 -13 -24 -13q-13 0 -13 11q0 8 7 17t16.5 16.5t20 12.5t16.5 5q21 0 21 -29q0 -21 -9.5 -40.5t-25.5 -34.5t-36.5 -24t-41.5 -9
q-38 0 -61.5 22t-23.5 60q0 58 28.5 107t76.5 84.5t111 55.5t133 20q49 0 86 -10l29 73q10 23 22.5 36t25.5 18q-12 -31 -25.5 -64t-30.5 -68l28 -10q62 132 91 206q-11 9 -28 9q-31 0 -87 -25q-3 -2 -35.5 -18.5t-104.5 -42.5q0 -18 15.5 -28.5t33.5 -10.5q21 0 35 10
q-25 -17 -45 -17q-19 0 -32.5 13t-19.5 32q-25 -7 -53 -7q-21 0 -43 5q57 33 81 33q25 0 28 -25q8 2 24 9.5t36 17.5t41 21t38.5 20t29.5 15.5t13 6.5q80 37 116 37q34 0 34 -31q0 -248 -64 -432q58 99 153 212v30q-17 -21 -40 -53t-54 -75l-32 -50q33 73 125 191
q-5 81 -37 122q43 -24 47 -108q25 30 41 49t28.5 33t23.5 25t26 24q-31 -37 -60.5 -73t-57.5 -71v-30q51 61 85.5 100.5t53.5 58.5q90 88 176 111q-10 -8 -23 -29.5t-33 -56.5q-35 -60 -67.5 -128.5t-57 -133t-39.5 -117.5t-15 -83q0 -56 38 -56h5t6 1q-42 -18 -66 -18
q-37 0 -37 41q0 29 37 133zM786 158q12 32 44 112t84 211q-45 -46 -94 -103t-103 -126q-2 -43 -8.5 -84t-14.5 -80q13 11 36 28t56 42zM577 -125q33 35 58.5 83t41.5 108q-122 -97 -173 -173zM324 -86q-55 -6 -101 -39t-66 -87q-4 -9 -4 -19q0 -12 12 -12q8 0 27.5 15.5
t42.5 38.5t47 51t42 52zM499 -115q-24 -39 -24 -57q0 -12 12 -12q26 0 81 52zM528 248q5 36 8 74t5 79q-14 -29 -28 -58.5t-29 -58.5q28 -17 44 -36zM416 224l31 68q-7 3 -13.5 6t-14.5 5l-41 -81zM275 432q-5 21 -26 21q-27 0 -53 -20q18 -6 38 -6q18 0 41 5z" />
    <glyph glyph-name="N" unicode="N" horiz-adv-x="701" 
d="M510 -38v64q0 16 0.5 28t0.5 21q0 208 -68 270q-45 -157 -108.5 -249t-146.5 -125q8 6 16 13.5t16 15.5q-6 -4 -13 -8.5t-19.5 -10.5t-32 -13.5t-49.5 -17.5q15 7 40 22t51 34t49 40t35 40q17 31 34 68.5t34 81.5h-29q-6 -17 -14 -36t-17.5 -35.5t-20.5 -28.5t-23 -15
q13 18 26 48.5t27 66.5l-22 1q-22 -59 -35.5 -94.5t-22.5 -56t-16 -29t-17 -12.5q36 75 81 192l-55 3q9 6 28 6q7 0 14 -0.5t14 -1.5q16 46 41 101l9 3l-39 -105h22q41 89 55 147q-10 2 -21 3t-22 1q-50 0 -101 -20.5t-92 -54.5t-67 -77.5t-26 -88.5q0 -24 21.5 -40
t50.5 -16q11 0 23 2.5t22 8t16.5 13t6.5 17.5q0 26 -43 26q-22 0 -22 -13q0 -9 7.5 -14.5t17.5 -5.5h5q-8 -3 -15 -3q-9 0 -17 6t-8 15q0 21 51 21q37 0 37 -30q0 -11 -7.5 -19.5t-20 -15.5t-28.5 -10.5t-32 -3.5q-75 0 -75 58q0 48 27.5 93t71 80t97.5 56t108 21
q9 0 18.5 -0.5t17.5 -1.5q2 8 2.5 12t2.5 6t7.5 4t17.5 5l-7 -32l22 -9l21 80q16 57 41 65q-5 14 -22 14q-8 0 -25.5 -3t-50.5 -23q27 32 59 43.5t55 11.5q52 0 76.5 -71t24.5 -231q0 -11 -0.5 -27.5t-0.5 -39.5v-67v-26.5t1 -21.5l58 169q59 158 106.5 238t91.5 80
q7 4 30 11.5t66 21.5q-28 -24 -48 -50t-33 -52l-61 -20q-26 -41 -56.5 -102t-65.5 -144q-80 -185 -81 -253zM299 -86q-53 -89 -102 -89q-33 0 -33 35q0 15 8.5 26.5t22.5 20t32.5 13t39.5 4.5h13.5t13.5 -1q8 17 19.5 44.5t25.5 67.5q-17 -20 -38.5 -37.5t-45.5 -32
t-49 -24.5t-47 -14q22 4 49.5 18t54 32.5t49.5 40.5t35 42l14 5l-25 -73q-8 -21 -16.5 -39t-16.5 -32q10 -1 85 -14.5t217 -39.5q91 -17 166.5 -24.5t136.5 -7.5q81 0 155.5 11.5t145.5 35.5q7 2 23.5 9.5t35.5 16t36.5 16t27.5 10.5q-179 -106 -419 -106q-128 0 -308 30z
M289 -84q-8 1 -14.5 1.5t-12.5 0.5q-20 0 -36 -6.5t-27 -16t-17.5 -21.5t-6.5 -23q0 -16 14 -16q10 0 23.5 7t27.5 18t27 26t22 30zM496 302q-9 111 -18 186q-8 -37 -15.5 -70t-15.5 -62q14 -11 26 -24t23 -30zM351 242q13 31 24.5 64t22.5 68l-21 9q-14 -52 -55 -141h29z
M572 497q40 -38 40 -130q0 -62 -18 -110q2 18 3.5 35.5t1.5 36.5q0 96 -27 168z" />
    <glyph glyph-name="O" unicode="O" horiz-adv-x="704" 
d="M545 -22q9 0 31.5 6t48 13t49 13t35.5 6q15 0 27 -6q-11 -46 -73 -82q67 -18 133 -29.5t143 -19t172.5 -10.5t221.5 -3q-28 -11 -104 -11q-63 0 -150.5 5t-179.5 16q-61 8 -123 18.5t-125 27.5q-17 -7 -43.5 -14.5t-55 -14t-55 -10.5t-43.5 -4q-52 0 -57 26
q-15 -12 -34 -23t-39.5 -20t-40 -14t-35.5 -5q-37 0 -37 30q0 28 33 79q-11 -4 -25 -4q-20 0 -36 9q-65 -81 -146 -81q-44 0 -70 27t-26 72q0 46 31 104.5t85 117.5t126.5 113.5t155.5 91.5q-66 -37 -134.5 -89t-148.5 -123q25 20 43.5 24t36.5 4q35 0 35 -30
q0 -21 -10 -47.5t-27 -50.5t-39.5 -40t-47.5 -16q-29 0 -29 52q0 11 6 64q-70 -91 -70 -168q0 -43 24 -71.5t67 -28.5q71 0 132 82q-11 25 -11 59q0 31 12 65t33 66t49.5 60t61.5 49q35 69 75 116t81.5 78t83 47.5t80.5 25.5q-60 -23 -86 -57t-31 -90q7 24 12.5 36t11 17.5
t10.5 7t13 3.5l-43 -112l14 -20q2 6 5 15.5t7 19t9.5 17.5t13.5 10q-8 -15 -14.5 -31.5t-11.5 -36.5l26 -9q18 115 79 115q19 0 32.5 -13.5t13.5 -32.5q0 -61 -116 -76v-9q0 -52 63 -52q8 0 14.5 0.5t13.5 1.5q10 19 20.5 49t19 62.5t13.5 64.5t5 56q0 18 -2.5 27t-2.5 13
q0 9 3 16.5t9 10.5q-15 29 -48.5 40.5t-88.5 11.5h-34q83 28 132 28q53 0 89 -26l50 17q31 -25 31 -88v-8t-1 -9l-40 -13q-8 -379 -354 -491q-15 -5 -28.5 -7.5t-25.5 -2.5q-34 0 -55 21l-44 -13q-32 38 -32 87q0 7 0.5 14t1.5 14l43 14q0 76 28 159l-31 -16l-68 -152
q-20 -46 -39 -82.5t-39 -62.5q22 -16 34 -16q9 0 38 11q-37 -52 -37 -78q0 -31 39 -31q59 0 121 50q8 8 18 16.5t24.5 15t35.5 11t52 4.5q62 0 142 -21q56 34 67 76q-6 2 -12 2q-9 0 -36.5 -5.5t-58 -12.5t-58 -12.5t-37.5 -5.5q-27 0 -48 8q13 -3 29 -3q28 0 54 10t51.5 26
t50.5 36.5t51 41.5q-15 -20 -35.5 -38.5t-43 -33.5t-45.5 -26t-45 -15h4zM689 234q-41 -74 -102 -93q10 -7 10 -19q0 -13 -9 -25t-21.5 -21.5t-27 -15.5t-26.5 -6q-27 0 -43 21l18 -11q13 -5 22 -5q13 0 26 4.5t23.5 12.5t17.5 18.5t7 22.5q0 13 -9.5 17t-18.5 8
q23 4 39.5 10.5t30 17t25.5 25.5t24 36l-20 -4t-18 -2q-42 0 -55 27q-5 -2 -18.5 -3t-34.5 -2q-23 -59 -45 -110t-43 -96q23 -31 55 -31q23 0 53.5 21.5t61 55.5t57 75t41.5 79zM65 47q19 0 35.5 14t29 33.5t19.5 40t7 33.5q0 43 -39 43q-12 0 -27 -5.5t-28 -17.5t-22 -30.5
t-9 -43.5q0 -67 34 -67zM318 252q-26 -18 -52.5 -47.5t-47.5 -62t-34.5 -64.5t-13.5 -56q0 -25 14 -47q13 26 33.5 60t39.5 76zM645 -76q-81 21 -138 21q-42 0 -70.5 -11t-28.5 -28q0 -23 50 -23q15 0 41.5 4t55 10.5t53.5 13.5t37 13zM593 299q19 0 36 5.5t30 16t21 25
t8 32.5q0 31 -23 31q-9 0 -21 -7t-23 -20.5t-20 -34t-13 -48.5h5zM470 250q24 53 33 83t11.5 48.5t4.5 33t13 36.5q-73 -82 -103 -203zM491 246l-70 -161q5 -21 12 -34q21 44 42 93t42 103zM468 245l-41 -3q-5 -25 -8 -49t-3 -49v-17zM746 524q-2 -5 -2 -11q0 -5 1 -10
t1 -12q0 -151 -55 -253q15 3 26.5 32t19.5 67t12 77t4 60q0 18 -1.5 29.5t-5.5 20.5zM369 283q13 36 29.5 68.5t37.5 60.5q-27 -29 -51.5 -63.5t-45.5 -76.5q6 3 13.5 5.5zM581 255q-5 9 -5 23q0 10 1 15q-8 1 -15 2t-13 3q-5 -11 -9 -22t-9 -22q14 1 26 1h24zM519 252
q11 23 19 51q-10 8 -15 16q-8 -16 -14.5 -33t-13.5 -35z" />
    <glyph glyph-name="P" unicode="P" horiz-adv-x="694" 
d="M339 -44q-16 -28 -24 -53q-23 -5 -49 -12t-41 -17q27 27 27 57q0 21 -13 36.5t-33 15.5q-18 0 -30.5 -11t-12.5 -29q0 -13 6 -26q22 7 40 7q22 0 26 -13q-26 -10 -45 -10q-18 0 -31 10q-15 -5 -29 -14.5t-25.5 -21.5t-18 -24.5t-6.5 -24.5q0 -23 23 -37t54 -14
q25 0 60.5 9.5t77.5 24.5q38 13 78.5 29t80.5 30q125 45 243 62.5t228 17.5q-51 -7 -104 -13t-110.5 -15t-121.5 -23.5t-137 -38.5q-38 -13 -76.5 -28t-76.5 -28q-95 -33 -153 -34q-30 0 -54 14t-24 40q0 13 8.5 27t21 27t28.5 23t31 14q-8 14 -8 28q0 22 19 35t43 13
q23 0 37 -14t14 -41q16 28 48 90l35 12q18 41 40 99t49 136q-213 -317 -416 -317q-40 0 -79 12q9 -2 20 -3t23 -1q51 0 108 19t110 51t96.5 73.5t67.5 86.5q-21 -21 -56 -44t-73.5 -42t-74.5 -31.5t-60 -12.5q-70 0 -70 72q0 24 9 51q-3 -17 -3 -32q0 -76 77 -76
q19 0 42.5 6t47 15.5t45 23t38.5 28.5q-17 -7 -32 -7q-46 0 -46 53q0 25 10.5 45t26 34t35 21.5t37.5 7.5q37 0 37 -40q0 -53 -45 -101q97 48 112 213q-11 -11 -25.5 -21t-30.5 -17.5t-32.5 -12t-31.5 -4.5q-59 0 -59 71q0 22 10 44t26.5 40t38 29t44.5 11q38 0 55 -28.5
t17 -85.5q73 88 73 129q0 8 -9 10t-16 2q-4 0 -11.5 -1.5t-30.5 -6.5q35 21 62.5 29t49.5 8q28 0 28 -42v-13q20 13 44.5 24.5t49.5 20.5t47 14t37 5q21 0 35 -9l63 21q8 -25 12 -46.5t4 -41.5v-9.5t-1 -8.5l-42 -13v-12q0 -144 -72.5 -239t-223.5 -143q-29 -9 -51 -9
q-26 0 -48 11q-13 -32 -26 -60t-26 -52zM565 232l-49 -125q9 -4 17 -6t17 -2q37 0 73 35.5t64.5 89t46 115t17.5 113.5q0 103 -66 103q-11 0 -27 -6.5t-32 -16.5t-30 -22t-22 -22l-3 -13q59 37 112 37q46 0 46 -42q0 -15 -6.5 -31t-17 -29t-25.5 -21.5t-31 -8.5
q-23 0 -23 24t35 24h9q-10 -2 -21 -6t-11 -15q0 -23 17 -23q10 0 21 8t20 20.5t15 27t6 26.5q0 40 -46 40q-51 0 -102 -38q-14 -54 -81 -239l23 2l31 89q14 38 24 59.5t13 25.5l20 6l-63 -179l20 3q6 19 14 38.5t17 40.5l10 2l-30 -79q21 2 38 3.5t31 1.5l-16 -4t-19 -3z
M422 405q0 105 -66 105q-20 0 -38.5 -10t-32.5 -26.5t-22.5 -37t-8.5 -41.5q0 -29 19 -47.5t48 -18.5q47 0 101 60v16zM290 155q7 4 17 17t19 29t15.5 31t6.5 23q0 18 -14 29t-34 11q-17 0 -31.5 -8.5t-25.5 -22t-17.5 -30t-6.5 -32.5q0 -52 46 -52q17 0 25 5zM393 232
q77 89 107 249q-18 -29 -35 -52t-32 -39q-5 -80 -40 -158zM507 111q4 9 15.5 38.5t31.5 81.5l-20 -3l-40 -106zM509 225l-23 -2q-8 -25 -16.5 -47t-15.5 -42l14 5l7 -5zM695 87q-35 -30 -57 -46.5t-38.5 -25t-31.5 -10.5t-36 -2q21 3 46.5 16.5t49 28t42 26.5t25.5 13z
M221 -90q-6 8 -24 8q-10 0 -23 -3q10 -7 30 -7q4 0 8 0.5t9 1.5z" />
    <glyph glyph-name="Q" unicode="Q" horiz-adv-x="717" 
d="M497 -169q9 -1 18 -1h17q-79 47 -115 155q-25 1 -44 16l-27 -9q-32 21 -43 42t-11 49v11l45 13v30q-72 -20 -125 -20q-11 0 -21.5 1t-21.5 4v-18q0 -84 -54 -118q44 36 44 104q0 8 -0.5 16.5t-1.5 17.5q-100 31 -100 99q0 6 0.5 11.5t1.5 11.5l13 4q84 -57 96 -120
q27 -6 56 -6q47 0 113 17q5 81 37 162q-82 12 -82 60q0 21 16 35t37 14q38 0 61 -41q21 34 38 56.5t41 40t60 32.5t95 33q-45 -21 -72.5 -37t-47.5 -38.5t-36 -57t-38 -92.5l48 5l15 50q6 20 12 31t9 13l21 7l-34 -96l26 6q4 11 7 20.5t16 13.5l-9 -29q142 56 179 198
q-18 58 -130 58h-35q81 28 128 28q39 0 74 -16q-39 80 -137 80q-14 0 -27.5 -1.5t-27.5 -5.5q37 19 73 19q21 0 42 -8t40 -22t35.5 -34.5t28.5 -45.5l48 14q26 -29 26 -83q0 -6 -0.5 -15t-1.5 -20l-43 -14q-5 -71 -24.5 -137.5t-50.5 -122.5t-71.5 -98.5t-88.5 -66.5l11 -24
q25 18 39.5 28t24 16.5t15.5 12.5t15 16q-11 -17 -34.5 -36t-58.5 -42q36 -81 91 -127t120 -46q7 0 19 1t22 3q-23 -16 -63.5 -24t-93.5 -8q-35 0 -73.5 3.5t-82.5 11.5zM601 251q-26 -8 -87 -42l-42 -121q21 10 43 10q42 0 68 -40q89 77 137 220q-42 -78 -80.5 -122.5
t-80.5 -44.5q-24 0 -24 30q0 11 4 23t11.5 21.5t17 15.5t20.5 6q19 0 19 -19q0 -12 -9.5 -22t-20.5 -10q-13 0 -13 15q14 -7 17 -7q5 0 9.5 8.5t4.5 14.5q0 14 -13 14q-15 0 -24.5 -18t-9.5 -41q0 -26 16 -26q19 0 39 14t39 37t36 51.5t31 57.5t23 55.5t13 45.5
q-7 -3 -29 -21t-48.5 -40t-51.5 -42t-37 -27zM525 242q7 1 17 1t23 3q5 1 19 11t32.5 24.5t39.5 31.5t39.5 31.5t32 25t18.5 12.5q4 25 5.5 45.5t1.5 37.5q0 35 -7 53q-5 -30 -23 -59t-44 -55t-58 -46.5t-66 -32.5zM516 8l-41 -14q-14 -5 -24.5 -6t-20.5 -3q8 -24 24 -51
t34.5 -50.5t37.5 -38.5t33 -15t33.5 1.5t46.5 5.5q-64 43 -105 133q-15 -6 -28 -10.5t-25 -6.5l51 20zM688 -20q134 -112 335 -112q36 0 81.5 4t96 11t103.5 15.5t103 16.5q-83 -28 -177 -41t-201 -13q-66 0 -112.5 3t-84.5 15t-74.5 35t-83.5 62zM398 356q-15 49 -61 49
q-35 0 -35 -34q0 -50 75 -60q5 11 10.5 22.5t10.5 22.5zM459 85q15 39 42 117l-33 -17q-8 -18 -18.5 -46t-24.5 -66zM155 134q-17 53 -86 104q-1 -4 -1 -12q0 -14 7 -28t18.5 -26.5t27.5 -22.5t34 -15zM465 239q8 20 14.5 37.5t11.5 32.5q-11 -3 -23.5 -4.5t-24.5 -2.5
q-6 -14 -10 -29.5t-8 -32.5q8 -1 16 -1h16h8zM462 233h-39q-8 -36 -9 -67q7 2 13 5.5t14 6.5zM514 14q-18 38 -51 50q-3 -7 -6 -17.5t-13 -12.5q20 -22 56 -22q9 0 14 2zM542 322q-12 -5 -26 -7q-5 -17 -12 -36t-16 -40l26 2zM696 -189q-14 4 -26.5 9.5t-25.5 13.5
q-20 -4 -39.5 -6.5t-38.5 -4.5q42 -13 118 -13q9 0 12 1zM511 235q-6 -1 -12 -1h-13l-16 -44q8 4 16 8.5t16 9.5zM439 172l-25 -9q-2 -5 -2 -9.5v-9.5q0 -8 1 -16.5t2 -17.5zM454 68q-5 1 -10 1.5t-11 0.5h-10q8 -21 19 -34zM523 236l-7 -20l40 23z" />
    <glyph glyph-name="R" unicode="R" horiz-adv-x="737" 
d="M302 -98q0 69 48 153l36 11q11 18 11 50v10q0 5 -0.5 12.5t-0.5 17.5q-2 -8 -4 -15.5t-6 -14.5t-11.5 -13t-21.5 -10l36 99l-10 27q-22 -67 -56 -145l-9 -3l57 157l-44 2q12 6 28 6q11 0 16 -1q-22 37 -61 56l-16 -30q12 -18 12 -40q0 -21 -12 -44t-31 -44.5t-43.5 -39.5
t-48.5 -29q4 -45 10 -75t14.5 -48.5t20 -27t26.5 -10.5q-12 -5 -19 -5q-48 0 -63 162q-28 -11 -45 -11q-39 0 -46 48q15 -42 57 -42q15 0 33 8q-3 37 -18 78q-30 -15 -45 -15q-26 0 -28 41q23 10 41 10q26 0 40 -23q33 33 33 76q0 34 -20 54.5t-55 20.5q40 14 99 14
q58 0 98 -14l35 115q14 37 46 61.5t70 24.5q54 0 71 -78q28 64 28 87q0 26 -25 26q-11 0 -26.5 -5t-37.5 -13q97 53 130 53q35 0 35 -40q0 -3 -0.5 -6.5t-0.5 -6.5q21 15 47.5 29.5t52.5 26t49.5 18t38.5 6.5q35 0 42 -26l49 16q6 -18 6 -34q0 -18 -9 -39l-16 -38l-46 -14
q-69 -205 -175 -293q7 -39 15.5 -66.5t20 -45.5t27 -28.5t36.5 -15.5q-24 3 -42 11.5t-31 26t-22 44.5t-15 66q-21 -14 -29 -14q-11 0 -14.5 4t-3.5 11q0 6 2 14t5.5 15.5t9 12.5t13.5 5q16 0 27 -33q52 51 88.5 111t59.5 131q1 2 -16 -14t-43.5 -41t-57 -55t-57 -56
t-44.5 -43.5t-18 -18.5q0 -61 14.5 -107t40.5 -76.5t62 -46t80 -15.5q50 0 107 18q-94 -56 -170 -56q-84 0 -142 66q-23 -12 -44 -12q-20 0 -30 12q-210 -174 -309 -174q-23 0 -44 5t-36.5 15t-24.5 24t-9 31q0 13 4 25v-9q0 -18 8 -33.5t22 -27t32.5 -17.5t38.5 -6
q103 0 315 172q-8 20 -8 42q0 7 3 21.5t7 30t7 29t3 20.5q0 9 -2 23t-2 22q0 16 58 66q51 43 83.5 74.5t51.5 58t26.5 50.5t7.5 51q0 30 -17 30q-11 0 -25.5 -12t-28 -28.5t-23 -35t-9.5 -30.5q0 -20 17 -20q7 0 16.5 5t17.5 12t13.5 15.5t5.5 14.5q0 18 -24 18
q-13 0 -13 -13q0 -12 11 -18q-16 7 -16 19q0 17 23 17q26 0 26 -18q0 -9 -7 -20t-17.5 -20.5t-22 -16t-20.5 -6.5q-21 0 -21 28q0 19 7.5 39t20.5 36.5t30.5 27t37.5 10.5q34 0 34 -35q0 -45 -61 -127q112 107 112 174q0 46 -49 46q-24 0 -46.5 -11t-42.5 -29.5t-36.5 -43
t-27.5 -52.5l-66 -178q-17 -47 -43.5 -114.5t-59.5 -159.5l-39 -12q-2 -10 -3.5 -21.5t-3.5 -25.5zM647 -154q100 -39 257 -39q78 0 173 10.5t201.5 30.5t221.5 49.5t233 67.5q-89 -36 -195 -67t-215.5 -54t-215 -36t-191.5 -13q-167 0 -279 44q-60 -33 -110.5 -49
t-90.5 -16q-71 0 -71 42q0 15 10 27t26.5 20.5t38.5 13.5t47 5q35 0 73.5 -8.5t80.5 -25.5q19 13 31 20.5t19.5 12t11.5 6.5t7 3q-15 -3 -32 -3q-82 0 -117 61q17 -17 31 -28t27 -17t26 -8t30 -2q25 0 52 6v-3zM444 366q31 89 60 99q-21 46 -59 46q-31 0 -51.5 -19
t-35 -48.5t-24.5 -64.5t-20 -67q41 -18 64 -54q2 6 5 16t7 19.5t9.5 17.5t12.5 10l-28 -75l1 -2h19zM286 261q-23 -24 -48 -24q-12 0 -12 8q0 13 16 23.5t28 10.5q9 0 16 -4l15 30q-40 17 -97 17q-27 0 -60 -3q49 -12 49 -70q0 -59 -41 -91q14 -27 18 -80q27 12 49.5 30
t39 39.5t26 46t9.5 49.5q0 10 -8 18zM367 -184q3 -13 26 -21.5t45 -8.5q95 0 193 56q-77 30 -153 30q-91 0 -110 -55zM453 244q10 29 25.5 72.5t37.5 102.5q-1 22 -11 43l-78 -218h26zM541 28q-25 42 -32 82q-13 -33 -13 -68q0 -25 8 -39zM425 238q-20 -56 -20 -58
q0 -10 1 -29t1 -28q31 76 44 115h-26zM138 156q-14 26 -40 26q-11 0 -18 -4q1 -36 26 -36q15 0 32 14zM567 -7q-13 15 -24 31l-36 -27q12 -15 34 -15q14 0 26 11zM655 184q-6 29 -17 29q-9 0 -13.5 -10.5t-4.5 -18.5q0 -16 9 -16q4 0 26 16zM279 267q-11 6 -19 6
q-7 0 -14 -10t-7 -16t8 -6q13 0 32 26zM401 238h-11l6 -17z" />
    <glyph glyph-name="S" unicode="S" horiz-adv-x="795" 
d="M769 96q-12 -25 -34.5 -44.5t-46 -36t-44 -29.5t-29.5 -24q31 8 75 37l71 51q-57 -56 -175 -119l309 -40q175 -21 308 -21q83 0 148.5 9.5t113.5 26.5q-91 -56 -275 -56q-57 0 -129 7t-153 17.5t-166.5 24t-167.5 26.5q-36 -24 -70.5 -47.5t-67.5 -42t-64 -29.5t-60 -11
q-44 0 -75 29q-7 -2 -14.5 -3t-15.5 -1q-9 0 -27 5t-36.5 11t-35 11t-23.5 5q-32 0 -59 -36q42 -15 47 -41q-8 -5 -15.5 -7.5t-12.5 -2.5q-12 0 -23.5 9t-11.5 23q0 7 4 14q-79 31 -79 91q0 34 18.5 72t49.5 75.5t72.5 71.5t87.5 60t93.5 41.5t91.5 16.5q42 76 42 127
q0 86 -100 86q-17 0 -47 -5.5t-60 -16.5t-52 -29t-22 -42q0 -27 16 -39l13 21q10 5 18 5q14 0 24 -14.5t10 -37.5t-10.5 -41.5t-27.5 -31.5t-39 -19.5t-44 -6.5q-49 0 -49 46q0 17 6.5 36.5t18 38.5t26 36.5t30.5 30.5q7 33 30.5 69.5t55 68.5t67.5 56.5t68 33.5
q-37 -17 -70.5 -41.5t-61 -53t-47.5 -60t-29 -63.5q85 66 180 66q106 0 106 -90q0 -53 -42 -129q8 1 16 1.5t17 0.5q21 0 47 -5.5t50.5 -15.5t43.5 -24t27 -32q10 3 19 3q28 0 28 -26q0 -13 -9.5 -22.5t-21.5 -9.5q-23 0 -31 36q-31 -29 -31 -58q0 -38 45 -38q24 0 43.5 8.5
t33 23t21 32t7.5 35.5q0 20 -7.5 41.5t-21.5 49.5t-33.5 66t-42.5 92l-30 -2l14 -45l-27 -8l-14 52h-14q5 -24 24 -58.5t53 -79.5h-4q-10 0 -23.5 15.5t-26.5 37t-23 45t-12 39.5l-59 3q10 6 30 6q11 0 28 -3q-2 16 -3.5 25.5t-1.5 13.5q0 25 14 31q-1 -6 -1 -12v-13
q0 -22 4 -45l14 1v19q0 121 74 136q-49 -48 -49 -129q0 -6 0.5 -12.5t1.5 -12.5l30 1q-1 8 -1.5 15.5t-0.5 14.5q0 36 12 66.5t34 52.5t52.5 34t66.5 12q31 0 63 -9q14 10 29.5 15.5t46.5 13.5q30 -11 30 -60q0 -22 -14 -89l-78 -24q14 62 14 83v10l-66 -21q1 4 1 10
q0 34 -80 39q-40 -34 -40 -89q0 -59 39 -120q-3 13 -3 23q0 19 6 37t17.5 31.5t27 21.5t33.5 8q38 0 38 -30q0 -11 -6.5 -23.5t-17 -24t-23 -19t-23.5 -7.5q-10 0 -10 8q0 10 6.5 19t13.5 9q6 0 16 -5q-4 0 -6.5 0.5t-4.5 0.5h-4q-8 -1 -8 -16q0 -7 7 -7q18 0 31.5 17.5
t13.5 35.5q0 38 -33 38q-13 0 -24 -9.5t-19.5 -24.5t-13 -34t-4.5 -37q0 -66 53 -96q3 29 17 57t35 50.5t47.5 36.5t55.5 15q78 106 78 165q0 66 -97 66q-30 0 -68.5 -7.5t-79.5 -20t-83 -29t-79 -35t-67 -37.5t-48 -36q40 40 93.5 72.5t110.5 55.5t112 35.5t99 12.5
q122 0 122 -81q0 -61 -87 -166q1 -1 1 -6t-4 -13.5t-10.5 -16.5t-13.5 -13.5t-13 -5.5q-4 0 -4 4q0 13 31 48h-6q-22 0 -45 -15.5t-42 -38.5t-31 -49.5t-12 -48.5q0 -9 1 -13l33 -43l47 16q10 -20 10 -45q0 -41 -27 -80zM479 -60q113 0 164 58q-95 -30 -147 -30
q-78 0 -115 53l-11 -35l-78 -24l9 30q-83 -121 -159 -121q-33 0 -53 21.5t-20 55.5q0 37 14 66t35.5 49t48 30.5t51.5 10.5q17 0 37 -3q49 58 90 133q-74 -10 -145 -46t-127 -84.5t-90.5 -102.5t-34.5 -101q0 -53 70 -80q32 40 69 40q9 0 26 -5.5t36.5 -11.5t38 -11.5
t30.5 -5.5h8.5t8.5 2q-3 9 -3 18q0 36 35 36q24 0 24 -15q0 -10 -15 -21.5t-28 -16.5q29 -26 72 -26q39 0 85.5 24.5t103.5 59.5q-72 -27 -132 -27q-82 0 -104 58q25 12 59 17.5t76 5.5q7 0 14.5 -0.5t18.5 -0.5h38zM432 139q0 -72 29.5 -113.5t82.5 -41.5q31 0 59.5 13
t50.5 34t35.5 48t13.5 56q0 55 -42 103q13 -42 13 -79q0 -51 -27.5 -84t-78.5 -33q-29 0 -49.5 12.5t-20.5 34.5q0 32 45 65q-5 18 -21 33t-39.5 26t-52 17t-56.5 6h-9t-9 -1q-23 -41 -46 -75t-49 -63q20 -18 20 -36q0 -13 -9.5 -25.5t-24.5 -22.5t-32.5 -16.5t-32.5 -6.5
q-22 0 -22 14q0 22 35 48q26 20 38.5 29.5t13.5 10.5q-14 9 -29 9q-21 0 -44.5 -14t-43.5 -34.5t-33 -44.5t-13 -45q0 -73 58 -73q34 0 66.5 19t58 49.5t41 67.5t15.5 73q0 25 -7 49l78 23q5 -22 5 -43zM149 337q-12 -22 -31 -22q-20 0 -20 35q0 5 0.5 10.5t1.5 12.5
q-71 -62 -71 -114q0 -26 17 -40.5t44 -14.5q38 0 63.5 25.5t25.5 63.5q0 39 -30 44zM565 -74q-21 2 -47 3t-58 1q-119 0 -172 -14q17 -40 95 -40q22 0 49.5 4.5t54 11.5t48 16t30.5 18zM263 60q0 19 -11 27q-1 1 -13 -8t-26.5 -21t-26 -25.5t-11.5 -21.5q0 -14 23 -14
q14 0 26 6t20.5 15t13.5 20t5 22zM556 156q8 -41 25 -41q12 0 12 19q0 29 -22 29q-5 0 -15 -7zM247 -169q32 13 32 30q0 15 -15 15q-24 0 -24 -24q0 -10 7 -21zM59 -228q-5 21 -36 36q-2 -8 -2 -13q0 -24 27 -24q7 0 11 1zM595 -49q-29 -10 -64 -14l43 -5zM881 418
q-5 -6 -12 -14.5t-15 -21.5q28 18 28 30q0 4 -1 6zM588 -63q7 4 16.5 10t21.5 14l-19 -9z" />
    <glyph glyph-name="T" unicode="T" horiz-adv-x="679" 
d="M466 16q14 -8 28.5 -11t29.5 -3q32 0 101 24q-108 -50 -180 -50q-95 0 -111 84l-43 -13q-6 25 -6 49q0 44 32 109l41 13q20 47 55.5 100t77.5 100t86 81.5t80 45.5l-49 7q-56 -29 -112.5 -73t-105 -94.5t-86.5 -105t-57 -104.5l-12 -5q2 7 16 30t30 51.5t29 56.5t13 45
q0 19 -11 33q-33 -32 -63 -70.5t-52 -78t-35 -77t-13 -65.5v-15q0 1 10 5.5t23.5 10t27.5 10t21 4.5q18 0 18 -14q0 -8 -8 -18t-19.5 -18t-24 -13.5t-20.5 -5.5q-29 0 -39 32l-44 -12q13 -35 13 -76q0 -111 -98 -111q-78 0 -78 38q0 11 9.5 22.5t23.5 20.5t30 15t29 6
q16 0 16 -13q0 -11 -11 -19.5t-23 -8.5q-7 0 -15 5q8 -2 11 -2q11 0 20 6.5t9 16.5q0 6 -12 6q-10 0 -22 -4t-22.5 -11t-18 -15t-7.5 -16q0 -15 20 -25t46 -10q36 0 58 23.5t22 68.5q0 34 -14 81q-8 -1 -17 -1.5t-17 -0.5q-52 0 -85 26.5t-33 74.5q0 30 14.5 55t38.5 27
q-41 -41 -41 -84q0 -21 10 -38t26.5 -29t38.5 -19t46 -7q13 0 18 1q-8 20 -12 41.5t-4 44.5q0 46 17.5 94.5t46 88.5t64.5 66t72 26q30 0 54 -24q54 51 116.5 88.5t133.5 65.5q-8 1 -15.5 1.5t-14.5 0.5q-146 0 -197 -89q9 30 27.5 51t51.5 34.5t83 19.5t122 6h106
q103 0 172 14t104 43q-31 -30 -57.5 -50t-51 -32t-50 -17t-54.5 -5q-20 0 -49.5 3t-67.5 8q-21 -14 -49 -41t-63 -65q12 0 31 -9t39.5 -19.5t40.5 -19t35 -8.5q5 0 7 1q15 34 27.5 57.5t25 38.5t26 24t31.5 14q12 -4 18 -16q-5 -20 -16 -39t-27 -34.5t-35 -27.5t-39 -18
q-30 -81 -56 -139.5t-54 -97t-60 -59t-75 -25.5zM495 66q33 0 62 22.5t55 63.5t51.5 98.5t52.5 126.5q-11 -3 -22 -3q-13 0 -32 8.5t-38.5 19t-37 19t-27.5 9.5q-46 -54 -78.5 -104.5t-50.5 -100.5l51 -1q10 31 20 60t20.5 52t22 39.5t25.5 21.5l-66 -173l31 2q3 8 7 23
t10 30t13.5 27t15.5 15l-35 -92q8 2 17 4.5t23 6.5v-2q-8 -4 -18.5 -7t-23.5 -7l-57 -158h9zM137 89q0 33 13 71.5t36.5 79t54.5 80t67 73.5q-22 24 -52 24q-35 0 -67.5 -26t-57.5 -65.5t-40 -85.5t-15 -86q0 -46 15 -89q12 2 23.5 4.5t22.5 6.5v13zM1094 -89
q-89 -33 -205 -33q-26 0 -65.5 3.5t-83.5 9.5t-89 12t-82.5 12t-63.5 9.5t-32 3.5q-14 0 -20 -2t-16 -6l-48 -21q-183 -73 -258 -73q-35 0 -35 23q0 19 16 33t51 23.5t91 15.5t136 9q7 0 13.5 -0.5t14.5 -0.5q16 0 35 4t44 20q-35 -7 -61 -10.5t-44 -3.5q56 6 103 20t89 27
q-21 -8 -50.5 -21.5t-65.5 -30.5q20 -1 55.5 -4.5t78.5 -8.5t90 -10.5t90.5 -10.5t80 -8t58.5 -3q95 0 173 25v-3zM252 -85q-146 -18 -146 -57q0 -21 30 -21q12 0 34.5 4.5t51.5 12t60.5 17t61.5 19.5t54.5 19.5t39.5 17.5zM603 552q-8 1 -12.5 1.5t-6.5 0.5q-8 0 -27 -8
t-43 -20.5t-52 -29.5t-54 -34.5t-49 -34.5t-37 -31q14 -20 14 -44q0 -10 -4 -18q27 31 64.5 67.5t76 68t73.5 54.5t57 28zM422 57q10 33 24 73t32 88q-5 -1 -10.5 -1h-11.5h-13.5t-15.5 1q-20 -57 -20 -102q0 -35 15 -59zM532 221l-30 -3q-42 -109 -63 -184l18 -13zM730 384
q17 7 35 21t33 30.5t25 33.5t10 30q0 12 -10 12q-8 0 -20.5 -11t-25.5 -29t-25.5 -41t-21.5 -46zM150 77q6 -31 30 -31q8 0 18 4t19 10t15 13.5t6 14.5q0 11 -15 11q-12 0 -31.5 -7.5t-41.5 -14.5z" />
    <glyph glyph-name="U" unicode="U" horiz-adv-x="703" 
d="M583 -61q-27 9 -27 46q0 14 2.5 32t10.5 38l25 67q-42 -45 -85.5 -72.5t-87 -45t-87.5 -29t-89 -26.5q-20 28 -20 68q0 12 2 27.5t6 35.5l48 16q9 41 24 86l-32 6q-88 -94 -157 -94q-45 0 -45 35q0 18 11 31.5t30 22.5t44.5 13.5t54.5 4.5q14 0 28.5 -1.5t31.5 -3.5
q126 142 216 345q-2 15 -22 15q-4 0 -24.5 -4.5t-57.5 -15.5q13 8 32.5 16.5t40.5 15t41 11t33 4.5q29 0 34 -18q-6 -12 -20 -39.5t-32.5 -63t-39.5 -75.5t-40.5 -79.5t-35 -74t-23.5 -57.5q61 -12 138 -12l30 80q-8 -1 -14.5 -1.5t-12.5 -0.5q-64 0 -64 56q0 44 55 122
q2 4 27.5 36t74.5 93q55 69 55 93q0 18 -24 29t-59 11q-40 0 -83.5 -9.5t-85 -26.5t-79 -41t-65.5 -51.5t-44.5 -58.5t-16.5 -63q0 -29 13 -41.5t44 -12.5q21 0 41 7.5t36.5 20.5t28 30.5t16.5 38.5q-4 16 -17 16q-10 0 -21.5 -5.5t-23.5 -10.5q19 11 33.5 17.5t24.5 6.5
q17 0 17 -20q0 -21 -13.5 -40.5t-34 -34.5t-45.5 -24t-48 -9q-64 0 -64 58q0 33 18 65t48 61t70 53.5t84.5 42t90.5 27.5t89 10q81 0 81 -37q0 -26 -56 -98l-105 -136q-57 -81 -57 -121q0 -48 77 -48l11 1l8 22l-49 -3q19 9 44 9h8q9 26 20 54t24 59l10 2l-44 -115l30 2
q23 62 35 95t19.5 48t14 18.5t18.5 6.5l-63 -166q17 0 37 4q23 60 48.5 125.5t54.5 137.5l28 9l21 39l79 25q-11 -26 -30.5 -64t-45.5 -89l-18 -8q-31 -78 -58 -148t-51 -135q40 5 81 12t83 17q-27 -13 -73 -21.5t-92 -13.5q-17 -43 -32.5 -85t-15.5 -71q0 -40 29 -50z
M426 -73q-12 -15 -38.5 -34.5t-58 -37.5t-63.5 -30.5t-56 -12.5q-31 0 -31 26q0 13 7.5 25t25.5 24t48 25t76 29q14 4 41 14.5t56 23.5t55 26.5t38 25.5q-45 -48 -93 -96l278 -53q126 -26 222.5 -38t164.5 -12q82 0 196 12t263 38q-87 -32 -182.5 -48t-201.5 -16
q-159 0 -376 38zM509 158h-13q-34 0 -65 2.5t-60 7.5q-14 -42 -20 -69.5t-6 -43.5q0 -49 37 -53q28 7 45 14.5t27.5 17t16.5 22t12 29.5zM418 -71q-12 2 -23.5 3.5t-21.5 1.5q-20 0 -41.5 -4t-44.5 -12q-16 -6 -33.5 -16t-32 -22t-24 -24.5t-9.5 -21.5q0 -13 23 -13
q24 0 50.5 8.5t53.5 23t53.5 34t49.5 42.5zM265 190q-23 3 -44 3q-27 0 -52.5 -5.5t-46 -14.5t-33 -21.5t-12.5 -26.5q0 -10 10 -15.5t35 -5.5q63 0 143 86zM652 277l-41 -15l-35 -96l3 1q11 13 23.5 26t27.5 26zM585 252q-8 -2 -16.5 -4t-15.5 -3q-20 -48 -30 -81
q7 1 13.5 1h14.5zM550 159h-15.5t-15.5 -1q-8 -23 -15.5 -44.5t-14.5 -41.5q7 6 14 10.5t14.5 13.5t15.5 23.5t17 39.5zM478 -9q-45 -28 -128 -50q20 0 38.5 -1t36.5 -3zM309 190l16 44t19 45q-36 -53 -63 -84zM592 273l-29 -1l-8 -22q7 1 14.5 3t15.5 4zM616 274l-3 -8
l24 10z" />
    <glyph glyph-name="V" unicode="V" horiz-adv-x="696" 
d="M447 -61q28 79 28 152l34 11l4 25q-66 -51 -139 -88q-12 -29 -31.5 -64t-41 -66t-42.5 -52t-34 -23q84 78 134 199l-38 -16t-39 -15q-16 -25 -48 -57t-68 -62t-71 -52.5t-58 -27.5q165 94 230 194q-60 -19 -111 -19q-83 0 -83 58q0 23 14 56q-31 24 -31 71q0 39 22 85
t56 85t74.5 65t77.5 26q96 0 117 -164l36 -3v3q0 7 -1 21.5t-1 21.5q0 32 13 39q1 -12 1.5 -24t0.5 -24v-18.5t-1 -18.5l28 -1v4q0 9 -1.5 25t-3 33t-2.5 32.5t-1 22.5q0 51 21 59q7 -26 10 -57t3 -66v-24.5t-1 -27.5l22 2q1 18 1.5 33.5t0.5 29.5q0 218 -102 218
q-13 0 -34 -3.5t-33 -3.5q37 14 68 20t55 6q65 0 94.5 -44t29.5 -144q0 -24 -2.5 -63.5t-7.5 -96.5q31 34 59.5 75.5t57.5 91.5q14 24 37.5 70t55.5 113l25 9l24 55l78 25q-15 -32 -35.5 -80.5t-47.5 -114.5l-53 -17q-59 -116 -117 -225t-118 -212l-28 -10l-9 -27zM363 256
q12 5 20 5q7 0 9 -1q-24 157 -113 157q-34 0 -71.5 -25.5t-68.5 -63t-51 -82t-20 -81.5q0 -41 24 -63q13 25 31.5 47t40 39t44.5 27t44 10q41 0 41 -36q0 -17 -9 -36q28 -12 28 -57q0 -6 -0.5 -12t-1.5 -12q38 6 69 16q9 28 13 54.5t4 52.5q0 14 -1 28.5t-3 28.5zM689 53
q-12 -12 -33.5 -39.5t-45 -59t-45.5 -60t-35 -40.5q47 -2 98 -3.5t93 -2.5q57 -1 106 -2t86 -1q65 0 124 2.5t113 7.5q-53 -23 -219 -23q-36 0 -73 1.5t-83.5 3.5t-107 4.5t-144.5 4.5q-119 -105 -204 -105q-47 0 -47 29q0 19 18 33.5t34 22.5q22 11 43 16.5t44.5 8
t49.5 2.5t58 1q80 72 122 149q-100 -85 -138 -94q3 2 13 14.5t23 29.5t28 37t28.5 37t24 29t14.5 14q-15 -27 -39 -60t-57 -75q15 9 105 84l46 37v-3zM279 142q-29 -57 -64 -57q-20 0 -20 18q0 9 8 18.5t20 17t25.5 12t24.5 4.5q8 18 8 31q0 33 -36 33q-19 0 -39 -9.5
t-39.5 -26t-37 -39t-29.5 -47.5q42 -33 126 -33q36 0 72 6q3 10 3 24q0 35 -22 48zM297 65q-42 -6 -81 -6q-76 0 -120 27q-6 -13 -8.5 -24.5t-2.5 -22.5q0 -57 82 -57q24 0 50 5t53 14q21 33 27 64zM512 -153q-23 0 -48 -0.5t-50 -2.5t-48 -7t-41 -14q-14 -6 -26 -18.5
t-12 -29.5q0 -31 40 -31q70 0 185 103zM426 106q2 24 5.5 60t7.5 84q-8 0 -17 0.5t-18 1.5q3 -29 3 -55q0 -49 -15 -103zM465 124q6 38 9 69t4 57q-7 -1 -14 -1h-14l-5 -57.5t-8 -80.5q15 5 28 13zM378 86q-38 -14 -69 -18q-8 -32 -25 -63q20 8 39.5 16t39.5 17zM516 146
q-29 -17 -60 -31t-64 -26l-16 -44q37 20 72 42t67 48zM661 261q-12 -11 -28.5 -25.5t-37.5 -36.5q-2 -22 -4.5 -43t-5.5 -42q18 34 37 70.5t39 76.5zM503 251q-1 -27 -3.5 -55t-7.5 -59q7 4 13 7t11 8q4 26 6 51.5t4 50.5zM270 146q-8 3 -9 3q-7 0 -16.5 -4.5t-18 -11.5
t-14.5 -15.5t-6 -15.5q0 -12 14 -12q23 0 50 56zM668 282q4 5 8.5 13t11.5 21q-11 -13 -18.5 -26t-15.5 -25z" />
    <glyph glyph-name="W" unicode="W" horiz-adv-x="820" 
d="M626 -37q1 17 7 56.5t13 84.5t13 86.5t6 64.5q0 22 -3 39q-22 -20 -54 -61.5t-63 -87t-55.5 -87t-30.5 -62.5l-33 -12l-12 -35q10 6 31 6q23 0 38 -6q22 22 44 61t42.5 80t37 75.5t27.5 48.5l13 4q-13 -16 -28 -49.5t-34 -73.5t-42.5 -79.5t-53.5 -67.5q10 -4 26 -19
q53 -46 95 -46q8 0 13 1q-14 -3 -28 -3q-18 0 -33.5 5.5t-29 14t-26 19t-25.5 20.5q-45 -42 -102 -69q14 -50 118 -50q63 0 168 20.5t257 61.5q51 14 79.5 22t45 12t27 5t25.5 1q52 0 77.5 -7t25.5 -28q0 -14 -10 -23t-21 -16q83 -46 301 -46q38 0 79 1.5t86 5.5
q-90 -21 -188 -21q-172 0 -293 55q-50 -35 -113 -35q-39 0 -58 19q51 45 100 45q36 0 81 -22q19 20 19 35q0 29 -64 29q-20 0 -42.5 -3.5t-48.5 -9.5q-22 -6 -61 -16t-87.5 -22t-103 -24t-108 -22t-102 -16.5t-85.5 -6.5q-106 0 -114 50q-56 -21 -105.5 -33.5t-94.5 -12.5
q-41 0 -77 10.5t-62 30t-41 47t-15 60.5q0 36 16 67.5t44 54.5t64.5 36t78.5 13q7 0 13 -0.5t14 -1.5q-9 30 -26 56t-39.5 46t-48.5 31.5t-52 11.5q-74 0 -149 -86q75 99 152 99q87 0 153 -109q17 -28 22 -49q72 -2 72 -50q0 -16 -8.5 -35t-22 -35t-30.5 -27t-34 -11
q-13 0 -25 7.5t-12 24.5q0 29 20 44.5t42 19.5q-2 14 -5 28.5t-8 28.5h-10q-43 0 -80.5 -11.5t-65 -32.5t-43.5 -50.5t-16 -64.5q0 -33 14.5 -60.5t39.5 -47t59 -30t74 -10.5q83 0 191 45q-2 6 -2 12q0 31 30 61l-60 -19q17 48 27.5 88.5t15.5 74.5l36 13l31 153l-27 -4
q-5 -35 -8.5 -55.5t-8.5 -31.5t-12.5 -16t-19.5 -10q7 27 13 54.5t11 56.5l-27 -3q-3 -40 -9.5 -77.5t-14.5 -67t-17 -48t-17 -21.5q17 50 29 103t17 110l-59 5q10 5 24 5q8 0 17 -1t19 -3q0 1 1 11.5t2 23.5l2 26t1 20t-1 8q-28 7 -55 23t-49.5 37.5t-38 47t-19.5 51.5
q8 -26 30 -52t50.5 -48t60.5 -38t62 -21q0 19 -0.5 32t-0.5 24q0 13 1 20.5t4 11.5t9 6l15 5l-3 -100h31q8 55 11 89.5t3 48.5q0 37 -12.5 51.5t-39.5 14.5q-11 0 -26.5 -4t-29.5 -4l116 39l6 2t5 1q39 0 39 -93q0 -52 -15 -140q32 5 65 15t65 24q-93 27 -93 102
q0 33 19.5 71t49 70.5t63.5 54t64 21.5q51 0 51 -71q0 -48 -30 -96l17 -19q124 157 167 157q21 0 21 -34q0 -20 -17 -45.5t-41 -48.5t-51 -38.5t-46 -15.5q-18 0 -33 12q-66 -81 -124 -116q21 -6 54 -6q30 0 62.5 6t62 16t53 23.5t36.5 29.5l-60 -20q25 34 44.5 55t40.5 35
t48 24t68 22q-53 -30 -92 -73q19 15 49.5 31.5t64.5 30.5t65.5 23.5t52.5 10.5q-62 -20 -113.5 -48t-95.5 -69t-84 -98t-79 -134l-116 -243zM761 522q-6 -7 -16 -14t-22 -12.5t-24 -9t-21 -3.5q-24 0 -24 23q0 10 6.5 18.5t17 15t23 10.5t23.5 4q23 0 38 -15q24 45 24 87
q0 55 -51 55q-28 0 -57 -18t-53 -46t-39 -62.5t-15 -66.5q0 -76 85 -103q57 34 123 118q-10 6 -18 19zM704 98q4 5 15 26t27 50.5t35.5 64t39.5 68.5t39.5 63.5t35.5 47.5q-79 -48 -173 -48q-35 0 -73 8q-26 -13 -60 -23.5t-76 -17.5l-12 -73l7 1l-7 -3q-5 -31 -14 -73
t-20 -97q34 60 61 100t53 66.5t55 44t67 32.5q4 1 7 1q19 0 19 -50q0 -39 -9 -96zM793 509q10 -7 25 -7q22 0 47.5 13.5t47.5 34t36.5 45t14.5 46.5q0 18 -15 18q-13 0 -25 -6t-29 -22.5t-41 -46t-61 -75.5zM218 130q4 -14 8 -30t8 -35q-11 3 -23 -1t-22 -12t-16.5 -19
t-6.5 -24q0 -25 35 -25q13 0 26.5 9t23.5 22.5t16.5 29.5t6.5 30q0 49 -56 55zM1152 -135q-50 22 -76 22q-34 0 -77 -36q15 -12 45 -12q53 0 108 26zM475 -58q-18 7 -42 7q-27 0 -41.5 -17.5t-14.5 -44.5v-6.5t1 -6.5q53 26 97 68zM755 528q-18 21 -42 21q-3 0 -11 -3
t-16.5 -8.5t-14.5 -12.5t-6 -16q0 -18 37 -18q28 0 53 37zM394 250q2 19 4 39t4 41q-8 1 -15.5 2t-14.5 3q-1 -23 -1.5 -44.5t-2.5 -42.5zM457 329h-30q-1 -20 -3 -39.5t-5 -37.5l28 5zM364 532q-1 -1 -2 -1z" />
    <glyph glyph-name="X" unicode="X" horiz-adv-x="698" 
d="M1333 -74q-144 24 -276 24q-43 0 -84 -1.5t-85 -6t-94.5 -13.5t-111.5 -23q-106 -23 -179 -35.5t-119 -12.5q-126 0 -126 77q0 18 12 35t32 29.5t45 20t51 7.5q69 0 100 -49q-1 6 -1 14v17q0 62 4 106.5t12 71.5q0 -13 -0.5 -40t-1.5 -57t-1.5 -57t-0.5 -40q0 -60 4 -83
q-49 114 -132 114q-20 0 -39 -7.5t-34.5 -20.5t-25 -30t-9.5 -35q0 -38 35.5 -49t107.5 -11q14 0 25 1t31 5t54.5 11.5t96.5 20.5q261 54 411 54q68 0 142.5 -9.5t156.5 -27.5zM617 113l8 -85q73 49 149 71q-49 -33 -79.5 -52.5t-53 -31.5t-42.5 -19t-48 -15q-4 28 -6.5 73
t-4 89.5t-2.5 79t-1 42.5l-179 -165q-110 -96 -202 -124q42 32 90.5 72t102.5 90l183 171l-2 39q-33 -29 -51.5 -45.5t-31.5 -26t-24 -13.5t-28 -8q30 23 63.5 50t71.5 59l-1 55l-83 -77q-33 -31 -54.5 -45.5t-27.5 -17.5q-15 -21 -43.5 -46t-60.5 -46.5t-63 -36.5t-51 -15
q-37 0 -47 39q-31 -24 -59.5 -53.5t-50.5 -60t-35 -58.5t-13 -49q0 -65 107 -65q15 0 31 1.5t34 3.5q-57 -21 -98 -21q-78 0 -78 70q0 27 12 58t33.5 62.5t50.5 62t64 56.5v4q0 20 10.5 43t28.5 46.5t41.5 44.5t49 37.5t51.5 26.5t49 10t30 -13q-2 -31 -107 -105l-141 -93
q8 -37 36 -37q31 0 62.5 14.5t61.5 39.5t56.5 57t46 66.5t31 69.5t11.5 65q0 12 -2 23t-5 22l-75 -25q11 23 16.5 45t7.5 44q-24 7 -47 9q10 6 26 6q11 0 22 -3l1 21l77 25l-1 -32q32 14 64 14q90 0 105 -112l71 62q26 23 44.5 34.5t27.5 14.5q-34 -28 -69 -57.5t-73 -62.5
l2 -52l50 48q15 15 30 23t29 12l-109 -101v-37l129 124q76 68 150 88l-275 -259q2 -26 3 -46t2 -37l55 19q-9 -74 -9 -118v-12t1 -10zM529 427q-5 136 -97 148q-4 -28 -15 -59q7 -21 7 -52q0 -93 -58 -180q14 12 54.5 47.5t108.5 95.5zM107 189q49 31 93 60.5t76.5 54
t51.5 43.5t19 30q0 14 -20 14q-30 0 -68 -20t-72 -49.5t-57 -63.5t-23 -61v-8z" />
    <glyph glyph-name="Y" unicode="Y" horiz-adv-x="668" 
d="M546 -179q187 95 407 95q20 0 63.5 -4t99.5 -10t120.5 -12.5t127.5 -12.5t119.5 -10t96.5 -4q-20 -11 -59 -11q-9 0 -44 4t-84.5 10t-109 13t-117.5 13t-110 10t-86 4q-245 0 -417 -86q87 -23 158 -23q14 0 27.5 1t27.5 4q-26 -13 -71 -13q-61 0 -154 24q-1 -1 -16 -11
t-37.5 -23.5t-48.5 -28.5t-49.5 -28t-40.5 -22t-21 -9q44 28 67 43.5t36.5 28t23.5 27t29 41.5l-60 21q0 -1 -1 -1l-26 13q-71 -36 -152 -48q82 25 126 57l-62 26q-94 -59 -154 -59q-28 0 -41 18q8 31 40 48t74 17q40 0 85 -15q24 16 45.5 32.5t39.5 33.5q-81 -28 -159 -28
q-50 0 -93 12t-74.5 34.5t-49.5 53t-18 68.5q0 115 153 226q-1 2 -1 8q0 38 28 82t71 84t95 71.5t100 45.5q-52 -19 -102.5 -51.5t-90.5 -71t-64.5 -79t-24.5 -74.5v-8q48 32 91 49q34 37 87.5 76.5t115 74.5t126 64t120.5 45q-30 -9 -68 -26t-80 -39t-85 -47t-81 -50.5
t-70 -50.5t-51 -45q34 10 65 10q62 0 62 -49q0 -11 -3 -24l26 -1q8 35 14.5 64.5t8.5 52.5q4 -8 4 -26q0 -31 -16 -91l38 3q8 36 12 61t4 39q0 33 -14 44q7 3 14 3q24 0 24 -38q0 -33 -15 -106l25 3q43 138 43 165q0 20 -12 20q-6 0 -19.5 -4t-31.5 -10.5t-39 -14.5t-41 -16
q124 85 174 85q38 0 38 -49q0 -18 -6.5 -48.5t-18.5 -72.5l-42 -129q-11 -40 -18.5 -73t-9.5 -59q18 24 71 127q7 13 20 38.5t29.5 57t36.5 66t40 66.5t39.5 58.5t36.5 40.5q-37 -45 -94 -148l-84 -165q-27 -49 -51 -88.5t-45 -68.5l2 -12q27 25 55.5 56.5t58.5 73.5t62 96
t67 122l69 133l40 13l12 14l79 25q-9 -10 -17.5 -24.5t-16.5 -32.5l-30 -59l-43 -15q-44 -85 -96.5 -174.5t-115.5 -185.5q-139 -212 -256 -281l25 -10q19 14 42.5 37t45 45t37.5 38t20 16q1 0 1 -3q0 -2 -3 -11l-36 -74q-11 -23 -21 -40.5t-20 -31.5zM425 56q-4 11 -6 22.5
t-2 27.5q0 21 3.5 43.5t10.5 49.5t17 59.5t23 72.5l-38 -3l-25 -62q-14 -37 -20 -70t-7 -61q0 -8 0.5 -17t1.5 -17q-10 34 -10 65q0 20 7 46.5t16 51t17 42.5t9 21l-29 1q-19 -34 -56 -54t-77 -20q-41 0 -71 21q-26 -55 -26 -104q0 -72 59.5 -112.5t158.5 -40.5q16 0 32.5 1
t33.5 3q14 14 25.5 27t21.5 25q-4 -1 -7 -1.5t-6 -0.5q-19 0 -19 35q0 19 5.5 45.5t13.5 57t18.5 63.5t19.5 65l-23 -2q-1 -5 -6.5 -20t-15.5 -43q-24 -68 -36.5 -119t-12.5 -86v-12zM442 17q-34 -7 -71 -7q-50 0 -90.5 11t-69.5 31t-45 49.5t-16 65.5q0 52 31 115
q-18 18 -23 50q-30 -24 -55.5 -52.5t-44 -58.5t-29 -60t-10.5 -57q0 -35 18.5 -62.5t51.5 -47t77.5 -29.5t96.5 -10q36 0 61.5 2.5t45 9.5t36.5 19t36 31zM270 393q-48 -53 -76 -105q28 -27 68 -27q20 0 43 8t42 21.5t31.5 30t12.5 33.5q0 47 -65 47q-26 0 -56 -8zM379 -118
q68 54 136 144q-11 -7 -24 -11.5t-34 -15.5t-54 -32.5t-84 -60.5zM301 -100q-39 16 -83 16q-77 0 -92 -54q1 -15 26 -15q12 0 32 5t41.5 13t42 17t33.5 18zM559 -35q-49 -53 -79 -79t-41 -28q14 -6 27 -11t24 -9q25 35 41.5 66.5t27.5 60.5zM508 79q-12 -14 -24 -27.5
t-26 -27.5q26 3 39.5 4.5t22.5 7.5t18 19.5t27 41.5zM254 388q-23 -9 -44 -20.5t-41 -26.5q2 -15 6.5 -27t11.5 -20q24 47 67 94zM534 -185q-10 2 -20 5t-20 8q-14 -17 -27.5 -33.5t-27.5 -32.5q26 16 49.5 29t45.5 24zM514 32q-14 -4 -29 -7.5t-31 -5.5q-14 -15 -32 -30
q25 9 50 20.5t42 22.5z" />
    <glyph glyph-name="Z" unicode="Z" horiz-adv-x="880" 
d="M789 321q6 0 23 -1t37.5 -1.5t39.5 -1.5t30 -1q-35 -14 -65 -20t-54 -6q-8 0 -18 0.5t-23 1.5q-78 -79 -142.5 -135.5t-115.5 -91.5q17 6 32.5 8.5t31.5 2.5t46 -7.5t62.5 -16t62.5 -16t46 -7.5q64 0 141 39q-74 -63 -148 -63q-8 0 -34.5 5t-61.5 11.5t-72 11.5t-64 5
q-92 0 -192 -41q25 12 68 44t92.5 74t101.5 89.5t96 91.5q-20 0 -39 -3q-56 -63 -118 -82q35 26 59.5 46t36.5 35q-5 0 -10.5 -0.5t-11.5 -2.5q-19 -17 -38 -33t-35 -29t-28.5 -21t-17.5 -10l106 92l-26 -5q25 8 53 29t63 61l-12 1q-41 0 -77 -3q-7 -10 -15 -17t-16 -12
q1 -2 1 -6q0 -24 -24.5 -47t-58.5 -42.5t-69.5 -34.5t-57.5 -24q-52 -20 -101 -35t-87 -20q55 17 101.5 32.5t85.5 29.5q10 4 29 11.5t41 17.5t45 22.5t41.5 25.5t30.5 27t12 27q0 6 -1 10q-26 -14 -63 -26t-78 -20.5t-82 -13.5t-76 -5h-11l159 21q95 16 150 47
q-4 11 -31 19t-80 10q-90 3 -145.5 8.5t-86 16t-41 28.5t-10.5 45q0 34 18.5 65.5t50 58.5t74 50t91 39t99.5 25t101 9q30 0 53 -3.5t41.5 -11.5t34 -22.5t30.5 -35.5q25 -36 43 -57t34.5 -31.5t35.5 -13.5t46 -3q30 0 67.5 7t83.5 22q-84 -47 -226 -181q24 1 53 9.5
t61 24.5q-43 -37 -123 -43zM833 557q-25 14 -70 73q-21 26 -39 41t-36 22.5t-38 9t-47 1.5q-87 0 -163 -20.5t-132 -54t-88.5 -75.5t-32.5 -84q0 -26 11 -43.5t42 -28t86.5 -16t144.5 -8.5q104 -3 111 -28q27 24 27 34q0 19 -67 20q-64 2 -101.5 5t-57.5 8.5t-26 14.5t-6 23
q0 22 33 61q93 104 211 104q26 0 55.5 -6t64.5 -17q8 -2 37.5 -10.5t80.5 -25.5zM798 381q51 48 93.5 82t75.5 56q-39 -13 -79 -13q-16 0 -46.5 7t-64.5 15.5t-64.5 15.5t-46.5 7t-26 -6t-16 -15t-8 -18.5t-2 -16.5q0 -12 6 -22l-78 -26q-4 9 -4 21q0 20 18 38.5t46 33.5
t61.5 25.5t64.5 13.5q-32 17 -66 23t-66 6q-58 0 -106.5 -22.5t-92.5 -71.5q-33 -38 -33 -60q0 -33 65 -39l122 -5q66 -5 66 -28q0 -6 -1 -8q20 7 95 7q23 27 40.5 45.5t32 30.5t27.5 20t28 15q-53 -38 -118 -111h19q95 94 152 107q-30 -19 -63.5 -45.5t-70.5 -61.5h40z
M1784 -114q-146 33 -281 33q-152 0 -304.5 -44t-307.5 -135q17 17 41.5 42t68 61t110.5 83.5t169 109.5q-191 -101 -418 -101q-110 0 -175 28q46 5 91.5 14.5t92.5 23.5q-55 -27 -98 -39q60 -16 126 -16q50 0 104 8.5t115 28.5q21 7 73 27t136 52q-102 -72 -169.5 -120
t-111 -81t-69 -54t-44.5 -37q60 38 128 68t141 50.5t148.5 31t150.5 10.5q78 0 149 -10.5t134 -33.5zM1055 486q-10 -6 -13.5 -9t-5.5 -5.5t-6 -5t-14 -6.5t-30 -11t-55 -18q13 13 39 33.5t52 40t47 34t25 16.5q1 1 21.5 7t62.5 20zM328 28q17 10 55 42t104 82l82 26
q-10 -10 -27.5 -23.5t-38 -28t-42.5 -29.5t-41 -27.5t-33.5 -20.5t-20.5 -10zM691 315q10 2 20 3t21 2q15 15 29 27.5t27 24.5h-17.5t-20.5 1zM714 373q-15 -17 -34.5 -35t-42.5 -39q5 2 12.5 4.5t15.5 5.5l65 64h-16z" />
    <glyph glyph-name="grave" unicode="`" horiz-adv-x="460" 
d="M614 500q-79 10 -139 136l68 26q59 -125 146 -135z" />
    <glyph glyph-name="a" unicode="a" horiz-adv-x="356" 
d="M258 -38q-13 12 -13 33q0 11 5 33q-15 -9 -36 -18.5t-42.5 -17t-41 -12.5t-31.5 -5q-18 0 -25 7l-37 -11q-19 12 -19 44t20 75l45 15q23 71 36.5 113.5t19.5 56.5q13 31 30.5 53t44.5 40t68 33t101 32l29 10l10 -25l56 17q-3 -48 -10 -83.5t-17 -58.5l-41 -12l-51 -130
q-33 -86 -33 -131q0 -24 10 -31zM281 110q38 93 56 156t19 98q0 38 -25 38q-8 0 -19 -2t-26 -14.5t-34.5 -40t-42.5 -78.5q-70 -153 -70 -220q0 -40 20 -40q8 0 23.5 6t31 15t29 18.5t18.5 16.5z" />
    <glyph glyph-name="b" unicode="b" horiz-adv-x="384" 
d="M292 23q-31 -17 -65 -31.5t-73 -26.5q-19 15 -37 32t-18 41q0 35 6.5 71t19.5 75q6 19 21.5 56t33.5 78.5t34 79t23 57.5l-32 -9q12 52 12 80q0 41 -21 61l79 26l13 -21l28 10q12 -20 12 -48t-12.5 -69t-38.5 -96q35 21 120 46l36 -31q19 -19 19 -42q0 -105 -51 -220
l41 14q-20 -41 -36.5 -66.5t-34.5 -41.5t-41 -25.5t-57 -19.5zM233 294q-12 -24 -22 -54t-17.5 -61t-12 -61t-4.5 -54q0 -54 33 -54q30 0 60 30.5t53 78.5t37.5 105.5t14.5 111.5q0 56 -32 56q-12 0 -28.5 -9.5t-32.5 -24t-29 -31.5t-18 -32z" />
    <glyph glyph-name="c" unicode="c" horiz-adv-x="350" 
d="M259 36l80 25q-14 -17 -35.5 -32.5t-45.5 -28.5t-48 -20.5t-43 -7.5q-18 0 -29 4l-31 -9q-11 3 -18 7t-12 13.5t-9 27.5t-9 48l41 13q11 251 215 329l36 17q12 5 21 6.5t17 2.5q17 0 26 -16l39 12q10 -21 10 -50q0 -11 -1.5 -24.5t-5.5 -30.5l-78 -26l9 42l-30 -9
q6 13 6 28q0 43 -26 43q-4 0 -6 -1q-30 -17 -59.5 -53.5t-52.5 -81t-37 -91.5t-14 -86t14.5 -62.5t41.5 -23.5q13 0 21 14z" />
    <glyph glyph-name="d" unicode="d" horiz-adv-x="348" 
d="M96 -14q-37 26 -37 84q0 24 6 53l39 12q45 225 199 273q1 0 21 6.5t60 18.5v28q0 85 -39 109l43 14q-3 14 -12 26l78 24q35 -46 37 -97l-32 -9q1 -13 1.5 -26t0.5 -27q0 -53 -6.5 -108t-22.5 -113q-17 -66 -36 -109.5t-49 -73.5t-77 -52.5t-121 -46.5q0 -1 -27 23z
M205 18q30 0 59 29t52 75t37 102.5t14 111.5t-33 55q-31 0 -60.5 -30.5t-52.5 -77.5t-37 -103.5t-14 -107.5q0 -54 35 -54z" />
    <glyph glyph-name="e" unicode="e" horiz-adv-x="343" 
d="M363 89q-87 -104 -192 -104q-11 0 -22 2t-22 5l-26 -10q-18 -6 -25 -6q-24 0 -24 52q0 25 4 40l24 8q3 69 21.5 124.5t56 99.5t94.5 77t136 58q12 -8 23 -31l54 17q1 -4 1 -8.5v-9.5q0 -41 -27 -89l-28 -4q-21 -42 -109 -85l-135 -55q-6 -29 -6 -61q0 -45 12.5 -72
t34.5 -27q31 0 75 54zM317 402q-107 -75 -145 -212q37 12 69.5 29t56.5 36.5t38 40.5t14 42q0 32 -33 64z" />
    <glyph glyph-name="f" unicode="f" horiz-adv-x="248" 
d="M31 -72q11 17 20 34t14 32q-8 -4 -17 -7t-18 -5q52 89 88.5 192t68.5 211q-17 2 -31 5t-25 8l67 21q24 64 48.5 97t54 50.5t67 26.5t88.5 26q19 -10 19 -35q0 -17 -7 -34l-23 -8q1 -4 1 -7.5v-6.5q0 -7 -0.5 -12.5t-1.5 -10.5l-78 -25q1 7 2 21.5t1 22.5q0 40 -20 47
q-14 -12 -23 -23t-18 -27.5t-18.5 -42t-23.5 -66.5h30q26 0 57.5 3.5t66.5 8.5q-35 -12 -58.5 -19t-41.5 -11t-32.5 -6t-31.5 -3q-17 -63 -45.5 -139t-73.5 -178q17 1 38 12q-16 -43 -65 -126z" />
    <glyph glyph-name="g" unicode="g" horiz-adv-x="375" 
d="M194 -163q-41 -24 -71.5 -31.5t-63.5 -7.5q-19 0 -28 9l-24 -8q-30 8 -30 55q0 9 1.5 18t3.5 19l77 25l-3 -19l32 11q-1 -5 -1 -14q0 -13 3.5 -25.5t9.5 -23t14 -17t17 -6.5q41 0 82 78l50 117q-23 -16 -54 -26t-60 -19q-18 7 -25 20l-25 -9q-45 13 -45 68q0 5 0.5 12
t1.5 14l41 12q14 116 60 197q21 36 42 58t47.5 37.5t61 27t81.5 26.5q10 -4 16 -9.5t11 -11.5l60 19q6 -17 6 -37q0 -22 -6 -45.5t-14 -45.5l-25 -8q-12 -82 -58 -182l-81 -172q17 1 38 12q-48 -119 -178 -156zM205 18q30 0 59 29t52 75t37 102.5t14 111.5t-35 55
q-31 0 -60 -30.5t-51.5 -77.5t-36.5 -103t-14 -108q0 -54 35 -54z" />
    <glyph glyph-name="h" unicode="h" horiz-adv-x="363" 
d="M392 137q0 -31 -16 -60.5t-43.5 -55t-65.5 -46t-83 -33.5q27 18 51 40t44 49q-46 -28 -140 -58q120 67 154 137q5 12 10 42t12 79q5 38 21 70.5t43 61.5q-22 -10 -43 -22t-40 -23t-35.5 -19.5t-29.5 -11.5q-26 -63 -48 -126t-43 -127l-35 -11q-3 -17 -16 -39l-79 -25
q20 40 38.5 82t31.5 87l28 10q38 106 68.5 186t55.5 136l-37 -12q52 100 75 166l79 26l-22 -49l36 11q-35 -75 -66.5 -149t-58.5 -150q82 47 151 78.5t128 50.5q-71 -43 -95 -89q-8 -14 -14 -42t-12 -59.5t-12.5 -62t-14.5 -49.5z" />
    <glyph glyph-name="i" unicode="i" horiz-adv-x="201" 
d="M336 497q-12 -23 -23 -39l-80 -26q32 42 55 122l38 11q3 11 5.5 19.5t4.5 16.5l76 25q-4 -23 -14.5 -52.5t-30.5 -66.5zM64 -32q-1 11 -1.5 21.5t-0.5 20.5q0 31 6 58l44 14q15 68 26 113.5t22 77.5t23 55.5t29 48.5l80 26q-21 -31 -37.5 -73.5t-30.5 -91t-26 -102
t-24 -106.5l-33 -11l1 -27z" />
    <glyph glyph-name="j" unicode="j" horiz-adv-x="196" 
d="M322 482l-13 -24l-80 -26q7 11 14 25t15 32l25 59l36 11q5 14 8.5 27t6.5 27l77 25q-8 -35 -21 -71t-31 -72zM3 -114l20 -20q35 26 83 212q53 209 75 247l24 7q8 18 17 33t17 27l80 25q-8 -12 -18 -28.5t-20 -36.5l-34 -67l-16 -6l-66 -233q-54 -164 -119 -185
q-39 -14 -60 -20t-25 -6q-7 0 -16.5 7t-19.5 16t-19.5 17t-16.5 10l53 16q-4 9 -9 17t-13 17l79 26q13 -11 22.5 -25.5t17.5 -29.5z" />
    <glyph glyph-name="k" unicode="k" horiz-adv-x="377" 
d="M386 -49q-33 -12 -56 -18.5t-36 -6.5q-41 0 -83 74l46 15q0 1 -4 21.5t-11.5 48.5t-17.5 55.5t-22 41.5q-11 -31 -27 -75t-39 -103l-45 -14l-6 -18l-76 -24q8 23 19.5 54t28.5 71l42 13l147 402l-33 -9q8 20 19.5 51.5t26.5 73.5l76 22l-14 -42l31 9l-129 -346
q161 155 252 173l17 -8q-9 -143 -244 -203q39 -21 60 -79l28 -95q23 -47 75 -53l-68 -21q16 -10 37 -10h6zM417 381q-72 -55 -112.5 -88t-60.5 -51t-26 -25t-7 -11q61 19 97.5 35.5t57.5 35t31.5 43.5t19.5 61z" />
    <glyph glyph-name="l" unicode="l" horiz-adv-x="156" 
d="M38 -63q10 12 18.5 26t16.5 31l-37 -12q14 46 38 105t55 131l96 234l-48 -16q11 26 27.5 64.5t37.5 89.5l79 24l-22 -52l41 13q-10 -28 -27 -71t-37 -92t-41 -100t-39 -95.5t-32 -79t-19 -49.5l32 12q-5 -32 -19.5 -67t-40.5 -71z" />
    <glyph glyph-name="m" unicode="m" horiz-adv-x="564" 
d="M583 137q0 -116 -213 -210q53 36 95 94q-19 -14 -27.5 -20.5t-19.5 -11t-30.5 -7.5l-58.5 -9q122 69 151 134q7 15 16 117q6 73 67 139q-25 -15 -63 -36t-89 -49q-3 -24 -8 -60t-13 -84q-6 -27 -17.5 -47.5t-34.5 -38t-59.5 -34t-93.5 -34.5q102 58 129 127q5 17 14 124
q6 75 58 132q-22 -14 -61 -35.5t-96 -52.5l-51 -153l35 10q0 -30 -22.5 -65.5t-48.5 -76.5l-80 -26l37 54l-28 -9q11 42 30.5 102t48.5 141l-36 -12q4 12 15 35t23 48t22.5 48t15.5 34l77 26l-21 -49l35 11l-42 -93q88 49 159 81.5t127 50.5q-91 -53 -111 -135
q63 34 104 55.5t71 36t55 23.5t57 20q-35 -21 -59 -43.5t-35 -46.5q-7 -14 -12 -41t-10 -58.5t-11 -62t-15 -50.5z" />
    <glyph glyph-name="n" unicode="n" horiz-adv-x="378" 
d="M409 137q0 -115 -213 -210q53 35 96 94q-21 -15 -33.5 -23.5t-24.5 -14t-27 -9t-39 -9.5q119 60 148 132q5 11 8 43t6 85q3 78 60 138l-157 -88q-5 -11 -18 -49t-34 -104l32 10q-15 -84 -64 -142l-79 -26l34 55l-31 -10q11 42 31 102t49 141l-37 -12q4 12 15 35
t22.5 48.5t22 48t15.5 33.5l79 26q-5 -11 -10 -23.5t-12 -25.5l35 11l-43 -93q89 49 160.5 81.5t127.5 50.5q-71 -42 -95 -90q-6 -14 -11 -41t-10 -58.5t-11.5 -62t-15.5 -50.5z" />
    <glyph glyph-name="o" unicode="o" horiz-adv-x="337" 
d="M130 -28l-25 20l-25 -9q-46 15 -46 69q0 14 4 25l40 12q9 72 29 126t50 93t70 65.5t89 43.5l54 18q1 -1 7 -6t20 -15l61 19q2 -8 3 -18t1 -19q0 -22 -4.5 -45t-12.5 -46l-26 -8q-38 -240 -212 -300zM185 18q30 0 59.5 29t52.5 75t37 102.5t14 111.5t-34 55
q-31 0 -60 -30.5t-51.5 -77.5t-36.5 -103t-14 -108q0 -54 33 -54z" />
    <glyph glyph-name="p" unicode="p" horiz-adv-x="342" 
d="M-48 -190q76 51 103 187q42 212 50 235q49 129 188 177l76 26l16 -13l51 16q22 -25 22 -68q0 -5 -1 -20t-3 -39l-35 -12q-10 -62 -32 -116t-52.5 -93.5t-68.5 -62t-80 -22.5q-25 0 -55 9q-5 -50 -19 -85l39 13q-15 -34 -31.5 -58t-36.5 -41.5t-46.5 -30t-62.5 -22.5
q12 11 22 20.5t20 20.5zM183 24q28 0 57.5 27.5t53 72t38.5 100t15 112.5q0 55 -34 55q-30 0 -59.5 -30.5t-52.5 -77.5t-37 -103t-14 -108q0 -48 33 -48z" />
    <glyph glyph-name="q" unicode="q" horiz-adv-x="346" 
d="M170 -213l7 32l-35 -10q10 74 87 194l-139 -41q-45 10 -45 90l36 13q4 64 21.5 120.5t45.5 102t66.5 77.5t84.5 47q10 3 30 8.5t47 14.5l9 -8l60 20q11 -28 11 -66q0 -10 -1 -28.5t-1 -28.5l-26 -8q-5 -45 -16.5 -84.5t-27.5 -74.5q-6 -15 -24.5 -44t-40 -64t-43 -71.5
t-33.5 -65.5l44 13q-17 -28 -26.5 -56.5t-13.5 -57.5zM193 18q23 0 51 24t52.5 66t41 100.5t16.5 127.5q0 55 -34 55q-30 0 -59.5 -30t-52 -76.5t-36.5 -103t-14 -109.5q0 -54 35 -54z" />
    <glyph glyph-name="r" unicode="r" horiz-adv-x="331" 
d="M75 -48l23 45l-46 -15q42 90 70.5 158.5t45.5 119.5l-38 -10q31 86 31 124q0 5 -0.5 11t-1.5 11l78 25q1 -5 1.5 -10.5t0.5 -10.5t-0.5 -9t-1.5 -9l39 13l-11 -48q16 13 36.5 27t40 25.5t37 18.5t28.5 7q14 0 22 -9l28 9q7 -10 7 -27q0 -27 -25 -93l-77 -24l13 38l-27 -9
q0 6 1 15t2 19t2 18.5t1 14.5q0 13 -4 17q-35 -17 -61.5 -50t-48.5 -77t-41.5 -94.5t-38.5 -101.5l39 12q-15 -48 -45 -106z" />
    <glyph glyph-name="s" unicode="s" horiz-adv-x="315" 
d="M236 -14q-19 -10 -41.5 -21.5t-49.5 -23.5q-31 8 -42 44l-38 -17q-16 22 -16 58q0 9 1 20t3 25l77 36q-2 -13 -3 -23.5t-2 -19.5l35 16q9 -74 51 -98q67 40 67 88q0 14 -4.5 27.5t-16.5 28.5t-32 33t-50 42q-29 22 -36.5 30.5t-7.5 13.5q0 38 30.5 71.5t105.5 66.5l-4 11
l76 36l18 -46l37 18q10 -14 13 -42t5 -55l-74 -36q-1 5 -2 11.5t-2 14.5l-32 -14q0 50 -32 94q-36 -28 -50 -50.5t-14 -43.5q0 -5 7.5 -12.5t35.5 -28.5q57 -43 79.5 -72.5t22.5 -60.5q0 -55 -84 -101z" />
    <glyph glyph-name="t" unicode="t" horiz-adv-x="237" 
d="M79 -39l24 40l-34 -11q23 39 44.5 87t43.5 105l75 196q-15 1 -26.5 1h-19.5q-42 0 -72 -3q31 10 48.5 16t28 9t17 4t14.5 1h20l17 38l-48 -16q7 12 16.5 33.5t19 44t17.5 41t11 24.5l79 26l-18 -39l39 12q-4 -18 -14.5 -45t-21.5 -53.5t-20 -45.5t-9 -20q10 -1 18.5 -1
h15.5q25 0 49.5 1.5t49.5 5.5q-47 -15 -82 -23.5t-61 -10.5q-17 -43 -41.5 -107t-59.5 -149l44 13q-13 -29 -37 -69.5t-49 -80.5z" />
    <glyph glyph-name="u" unicode="u" horiz-adv-x="349" 
d="M232 -68l20 40l-36 -11l17 36l-61 -21q-36 -12 -63 -12q-41 0 -41 35q0 30 94 267l-55 -18q9 20 22 48.5t25.5 54.5t21 44t8.5 17l77 25l-19 -40l44 14q-26 -67 -51.5 -133t-45.5 -120t-32.5 -90.5t-12.5 -43.5q0 -34 28 -34q32 0 70 28q150 321 151 378l77 25
q-2 -56 -127 -331l39 13q-5 -15 -13.5 -33.5t-20.5 -40.5l-38 -72z" />
    <glyph glyph-name="v" unicode="v" horiz-adv-x="352" 
d="M420 163q-6 -11 -17.5 -31t-31.5 -46q-23 -31 -39.5 -46t-31.5 -22.5t-33 -11.5t-44 -12q-84 -25 -88 -25q-4 24 -5.5 46.5t-1.5 43.5q0 92 39 203l-32 -11v11q0 34 24 79l44 71l78 26l-27 -44l41 13q-90 -188 -90 -328q0 -17 1.5 -34t3.5 -34q32 25 59.5 66.5t52 93
t46.5 109.5t44 117l78 25q-2 -4 -13 -36.5t-27 -75.5t-34 -87t-32 -71z" />
    <glyph glyph-name="w" unicode="w" horiz-adv-x="544" 
d="M584 130q-11 -27 -26.5 -48.5t-38.5 -39t-56 -32t-78 -27.5l40 26l-82 -27q-3 21 -3 43q0 20 2 42t6 47q-17 -26 -31.5 -44t-35.5 -32t-52 -27t-81 -29q-5 25 -6.5 49t-1.5 47q0 46 7 90t20 88l-34 -12q-1 3 -1 11q0 32 24 79l43 71l79 26l-27 -45l43 14
q-77 -159 -77 -298q0 -18 1.5 -37t3.5 -39q35 27 64.5 69t52.5 99l70 196l79 25q-76 -180 -76 -319q0 -18 2 -35.5t4 -34.5q35 27 64 69t52 99l71 196l78 25q0 -3 -11.5 -37t-28.5 -80.5t-37.5 -94.5t-39.5 -78z" />
    <glyph glyph-name="x" unicode="x" horiz-adv-x="364" 
d="M315 -12l-14 12l-49 -16q-36 77 -54 142l-76 -88q-37 -31 -105 -50q14 13 39 40.5t51.5 57t49.5 55t33 35.5q-2 17 -3.5 34.5t-1.5 35.5v18t1 18l-37 -13v13q0 30 6.5 66t21.5 79l78 25l-13 -40l39 13q-19 -83 -19 -158v-19q39 39 70 72.5t56 60.5l80 26
q-26 -29 -76 -81.5t-125 -128.5q7 -50 27 -103l45 13q12 -58 55 -95z" />
    <glyph glyph-name="y" unicode="y" horiz-adv-x="369" 
d="M187 -163q-48 -24 -77.5 -31.5t-57.5 -7.5q-19 0 -28 9l-24 -8q-30 7 -30 55q0 9 1.5 18t3.5 19l77 25l-3 -19l32 11q-1 -5 -1 -14q0 -13 3.5 -25.5t9.5 -23t14 -17t17 -6.5q41 0 83 81q14 27 28 56.5t23 61.5q-9 -4 -36.5 -14t-73.5 -25q-4 24 -5.5 47.5t-1.5 46.5
q0 48 7 94.5t21 92.5l-34 -12v10q0 34 21.5 72t46.5 79l78 26l-27 -44l41 13q-77 -163 -77 -306q0 -18 1 -36.5t3 -38.5q71 55 119 171l71 200l78 25q-5 -11 -16 -42.5t-24 -69t-26.5 -73.5t-22.5 -55h1q-9 -23 -26 -60t-35 -73.5t-32.5 -66.5t-17.5 -39l37 12
q-48 -120 -177 -156z" />
    <glyph glyph-name="z" unicode="z" horiz-adv-x="403" 
d="M365 46q-20 -57 -81.5 -100t-174.5 -82l-148 -47l119 53q94 42 137 85t43 97q0 47 -64 56q40 19 77 45.5t65 57t44.5 63t16.5 62.5q0 28 -21 48.5t-50 20.5q-13 0 -26.5 -4t-24.5 -11.5t-18 -17t-7 -19.5q0 -20 23 -52l-78 -25l-11 16l-41 -13q-14 12 -14 32
q0 22 15 45.5t35 32.5l81 26q-12 -11 -20.5 -20t-15.5 -17l87 34q26 9 48.5 13t40.5 4q38 0 54 -19l54 18q13 -18 13 -42q0 -16 -6.5 -35.5t-17.5 -42.5l-40 -14q-51 -103 -178 -159q56 -11 56 -62q0 -20 -8 -39z" />
    <glyph glyph-name="nonbreakingspace" unicode="&#xa0;" horiz-adv-x="166" 
 />
    <glyph glyph-name="exclamdown" unicode="&#xa1;" horiz-adv-x="183" 
d="M37 -142l-6 -19l-79 -25q12 24 28 61t36 88l46 15q18 48 44 120t61 169l34 11l7 44l77 24q0 -62 -40 -153l-39 -12q-24 -69 -40.5 -115t-30 -79t-26.5 -59.5t-29 -56.5zM230 367q-3 14 -5.5 30t-8.5 28l78 25q7 -11 9 -27.5t5 -30.5z" />
    <glyph glyph-name="dieresis" unicode="&#xa8;" horiz-adv-x="525" 
d="M637 497q-5 -11 -11 -20.5t-12 -18.5l-80 -26q34 45 55 122l39 11q3 11 5 19.5t4 16.5l77 25q-8 -47 -46 -119zM481 497q-5 -11 -11 -20.5t-12 -18.5l-80 -26q34 45 55 122l39 11q3 11 5 19.5t4 16.5l77 25q-8 -47 -46 -119z" />
    <glyph glyph-name="copyright" unicode="&#xa9;" horiz-adv-x="574" 
d="M405 -1q-52 0 -98 20t-80 54t-53.5 79.5t-19.5 97.5t19.5 97.5t53.5 80t80 54.5t98 20t97.5 -20t79.5 -54.5t54 -80t20 -97.5t-20 -97.5t-54 -79.5t-79.5 -54t-97.5 -20zM629 249q0 46 -17.5 87t-48 71.5t-71.5 48.5t-87 18t-86 -18t-70 -48.5t-47.5 -71.5t-17.5 -87
t17.5 -86.5t47.5 -70.5t70 -47.5t86 -17.5t87 17.5t71.5 47.5t48 70.5t17.5 86.5zM503 146q-35 -56 -102 -56q-27 0 -50 12t-40 33t-26.5 49.5t-9.5 61.5q0 34 8.5 63t25 50t40 33t52.5 12q70 0 104 -61l-47 -30q-22 32 -57 32q-32 0 -51 -25.5t-19 -73.5q0 -43 20.5 -70
t50.5 -27q16 0 30.5 7.5t25.5 20.5z" />
    <glyph glyph-name="ordfeminine" unicode="&#xaa;" horiz-adv-x="356" 
d="M306 267q-7 7 -7 19q0 4 1 8.5t2 10.5q-9 -5 -21 -10.5t-24 -10t-23.5 -7.5t-18.5 -3q-10 0 -14 4l-21 -6q-7 3 -9.5 10t-2.5 15q0 20 12 44l26 8l32 99q8 18 18 30.5t26 22.5t39 18.5t58 18.5l17 6l6 -14l32 10q-2 -28 -6 -48.5t-9 -33.5l-24 -7l-29 -75
q-21 -50 -20 -76q0 -13 6 -17zM320 352q44 104 44 147q0 22 -15 22q-4 0 -10.5 -1t-15.5 -8.5t-20 -23t-25 -45.5q-40 -89 -40 -127q0 -23 11 -23q5 0 14 3.5t18 8.5t17 10.5t11 9.5z" />
    <glyph glyph-name="guillemotleft" unicode="&#xab;" horiz-adv-x="417" 
d="M216 90q-39 61 -93 102l96 80q40 33 63 49.5t27 19.5q1 1 21.5 7t61.5 20q-32 -24 -78.5 -62t-109.5 -89q25 -20 47.5 -45t42.5 -57zM374 119q-39 61 -93 102l96 80q40 33 63 49.5t27 19.5q1 1 21.5 7t61.5 20q-32 -24 -78.5 -62t-109.5 -89q25 -20 47.5 -45t42.5 -57z
" />
    <glyph glyph-name="registered" unicode="&#xae;" horiz-adv-x="488" 
d="M535 319q0 28 -13 56t-36.5 50t-55.5 35.5t-69 13.5q-39 0 -69.5 -13.5t-51.5 -35.5t-32 -50t-11 -56q0 -29 11 -57t32 -50t51.5 -35.5t69.5 -13.5q36 0 67.5 12t55 33t37.5 49.5t14 61.5zM567 319q0 -38 -15.5 -72.5t-43 -61t-65 -42t-81.5 -15.5q-45 0 -82 15.5t-64 42
t-42 61t-15 72.5q0 39 15 73.5t42 61t64 41.5t82 15q44 0 81.5 -14.5t65 -40.5t43 -61t15.5 -75zM373 330q22 0 22 23q0 24 -22 24h-34v-47h34zM396 212l-35 76h-22v-76h-41v207h74q29 0 46.5 -17t17.5 -49q0 -21 -8 -33.5t-26 -25.5l37 -82h-43z" />
    <glyph glyph-name="macron" unicode="&#xaf;" horiz-adv-x="525" 
d="M423 535q14 11 25.5 20.5t28 17t42.5 13t69 8.5l156 11q-15 -11 -26.5 -20.5t-28 -17t-42.5 -13.5t-68 -9z" />
    <glyph glyph-name="acute" unicode="&#xb4;" horiz-adv-x="460" 
d="M508 491l-1 5q76 34 156 143l74 27q-30 -39 -51 -64.5t-38.5 -42t-34 -26t-37.5 -17.5z" />
    <glyph glyph-name="periodcentered" unicode="&#xb7;" horiz-adv-x="150" 
d="M125 269v32q0 8 -0.5 14.5t-0.5 11.5v5l77 25v-5q0 -5 0.5 -12t0.5 -15v-31z" />
    <glyph glyph-name="cedilla" unicode="&#xb8;" horiz-adv-x="182" 
d="M180 -72q0 -1 1.5 -7.5t3.5 -15.5t3.5 -17.5t1.5 -14.5q0 -11 -8 -20.5t-26.5 -19.5t-50 -21t-78.5 -25q86 41 86 61q0 6 -1.5 15.5t-3.5 18t-3.5 14.5t-1.5 7z" />
    <glyph glyph-name="ordmasculine" unicode="&#xba;" horiz-adv-x="337" 
d="M218 260l-15 12l-17 -5q-29 9 -29 44q0 7 3 15l25 9q5 46 18 80t32.5 59t45.5 41.5t57 27.5l34 13l18 -15l39 13q2 -6 2 -12v-12q0 -29 -11 -57l-17 -5q-23 -153 -135 -193zM254 289q19 0 37.5 18.5t33.5 47.5t24 65t9 71q0 36 -21 36q-20 0 -38.5 -19.5t-33 -49.5
t-23.5 -66t-9 -69q0 -34 21 -34z" />
    <glyph glyph-name="guillemotright" unicode="&#xbb;" horiz-adv-x="420" 
d="M80 160q73 24 194 106q-2 2 -17 15t-34 31t-37.5 37.5t-28.5 34.5l79 26q8 -14 26.5 -33t38 -37.5t35 -33t18.5 -17.5q-126 -84 -274 -132v3zM250 177q73 24 194 106q-2 2 -17 15t-34 31t-37.5 37.5t-28.5 34.5l79 26q8 -14 26.5 -33t38 -37.5t35 -33t18.5 -17.5
q-126 -84 -274 -132v3z" />
    <glyph glyph-name="questiondown" unicode="&#xbf;" horiz-adv-x="336" 
d="M199 -144q11 13 19 26t16 27l-92 -41q-26 -12 -49 -20.5t-43 -14.5q40 52 40 94q0 9 -2 25t-4.5 32t-5 29.5t-2.5 17.5l-22 -7q-15 8 -15 27q0 36 65 112q15 5 26.5 10t22.5 11t24.5 13.5t33.5 17.5l84 27q-145 -96 -145 -169q0 -9 3 -24.5t6.5 -32t6.5 -31.5t3 -23
q0 -38 -24 -80q31 13 54 23t40 15q16 34 20 59l77 25q-4 -29 -17.5 -60t-39.5 -63zM312 346q-3 8 -8 22t-10 33l78 25l17 -55z" />
    <glyph glyph-name="Agrave" unicode="&#xc0;" horiz-adv-x="739" 
d="M728 -9q-13 -5 -24.5 -7.5t-20.5 -2.5q-17 0 -28 7q-21 -12 -36 -12q-32 0 -32 51q0 65 47 191q-42 -7 -104 -9q-60 -68 -101 -112t-73.5 -74.5t-61 -52t-63.5 -44.5q46 -14 93 -38.5t94 -48t95 -41t96 -17.5q137 0 294 92q-70 -51 -136 -76.5t-129 -25.5q-35 0 -70.5 8
t-73.5 23q-12 4 -46.5 20t-76.5 35.5t-84 37t-68 24.5q-104 -68 -177 -68q-60 0 -60 38q0 12 9.5 23t25.5 19t38 12.5t46 4.5q55 0 123 -21q23 16 42.5 30t38.5 29.5t39 34.5t45 45t56.5 61t73.5 82l-39 -4q-147 -164 -337 -180q41 14 82.5 27.5t74.5 36.5l-79 -25
q173 99 306 279l-25 1q-36 -48 -57.5 -76.5t-37.5 -44.5t-31 -24t-37 -15q16 9 33.5 26.5t35.5 39.5t36.5 46.5t36.5 47.5h-17q-117 -154 -169 -169q78 61 159 170h-57q14 8 37 8q6 0 12 -0.5t12 -1.5q15 21 29.5 42t29 39t27.5 31t25 18q-7 -7 -31.5 -39.5t-68.5 -90.5
l16 -1q22 30 44.5 60t45 55.5t45.5 45t48 29.5q-55 -49 -161 -190h24q46 61 74.5 98.5t48.5 60t37 35.5t40 26l-149 -12q-83 -14 -109 -86l-78 -25q23 68 62 124l79 27l-29 -49q26 7 60 13.5t72 12.5t79 11l82 10l7 18q-8 32 -43.5 51t-80.5 19q-35 0 -56 -12.5t-21 -33.5
q0 -20 13 -20q16 0 24 14q-5 -21 -24 -21q-25 0 -25 22q0 26 27 41.5t64 15.5q24 0 46 -5t40 -14.5t30.5 -22.5t17.5 -28l67 21l-59 -142l-32 -11l-78 -219q-29 -78 -41.5 -130.5t-12.5 -81.5l40 14q8 -21 14 -33.5t12 -19.5t12.5 -9t15.5 -2q5 0 8 0.5t7 1.5v-3zM624 -69
q-38 0 -61 29.5t-23 71.5q0 38 22 57q-11 -25 -11 -54q0 -87 77 -104h-4zM532 222q52 57 86 98t56.5 75.5t37.5 67.5t30 74q-16 -17 -39 -44.5t-48.5 -60.5t-51.5 -67t-48.5 -64t-40 -52.5t-25.5 -31.5q8 1 18.5 2t24.5 3zM641 238q11 29 26.5 75.5t36.5 111.5
q-19 -32 -59 -81.5t-102 -118.5q39 7 63.5 10t34.5 3zM214 -80q-72 22 -127 22q-42 0 -67 -13t-25 -35q0 -19 17.5 -29t39.5 -10q60 0 162 65zM806 679q-79 10 -139 136l68 26q59 -125 146 -135z" />
    <glyph glyph-name="Aacute" unicode="&#xc1;" horiz-adv-x="739" 
d="M728 -9q-13 -5 -24.5 -7.5t-20.5 -2.5q-17 0 -28 7q-21 -12 -36 -12q-32 0 -32 51q0 65 47 191q-42 -7 -104 -9q-60 -68 -101 -112t-73.5 -74.5t-61 -52t-63.5 -44.5q46 -14 93 -38.5t94 -48t95 -41t96 -17.5q137 0 294 92q-70 -51 -136 -76.5t-129 -25.5q-35 0 -70.5 8
t-73.5 23q-12 4 -46.5 20t-76.5 35.5t-84 37t-68 24.5q-104 -68 -177 -68q-60 0 -60 38q0 12 9.5 23t25.5 19t38 12.5t46 4.5q55 0 123 -21q23 16 42.5 30t38.5 29.5t39 34.5t45 45t56.5 61t73.5 82l-39 -4q-147 -164 -337 -180q41 14 82.5 27.5t74.5 36.5l-79 -25
q173 99 306 279l-25 1q-36 -48 -57.5 -76.5t-37.5 -44.5t-31 -24t-37 -15q16 9 33.5 26.5t35.5 39.5t36.5 46.5t36.5 47.5h-17q-117 -154 -169 -169q78 61 159 170h-57q14 8 37 8q6 0 12 -0.5t12 -1.5q15 21 29.5 42t29 39t27.5 31t25 18q-7 -7 -31.5 -39.5t-68.5 -90.5
l16 -1q22 30 44.5 60t45 55.5t45.5 45t48 29.5q-55 -49 -161 -190h24q46 61 74.5 98.5t48.5 60t37 35.5t40 26l-149 -12q-83 -14 -109 -86l-78 -25q23 68 62 124l79 27l-29 -49q26 7 60 13.5t72 12.5t79 11l82 10l7 18q-5 17 -18 31t-33 23q-6 -3 -12.5 -6t-14.5 -5l-67 -25
l-1 4q16 7 31.5 17.5t32.5 24.5q-20 6 -42 6q-35 0 -56 -12.5t-21 -33.5q0 -20 13 -20q16 0 24 14q-5 -21 -24 -21q-25 0 -25 22q0 26 27 41.5t64 15.5q24 0 47 -6q22 19 42.5 42.5t42.5 52.5l73 27q-23 -30 -40.5 -51.5t-32 -37.5t-27 -26.5t-25.5 -17.5q43 -19 54 -53
l67 21l-59 -142l-32 -11l-78 -219q-29 -78 -41.5 -130.5t-12.5 -81.5l40 14q8 -21 14 -33.5t12 -19.5t12.5 -9t15.5 -2q5 0 8 0.5t7 1.5v-3zM214 -80q-72 22 -127 22q-42 0 -67 -13t-25 -35q0 -19 17.5 -29t39.5 -10q60 0 162 65zM532 222q52 57 86 98t56.5 75.5t37.5 67.5
t30 74q-16 -17 -39 -44.5t-48.5 -60.5t-51.5 -67t-48.5 -64t-40 -52.5t-25.5 -31.5q8 1 18.5 2t24.5 3zM641 238q11 29 26.5 75.5t36.5 111.5q-19 -32 -59 -81.5t-102 -118.5q39 7 63.5 10t34.5 3zM624 -69q-38 0 -61 29.5t-23 71.5q0 38 22 57q-11 -25 -11 -54
q0 -87 77 -104h-4z" />
    <glyph glyph-name="Acircumflex" unicode="&#xc2;" horiz-adv-x="739" 
d="M728 -9q-13 -5 -24.5 -7.5t-20.5 -2.5q-17 0 -28 7q-21 -12 -36 -12q-32 0 -32 51q0 65 47 191q-42 -7 -104 -9q-60 -68 -101 -112t-73.5 -74.5t-61 -52t-63.5 -44.5q46 -14 93 -38.5t94 -48t95 -41t96 -17.5q137 0 294 92q-70 -51 -136 -76.5t-129 -25.5q-35 0 -70.5 8
t-73.5 23q-12 4 -46.5 20t-76.5 35.5t-84 37t-68 24.5q-104 -68 -177 -68q-60 0 -60 38q0 12 9.5 23t25.5 19t38 12.5t46 4.5q55 0 123 -21q23 16 42.5 30t38.5 29.5t39 34.5t45 45t56.5 61t73.5 82l-39 -4q-147 -164 -337 -180q41 14 82.5 27.5t74.5 36.5l-79 -25
q173 99 306 279l-25 1q-36 -48 -57.5 -76.5t-37.5 -44.5t-31 -24t-37 -15q16 9 33.5 26.5t35.5 39.5t36.5 46.5t36.5 47.5h-17q-117 -154 -169 -169q78 61 159 170h-57q14 8 37 8q6 0 12 -0.5t12 -1.5q15 21 29.5 42t29 39t27.5 31t25 18q-7 -7 -31.5 -39.5t-68.5 -90.5
l16 -1q22 30 44.5 60t45 55.5t45.5 45t48 29.5q-55 -49 -161 -190h24q46 61 74.5 98.5t48.5 60t37 35.5t40 26l-149 -12q-83 -14 -109 -86l-78 -25q23 68 62 124l79 27l-29 -49q26 7 60 13.5t72 12.5t79 11l82 10l7 18q-8 26 -35.5 44.5t-63.5 23.5q-15 -8 -25 -12
q-17 -7 -32.5 -11t-27.5 -4q30 10 50 24l5 5q-33 -1 -52.5 -13.5t-19.5 -32.5t13 -20q16 0 24 14q-5 -21 -24 -21q-25 0 -25 22q0 26 27 41.5t64 15.5h2q11 10 19.5 21.5t17 25t18 30t22.5 36.5l68 25q0 -48 13.5 -91.5t54.5 -77.5l-71 -27q-42 36 -55 106q-23 -31 -58 -51
q38 -6 66.5 -23.5t36.5 -43.5l67 21l-59 -142l-32 -11l-78 -219q-29 -78 -41.5 -130.5t-12.5 -81.5l40 14q8 -21 14 -33.5t12 -19.5t12.5 -9t15.5 -2q5 0 8 0.5t7 1.5v-3zM214 -80q-72 22 -127 22q-42 0 -67 -13t-25 -35q0 -19 17.5 -29t39.5 -10q60 0 162 65zM532 222
q52 57 86 98t56.5 75.5t37.5 67.5t30 74q-16 -17 -39 -44.5t-48.5 -60.5t-51.5 -67t-48.5 -64t-40 -52.5t-25.5 -31.5q8 1 18.5 2t24.5 3zM641 238q11 29 26.5 75.5t36.5 111.5q-19 -32 -59 -81.5t-102 -118.5q39 7 63.5 10t34.5 3zM624 -69q-38 0 -61 29.5t-23 71.5
q0 38 22 57q-11 -25 -11 -54q0 -87 77 -104h-4z" />
    <glyph glyph-name="Atilde" unicode="&#xc3;" horiz-adv-x="739" 
d="M728 -9q-13 -5 -24.5 -7.5t-20.5 -2.5q-17 0 -28 7q-21 -12 -36 -12q-32 0 -32 51q0 65 47 191q-42 -7 -104 -9q-60 -68 -101 -112t-73.5 -74.5t-61 -52t-63.5 -44.5q46 -14 93 -38.5t94 -48t95 -41t96 -17.5q137 0 294 92q-70 -51 -136 -76.5t-129 -25.5q-35 0 -70.5 8
t-73.5 23q-12 4 -46.5 20t-76.5 35.5t-84 37t-68 24.5q-104 -68 -177 -68q-60 0 -60 38q0 12 9.5 23t25.5 19t38 12.5t46 4.5q55 0 123 -21q23 16 42.5 30t38.5 29.5t39 34.5t45 45t56.5 61t73.5 82l-39 -4q-147 -164 -337 -180q41 14 82.5 27.5t74.5 36.5l-79 -25
q173 99 306 279l-25 1q-36 -48 -57.5 -76.5t-37.5 -44.5t-31 -24t-37 -15q16 9 33.5 26.5t35.5 39.5t36.5 46.5t36.5 47.5h-17q-117 -154 -169 -169q78 61 159 170h-57q14 8 37 8q6 0 12 -0.5t12 -1.5q15 21 29.5 42t29 39t27.5 31t25 18q-7 -7 -31.5 -39.5t-68.5 -90.5
l16 -1q22 30 44.5 60t45 55.5t45.5 45t48 29.5q-55 -49 -161 -190h24q46 61 74.5 98.5t48.5 60t37 35.5t40 26l-149 -12q-83 -14 -109 -86l-78 -25q23 68 62 124l79 27l-29 -49q26 7 60 13.5t72 12.5t79 11l82 10l7 18q-8 32 -43.5 51t-80.5 19q-35 0 -56 -12.5t-21 -33.5
q0 -20 13 -20q16 0 24 14q-5 -21 -24 -21q-25 0 -25 22q0 26 27 41.5t64 15.5q24 0 46 -5t40 -14.5t30.5 -22.5t17.5 -28l67 21l-59 -142l-32 -11l-78 -219q-29 -78 -41.5 -130.5t-12.5 -81.5l40 14q8 -21 14 -33.5t12 -19.5t12.5 -9t15.5 -2q5 0 8 0.5t7 1.5v-3zM624 -69
q-38 0 -61 29.5t-23 71.5q0 38 22 57q-11 -25 -11 -54q0 -87 77 -104h-4zM532 222q52 57 86 98t56.5 75.5t37.5 67.5t30 74q-16 -17 -39 -44.5t-48.5 -60.5t-51.5 -67t-48.5 -64t-40 -52.5t-25.5 -31.5q8 1 18.5 2t24.5 3zM641 238q11 29 26.5 75.5t36.5 111.5
q-19 -32 -59 -81.5t-102 -118.5q39 7 63.5 10t34.5 3zM214 -80q-72 22 -127 22q-42 0 -67 -13t-25 -35q0 -19 17.5 -29t39.5 -10q60 0 162 65zM952 866q-5 -8 -11.5 -22.5t-12.5 -35.5q-9 -28 -16.5 -46.5t-15.5 -30t-17 -18t-20 -10.5q-72 -28 -81 -28q-16 0 -23.5 15.5
t-12 38t-8.5 47.5t-12 44q-35 -51 -35 -88v-6l-69 -25v4q0 15 6.5 35t17 39t23.5 34t27 20l68 25q6 2 10 2q22 0 33 -65q10 -71 24 -85q6 8 13 26.5t14.5 39t13.5 38.5t11 26z" />
    <glyph glyph-name="Adieresis" unicode="&#xc4;" horiz-adv-x="739" 
d="M728 -9q-13 -5 -24.5 -7.5t-20.5 -2.5q-17 0 -28 7q-21 -12 -36 -12q-32 0 -32 51q0 65 47 191q-42 -7 -104 -9q-60 -68 -101 -112t-73.5 -74.5t-61 -52t-63.5 -44.5q46 -14 93 -38.5t94 -48t95 -41t96 -17.5q137 0 294 92q-70 -51 -136 -76.5t-129 -25.5q-35 0 -70.5 8
t-73.5 23q-12 4 -46.5 20t-76.5 35.5t-84 37t-68 24.5q-104 -68 -177 -68q-60 0 -60 38q0 12 9.5 23t25.5 19t38 12.5t46 4.5q55 0 123 -21q23 16 42.5 30t38.5 29.5t39 34.5t45 45t56.5 61t73.5 82l-39 -4q-147 -164 -337 -180q41 14 82.5 27.5t74.5 36.5l-79 -25
q173 99 306 279l-25 1q-36 -48 -57.5 -76.5t-37.5 -44.5t-31 -24t-37 -15q16 9 33.5 26.5t35.5 39.5t36.5 46.5t36.5 47.5h-17q-117 -154 -169 -169q78 61 159 170h-57q14 8 37 8q6 0 12 -0.5t12 -1.5q15 21 29.5 42t29 39t27.5 31t25 18q-7 -7 -31.5 -39.5t-68.5 -90.5
l16 -1q22 30 44.5 60t45 55.5t45.5 45t48 29.5q-55 -49 -161 -190h24q46 61 74.5 98.5t48.5 60t37 35.5t40 26l-149 -12q-83 -14 -109 -86l-78 -25q23 68 62 124l79 27l-29 -49q26 7 60 13.5t72 12.5t79 11l82 10l7 18q-8 32 -43.5 51t-80.5 19q-35 0 -56 -12.5t-21 -33.5
q0 -20 13 -20q16 0 24 14q-5 -21 -24 -21q-25 0 -25 22q0 26 27 41.5t64 15.5q24 0 46 -5t40 -14.5t30.5 -22.5t17.5 -28l67 21l-59 -142l-32 -11l-78 -219q-29 -78 -41.5 -130.5t-12.5 -81.5l40 14q8 -21 14 -33.5t12 -19.5t12.5 -9t15.5 -2q5 0 8 0.5t7 1.5v-3zM624 -69
q-38 0 -61 29.5t-23 71.5q0 38 22 57q-11 -25 -11 -54q0 -87 77 -104h-4zM532 222q52 57 86 98t56.5 75.5t37.5 67.5t30 74q-16 -17 -39 -44.5t-48.5 -60.5t-51.5 -67t-48.5 -64t-40 -52.5t-25.5 -31.5q8 1 18.5 2t24.5 3zM641 238q11 29 26.5 75.5t36.5 111.5
q-19 -32 -59 -81.5t-102 -118.5q39 7 63.5 10t34.5 3zM214 -80q-72 22 -127 22q-42 0 -67 -13t-25 -35q0 -19 17.5 -29t39.5 -10q60 0 162 65zM818 692q-5 -11 -11 -20.5t-12 -18.5l-80 -26q34 45 55 122l39 11q3 11 5 19.5t4 16.5l77 25q-8 -47 -46 -119zM662 692
q-5 -11 -11 -20.5t-12 -18.5l-80 -26q34 45 55 122l39 11q3 11 5 19.5t4 16.5l77 25q-8 -47 -46 -119z" />
    <glyph glyph-name="Aring" unicode="&#xc5;" horiz-adv-x="739" 
d="M728 -9q-13 -5 -24.5 -7.5t-20.5 -2.5q-17 0 -28 7q-21 -12 -36 -12q-32 0 -32 51q0 65 47 191q-42 -7 -104 -9q-60 -68 -101 -112t-73.5 -74.5t-61 -52t-63.5 -44.5q46 -14 93 -38.5t94 -48t95 -41t96 -17.5q137 0 294 92q-70 -51 -136 -76.5t-129 -25.5q-35 0 -70.5 8
t-73.5 23q-12 4 -46.5 20t-76.5 35.5t-84 37t-68 24.5q-104 -68 -177 -68q-60 0 -60 38q0 12 9.5 23t25.5 19t38 12.5t46 4.5q55 0 123 -21q23 16 42.5 30t38.5 29.5t39 34.5t45 45t56.5 61t73.5 82l-39 -4q-147 -164 -337 -180q41 14 82.5 27.5t74.5 36.5l-79 -25
q173 99 306 279l-25 1q-36 -48 -57.5 -76.5t-37.5 -44.5t-31 -24t-37 -15q16 9 33.5 26.5t35.5 39.5t36.5 46.5t36.5 47.5h-17q-117 -154 -169 -169q78 61 159 170h-57q14 8 37 8q6 0 12 -0.5t12 -1.5q15 21 29.5 42t29 39t27.5 31t25 18q-7 -7 -31.5 -39.5t-68.5 -90.5
l16 -1q22 30 44.5 60t45 55.5t45.5 45t48 29.5q-55 -49 -161 -190h24q43 58 70 94t47 59t36 36t36 25q-6 1 -11 4l-127 -10q-83 -14 -109 -86l-78 -25q23 68 62 124l79 27l-29 -49q34 10 80 17.5t99 15.5q-17 12 -27 30t-10 40q0 31 13 55t32.5 42t44 30.5t48 20t42.5 11
t29 3.5q42 0 65 -29t23 -74q0 -89 -81 -120l-38 -92l-32 -11l-78 -219q-29 -78 -41.5 -130.5t-12.5 -81.5l40 14q8 -21 14 -33.5t12 -19.5t12.5 -9t15.5 -2q5 0 8 0.5t7 1.5v-3zM214 -80q-72 22 -127 22q-42 0 -67 -13t-25 -35q0 -19 17.5 -29t39.5 -10q60 0 162 65z
M532 222q52 57 86 98t56.5 75.5t37.5 67.5t30 74q-16 -17 -39 -44.5t-48.5 -60.5t-51.5 -67t-48.5 -64t-40 -52.5t-25.5 -31.5q8 1 18.5 2t24.5 3zM641 238q11 29 26.5 75.5t36.5 111.5q-19 -32 -59 -81.5t-102 -118.5q39 7 63.5 10t34.5 3zM624 -69q-38 0 -61 29.5
t-23 71.5q0 38 22 57q-11 -25 -11 -54q0 -87 77 -104h-4zM825 587q53 38 53 104q0 18 -5.5 34.5t-15 29.5t-22.5 20.5t-28 7.5q-18 0 -34.5 -9.5t-29 -24.5t-19.5 -33.5t-7 -36.5q0 -20 8.5 -37t22.5 -29t33 -19t39 -7h5z" />
    <glyph glyph-name="Ccedilla" unicode="&#xc7;" horiz-adv-x="511" 
d="M685 -34q-62 -19 -107.5 -32t-80 -22.5t-60 -15t-48 -8t-45 -3.5t-50.5 -1h-7q-19 -11 -50.5 -22t-79.5 -25q65 32 81 50q-176 23 -176 196q0 100 60 225q-18 13 -18 35q0 20 13 44t32.5 44.5t42 34.5t41.5 14h5q43 43 89 63q-41 -25 -81 -65q32 -13 32 -39
q0 -9 -5.5 -19.5t-14 -19t-18.5 -14.5t-19 -6q-10 0 -10 12v5.5t2 7.5q-1 -3 -1 -7q0 -8 6 -8q7 0 15 6.5t15 16t11.5 19t4.5 15.5q0 20 -21 28q-65 -67 -109 -162q7 -6 14.5 -8.5t15.5 -2.5q39 0 92 56l72 90q23 28 46 48t45 33q6 3 23.5 11t40.5 16.5t48 15t46 6.5
q37 0 68 -22l2 10l78 26q-13 -41 -30.5 -79t-39.5 -74l-79 -23q20 31 33.5 57t23.5 48h-3q-1 0 -12.5 3.5t-28 8t-34 8.5t-29.5 4q-142 0 -232 -289l54 4l38 101q23 59 32 101l26 9q-5 -23 -13 -49.5t-19 -56.5l-41 -103h23l24 62l12 5l-25 -68l23 -9q-8 -1 -13 -1.5
t-4 -0.5q-1 0 -9 2q-30 -74 -87 -225q7 -2 15.5 -3t16.5 -1q55 0 183 61q-17 -17 -47.5 -33t-66 -29t-70.5 -20.5t-61 -7.5q-28 0 -47 8q-22 -11 -41 -11q-26 0 -41.5 21t-15.5 52v13l52 17q5 136 89 283q-13 -15 -29 -29.5t-33.5 -25.5t-34.5 -17.5t-32 -6.5q-14 0 -23 4
q-55 -122 -55 -216q0 -84 43 -132t125 -60q0 1 0.5 2t0.5 2q0 6 -1.5 15.5t-3.5 18t-3.5 14.5t-1.5 7l77 25q0 -1 1 -6t3 -13q20 2 45 6.5t57 15.5l105 38q-21 -14 -48.5 -26.5t-55 -22.5t-53 -16t-41.5 -6h-7q2 -7 3 -13.5t1 -11.5q0 -17 -23 -33q41 0 89.5 6.5t105.5 21.5
zM294 250q-25 -79 -25 -137q0 -27 6 -45q10 23 27.5 69.5t43.5 118.5zM127 319q46 93 108 157q-17 0 -38 -13t-39 -32.5t-30 -41.5t-12 -41t11 -29zM392 256l-22 1l-81 -212l15 -14z" />
    <glyph glyph-name="Egrave" unicode="&#xc8;" 
d="M614 123q-21 -22 -47 -42t-60 -35q-11 -6 -29 -13.5t-40.5 -15.5t-49.5 -14t-57 -9q-61 -9 -89.5 -17.5t-44.5 -8.5q-57 0 -57 77l47 15q-1 5 -1 9.5v9.5q0 38 15 73t42.5 65t65.5 53t85 38q-50 30 -50 72q0 38 40 91q-12 -8 -29.5 -15t-37 -12.5t-38 -9t-33.5 -3.5
q-67 0 -67 53q0 19 17.5 39.5t42.5 37t53 27t49 10.5q42 0 42 -36q0 -14 -13.5 -30.5t-32.5 -30t-38.5 -22.5t-32.5 -9q-14 0 -14 11q0 13 18 28t38 20q-41 -21 -44 -47q3 -6 10 -6q11 0 28 9t32.5 22t26.5 27t11 24q0 33 -38 33q-20 0 -45 -9.5t-47 -24.5t-37 -33.5
t-15 -35.5q0 -51 70 -51q59 0 121 37l97 66q57 37 107 37q44 0 93 -26l6 20l78 26q-3 -13 -15 -45t-34 -84l-79 -25l28 61l-23 -7q-51 44 -100 44q-23 0 -43.5 -11.5t-36 -30.5t-24.5 -44t-9 -51q0 -30 12 -43l46 112l27 8l-57 -136q54 -40 89 -40q15 0 27 4
q-2 -7 -14 -14.5t-28 -13.5t-33.5 -10t-29.5 -4q-6 0 -14 2l-26 -70l39 5q-12 -6 -23 -8.5t-19 -2.5q-18 -48 -36 -92.5t-36 -86.5h15q95 0 169 84zM1025 -128q-92 -35 -175.5 -52t-160.5 -17q-164 0 -348 81q-116 -68 -199 -68q-40 0 -64 16t-24 39q0 29 33 46.5t80 17.5
q74 0 178 -43q45 27 85 57t75 62q-83 -42 -139 -42q-7 0 -12.5 0.5t-10.5 1.5q111 12 244 98q-64 -53 -98 -81.5t-55 -44t-38 -26t-45 -27.5q180 -79 323 -79q73 0 177 21zM441 272q-4 1 -7.5 2t-7.5 3l-34 -80l20 1zM405 285q-8 3 -15.5 4.5t-14.5 2.5q-51 -36 -83 -98
q20 0 39.5 0.5t37.5 1.5zM341 16q17 42 35 85.5t35 90.5l-20 -2q-41 -95 -69 -171zM366 190q-17 -1 -36 -1.5t-42 -0.5q-24 -50 -24 -90q0 -49 38 -71q14 37 30 77.5t34 85.5zM336 -114q-93 39 -162 39q-110 0 -110 -51q0 -10 9 -19t23 -15.5t31.5 -10.5t35.5 -4
q72 0 173 61zM642 597q-79 10 -139 136l68 26q59 -125 146 -135z" />
    <glyph glyph-name="Eacute" unicode="&#xc9;" 
d="M614 123q-21 -22 -47 -42t-60 -35q-11 -6 -29 -13.5t-40.5 -15.5t-49.5 -14t-57 -9q-61 -9 -89.5 -17.5t-44.5 -8.5q-57 0 -57 77l47 15q-1 5 -1 9.5v9.5q0 38 15 73t42.5 65t65.5 53t85 38q-50 30 -50 72q0 38 40 91q-12 -8 -29.5 -15t-37 -12.5t-38 -9t-33.5 -3.5
q-67 0 -67 53q0 19 17.5 39.5t42.5 37t53 27t49 10.5q42 0 42 -36q0 -14 -13.5 -30.5t-32.5 -30t-38.5 -22.5t-32.5 -9q-14 0 -14 11q0 13 18 28t38 20q-41 -21 -44 -47q3 -6 10 -6q11 0 28 9t32.5 22t26.5 27t11 24q0 33 -38 33q-20 0 -45 -9.5t-47 -24.5t-37 -33.5
t-15 -35.5q0 -51 70 -51q59 0 121 37l97 66q57 37 107 37q44 0 93 -26l6 20l78 26q-3 -13 -15 -45t-34 -84l-79 -25l28 61l-23 -7q-51 44 -100 44q-23 0 -43.5 -11.5t-36 -30.5t-24.5 -44t-9 -51q0 -30 12 -43l46 112l27 8l-57 -136q54 -40 89 -40q15 0 27 4
q-2 -7 -14 -14.5t-28 -13.5t-33.5 -10t-29.5 -4q-6 0 -14 2l-26 -70l39 5q-12 -6 -23 -8.5t-19 -2.5q-18 -48 -36 -92.5t-36 -86.5h15q95 0 169 84zM1025 -128q-92 -35 -175.5 -52t-160.5 -17q-164 0 -348 81q-116 -68 -199 -68q-40 0 -64 16t-24 39q0 29 33 46.5t80 17.5
q74 0 178 -43q45 27 85 57t75 62q-83 -42 -139 -42q-7 0 -12.5 0.5t-10.5 1.5q111 12 244 98q-64 -53 -98 -81.5t-55 -44t-38 -26t-45 -27.5q180 -79 323 -79q73 0 177 21zM441 272q-4 1 -7.5 2t-7.5 3l-34 -80l20 1zM405 285q-8 3 -15.5 4.5t-14.5 2.5q-51 -36 -83 -98
q20 0 39.5 0.5t37.5 1.5zM341 16q17 42 35 85.5t35 90.5l-20 -2q-41 -95 -69 -171zM366 190q-17 -1 -36 -1.5t-42 -0.5q-24 -50 -24 -90q0 -49 38 -71q14 37 30 77.5t34 85.5zM336 -114q-93 39 -162 39q-110 0 -110 -51q0 -10 9 -19t23 -15.5t31.5 -10.5t35.5 -4
q72 0 173 61zM524 599l-1 5q76 34 156 143l74 27q-30 -39 -51 -64.5t-38.5 -42t-34 -26t-37.5 -17.5z" />
    <glyph glyph-name="Ecircumflex" unicode="&#xca;" 
d="M614 123q-21 -22 -47 -42t-60 -35q-11 -6 -29 -13.5t-40.5 -15.5t-49.5 -14t-57 -9q-61 -9 -89.5 -17.5t-44.5 -8.5q-57 0 -57 77l47 15q-1 5 -1 9.5v9.5q0 38 15 73t42.5 65t65.5 53t85 38q-50 30 -50 72q0 38 40 91q-12 -8 -29.5 -15t-37 -12.5t-38 -9t-33.5 -3.5
q-67 0 -67 53q0 19 17.5 39.5t42.5 37t53 27t49 10.5q42 0 42 -36q0 -14 -13.5 -30.5t-32.5 -30t-38.5 -22.5t-32.5 -9q-14 0 -14 11q0 13 18 28t38 20q-41 -21 -44 -47q3 -6 10 -6q11 0 28 9t32.5 22t26.5 27t11 24q0 33 -38 33q-20 0 -45 -9.5t-47 -24.5t-37 -33.5
t-15 -35.5q0 -51 70 -51q59 0 121 37l97 66q57 37 107 37q44 0 93 -26l6 20l78 26q-3 -13 -15 -45t-34 -84l-79 -25l28 61l-23 -7q-51 44 -100 44q-23 0 -43.5 -11.5t-36 -30.5t-24.5 -44t-9 -51q0 -30 12 -43l46 112l27 8l-57 -136q54 -40 89 -40q15 0 27 4
q-2 -7 -14 -14.5t-28 -13.5t-33.5 -10t-29.5 -4q-6 0 -14 2l-26 -70l39 5q-12 -6 -23 -8.5t-19 -2.5q-18 -48 -36 -92.5t-36 -86.5h15q95 0 169 84zM1025 -128q-92 -35 -175.5 -52t-160.5 -17q-164 0 -348 81q-116 -68 -199 -68q-40 0 -64 16t-24 39q0 29 33 46.5t80 17.5
q74 0 178 -43q45 27 85 57t75 62q-83 -42 -139 -42q-7 0 -12.5 0.5t-10.5 1.5q111 12 244 98q-64 -53 -98 -81.5t-55 -44t-38 -26t-45 -27.5q180 -79 323 -79q73 0 177 21zM441 272q-4 1 -7.5 2t-7.5 3l-34 -80l20 1zM405 285q-8 3 -15.5 4.5t-14.5 2.5q-51 -36 -83 -98
q20 0 39.5 0.5t37.5 1.5zM341 16q17 42 35 85.5t35 90.5l-20 -2q-41 -95 -69 -171zM366 190q-17 -1 -36 -1.5t-42 -0.5q-24 -50 -24 -90q0 -49 38 -71q14 37 30 77.5t34 85.5zM336 -114q-93 39 -162 39q-110 0 -110 -51q0 -10 9 -19t23 -15.5t31.5 -10.5t35.5 -4
q72 0 173 61zM688 593q-21 18 -34 44.5t-21 61.5q-30 -42 -91 -67q-35 -16 -59 -16q16 5 27.5 11.5t22.5 13.5q15 10 25.5 22t20 27t20 33.5t24.5 41.5l69 25q0 -49 13 -92t54 -78z" />
    <glyph glyph-name="Edieresis" unicode="&#xcb;" 
d="M614 123q-21 -22 -47 -42t-60 -35q-11 -6 -29 -13.5t-40.5 -15.5t-49.5 -14t-57 -9q-61 -9 -89.5 -17.5t-44.5 -8.5q-57 0 -57 77l47 15q-1 5 -1 9.5v9.5q0 38 15 73t42.5 65t65.5 53t85 38q-50 30 -50 72q0 38 40 91q-12 -8 -29.5 -15t-37 -12.5t-38 -9t-33.5 -3.5
q-67 0 -67 53q0 19 17.5 39.5t42.5 37t53 27t49 10.5q42 0 42 -36q0 -14 -13.5 -30.5t-32.5 -30t-38.5 -22.5t-32.5 -9q-14 0 -14 11q0 13 18 28t38 20q-41 -21 -44 -47q3 -6 10 -6q11 0 28 9t32.5 22t26.5 27t11 24q0 33 -38 33q-20 0 -45 -9.5t-47 -24.5t-37 -33.5
t-15 -35.5q0 -51 70 -51q59 0 121 37l97 66q57 37 107 37q44 0 93 -26l6 20l78 26q-3 -13 -15 -45t-34 -84l-79 -25l28 61l-23 -7q-51 44 -100 44q-23 0 -43.5 -11.5t-36 -30.5t-24.5 -44t-9 -51q0 -30 12 -43l46 112l27 8l-57 -136q54 -40 89 -40q15 0 27 4
q-2 -7 -14 -14.5t-28 -13.5t-33.5 -10t-29.5 -4q-6 0 -14 2l-26 -70l39 5q-12 -6 -23 -8.5t-19 -2.5q-18 -48 -36 -92.5t-36 -86.5h15q95 0 169 84zM1025 -128q-92 -35 -175.5 -52t-160.5 -17q-164 0 -348 81q-116 -68 -199 -68q-40 0 -64 16t-24 39q0 29 33 46.5t80 17.5
q74 0 178 -43q45 27 85 57t75 62q-83 -42 -139 -42q-7 0 -12.5 0.5t-10.5 1.5q111 12 244 98q-64 -53 -98 -81.5t-55 -44t-38 -26t-45 -27.5q180 -79 323 -79q73 0 177 21zM441 272q-4 1 -7.5 2t-7.5 3l-34 -80l20 1zM405 285q-8 3 -15.5 4.5t-14.5 2.5q-51 -36 -83 -98
q20 0 39.5 0.5t37.5 1.5zM341 16q17 42 35 85.5t35 90.5l-20 -2q-41 -95 -69 -171zM366 190q-17 -1 -36 -1.5t-42 -0.5q-24 -50 -24 -90q0 -49 38 -71q14 37 30 77.5t34 85.5zM336 -114q-93 39 -162 39q-110 0 -110 -51q0 -10 9 -19t23 -15.5t31.5 -10.5t35.5 -4
q72 0 173 61zM709 657q-5 -11 -11 -20.5t-12 -18.5l-80 -26q34 45 55 122l39 11q3 11 5 19.5t4 16.5l77 25q-8 -47 -46 -119zM553 657q-5 -11 -11 -20.5t-12 -18.5l-80 -26q34 45 55 122l39 11q3 11 5 19.5t4 16.5l77 25q-8 -47 -46 -119z" />
    <glyph glyph-name="Igrave" unicode="&#xcc;" horiz-adv-x="774" 
d="M888 459q-14 -37 -32.5 -89t-43 -107.5t-56 -110t-71.5 -98t-89 -70t-109 -26.5q-51 0 -99 39l-78 74q-45 38 -86 38q-51 0 -117 -80q8 19 21.5 36t30.5 29.5t37 20t40 7.5q40 0 84 -41l78 -74q49 -39 102 -39q60 0 131 52q-93 -30 -134 -30q-21 0 -34 10.5t-22 24
t-16 26t-14 15.5l80 26q6 -3 12 -12.5t12 -20.5t12 -21t12 -14q43 76 77 171l-41 3q8 7 23 7q11 0 20 -3l16 57q10 41 25 46q-6 -24 -13 -49.5t-17 -53.5h15l56 147q-24 9 -46 9q-18 0 -31 -4q1 -3 1 -10q0 -15 -12 -29t-31 -24.5t-41 -17t-43 -6.5q-12 0 -17 1
q-71 -65 -71 -115q0 -21 13 -34t33 -13q12 0 24.5 5t23 13.5t17 20t6.5 25.5q0 11 -10 16t-20 5q-24 0 -24 -22q0 -13 16 -17q-5 -2 -9 -4t-8 -2q-11 0 -11 11q0 16 14 29t28 13q11 0 21.5 -7.5t10.5 -20.5q0 -14 -7.5 -27t-19.5 -23t-26.5 -15.5t-28.5 -5.5q-24 0 -39.5 14
t-15.5 37q0 51 76 120q-9 3 -16 11q-136 -112 -192 -112q-34 0 -34 41q0 15 5.5 32.5t14.5 32.5t20.5 25.5t24.5 12.5q-55 -38 -55 -90q0 -45 34 -45q49 0 179 109q-4 8 -4 21q0 18 7.5 38.5t20.5 41t31.5 40t41.5 34.5q21 16 51 27.5t60 11.5q91 0 129 -118q18 49 34 88.5
t30 70.5q-13 0 -40.5 1t-58.5 2.5t-59 2.5t-41 1q-102 0 -111 -17q12 -24 37 -28q-83 -27 -84 -27q-10 0 -19 12.5t-9 22.5q0 16 21 28t50.5 20t62.5 12t57 4q10 0 26.5 -0.5l33 -1t29.5 -1t16 -0.5q-7 2 -25.5 9.5t-43.5 18.5t-54.5 23t-59 22t-56.5 17t-47 7
q-32 0 -79 -15t-90.5 -40.5t-74.5 -60.5t-31 -74q0 -43 52 -43q20 0 41.5 7t39.5 18t30.5 26t14.5 32q-11 18 -27 18q-14 0 -27.5 -14t-16.5 -29q-1 2 -1 6q0 20 15.5 30.5t35.5 10.5q32 0 32 -19q0 -18 -15 -34.5t-37 -29t-48 -20.5t-47 -8q-55 0 -55 46q0 35 29 72t75 67
t102.5 49t112.5 19q24 0 43.5 -1.5t39 -7.5t41.5 -18t52 -33q28 -19 48.5 -30t43 -16t52.5 -6.5t77 -2.5l11 21l80 25q-21 -34 -37 -69t-29 -73zM1374 -149q-30 -11 -99 -11q-35 0 -80 3t-102 8l-351 41q-9 -23 -38.5 -43t-69.5 -35t-87 -23.5t-91 -8.5q-51 0 -82.5 11.5
t-31.5 30.5q0 11 11.5 23.5t32.5 22.5q43 20 91.5 31.5t99.5 11.5q18 0 56.5 -3t98.5 -10q3 6 3 14q0 41 -80 41q-37 0 -142 -18q48 14 83 28.5t64.5 33t55 42.5t54.5 57q-8 -19 -25.5 -39.5t-41.5 -40t-52.5 -36t-58.5 -28.5q17 2 33.5 3.5t31.5 1.5q88 0 88 -45
q0 -10 -1 -15l266 -34q79 -11 145.5 -15t122.5 -4q30 0 54 1.5t42 6.5v-3zM783 365q-6 26 -20 50.5t-32.5 43t-40 29.5t-41.5 11q-25 0 -50.5 -14t-42.5 -28q-18 -15 -35.5 -34.5t-31 -39t-22 -37.5t-8.5 -31q0 -12 3 -19q91 80 131 80q22 0 29 -20q25 9 46 9t35 -7
q5 13 7 18.5t5 7.5t8.5 4t17.5 7l-17 -47q25 -17 33 -54zM730 -107q-69 7 -110.5 10t-57.5 3q-44 0 -86.5 -10.5t-87.5 -29.5q-17 -7 -26 -20t-9 -21q0 -15 34 -23.5t88 -8.5q46 0 89 7t77.5 20t58 31.5t30.5 41.5zM608 20q31 9 94 144l-3 -1q9 11 22 42q-17 -2 -30 -4.5
t-25 -3.5q-20 -51 -38.5 -96t-36.5 -83zM668 203q12 1 25 3t30 4q25 56 25 65q0 35 -29 61zM610 353q-9 16 -26 16q-11 0 -24.5 -6.5t-28.5 -18t-31 -25.5t-32 -29q2 -4 5.5 -6.5t7.5 -5.5q64 56 129 75zM488 275q17 0 39 4.5t41.5 14.5t32.5 23.5t12 31.5
q-33 -14 -64 -32.5t-61 -41.5zM541 24q12 -5 27 -6q17 39 35.5 83t38.5 94h-16q-34 -100 -75 -169zM883 619q-79 10 -139 136l68 26q59 -125 146 -135z" />
    <glyph glyph-name="Iacute" unicode="&#xcd;" horiz-adv-x="774" 
d="M888 459q-14 -37 -32.5 -89t-43 -107.5t-56 -110t-71.5 -98t-89 -70t-109 -26.5q-51 0 -99 39l-78 74q-45 38 -86 38q-51 0 -117 -80q8 19 21.5 36t30.5 29.5t37 20t40 7.5q40 0 84 -41l78 -74q49 -39 102 -39q60 0 131 52q-93 -30 -134 -30q-21 0 -34 10.5t-22 24
t-16 26t-14 15.5l80 26q6 -3 12 -12.5t12 -20.5t12 -21t12 -14q43 76 77 171l-41 3q8 7 23 7q11 0 20 -3l16 57q10 41 25 46q-6 -24 -13 -49.5t-17 -53.5h15l56 147q-24 9 -46 9q-18 0 -31 -4q1 -3 1 -10q0 -15 -12 -29t-31 -24.5t-41 -17t-43 -6.5q-12 0 -17 1
q-71 -65 -71 -115q0 -21 13 -34t33 -13q12 0 24.5 5t23 13.5t17 20t6.5 25.5q0 11 -10 16t-20 5q-24 0 -24 -22q0 -13 16 -17q-5 -2 -9 -4t-8 -2q-11 0 -11 11q0 16 14 29t28 13q11 0 21.5 -7.5t10.5 -20.5q0 -14 -7.5 -27t-19.5 -23t-26.5 -15.5t-28.5 -5.5q-24 0 -39.5 14
t-15.5 37q0 51 76 120q-9 3 -16 11q-136 -112 -192 -112q-34 0 -34 41q0 15 5.5 32.5t14.5 32.5t20.5 25.5t24.5 12.5q-55 -38 -55 -90q0 -45 34 -45q49 0 179 109q-4 8 -4 21q0 18 7.5 38.5t20.5 41t31.5 40t41.5 34.5q21 16 51 27.5t60 11.5q91 0 129 -118q18 49 34 88.5
t30 70.5q-13 0 -40.5 1t-58.5 2.5t-59 2.5t-41 1q-102 0 -111 -17q12 -24 37 -28q-83 -27 -84 -27q-10 0 -19 12.5t-9 22.5q0 16 21 28t50.5 20t62.5 12t57 4q10 0 26.5 -0.5l33 -1t29.5 -1t16 -0.5q-7 2 -25.5 9.5t-43.5 18.5t-54.5 23t-59 22t-56.5 17t-47 7
q-32 0 -79 -15t-90.5 -40.5t-74.5 -60.5t-31 -74q0 -43 52 -43q20 0 41.5 7t39.5 18t30.5 26t14.5 32q-11 18 -27 18q-14 0 -27.5 -14t-16.5 -29q-1 2 -1 6q0 20 15.5 30.5t35.5 10.5q32 0 32 -19q0 -18 -15 -34.5t-37 -29t-48 -20.5t-47 -8q-55 0 -55 46q0 35 29 72t75 67
t102.5 49t112.5 19q24 0 43.5 -1.5t39 -7.5t41.5 -18t52 -33q28 -19 48.5 -30t43 -16t52.5 -6.5t77 -2.5l11 21l80 25q-21 -34 -37 -69t-29 -73zM1374 -149q-30 -11 -99 -11q-35 0 -80 3t-102 8l-351 41q-9 -23 -38.5 -43t-69.5 -35t-87 -23.5t-91 -8.5q-51 0 -82.5 11.5
t-31.5 30.5q0 11 11.5 23.5t32.5 22.5q43 20 91.5 31.5t99.5 11.5q18 0 56.5 -3t98.5 -10q3 6 3 14q0 41 -80 41q-37 0 -142 -18q48 14 83 28.5t64.5 33t55 42.5t54.5 57q-8 -19 -25.5 -39.5t-41.5 -40t-52.5 -36t-58.5 -28.5q17 2 33.5 3.5t31.5 1.5q88 0 88 -45
q0 -10 -1 -15l266 -34q79 -11 145.5 -15t122.5 -4q30 0 54 1.5t42 6.5v-3zM783 365q-6 26 -20 50.5t-32.5 43t-40 29.5t-41.5 11q-25 0 -50.5 -14t-42.5 -28q-18 -15 -35.5 -34.5t-31 -39t-22 -37.5t-8.5 -31q0 -12 3 -19q91 80 131 80q22 0 29 -20q25 9 46 9t35 -7
q5 13 7 18.5t5 7.5t8.5 4t17.5 7l-17 -47q25 -17 33 -54zM730 -107q-69 7 -110.5 10t-57.5 3q-44 0 -86.5 -10.5t-87.5 -29.5q-17 -7 -26 -20t-9 -21q0 -15 34 -23.5t88 -8.5q46 0 89 7t77.5 20t58 31.5t30.5 41.5zM608 20q31 9 94 144l-3 -1q9 11 22 42q-17 -2 -30 -4.5
t-25 -3.5q-20 -51 -38.5 -96t-36.5 -83zM668 203q12 1 25 3t30 4q25 56 25 65q0 35 -29 61zM610 353q-9 16 -26 16q-11 0 -24.5 -6.5t-28.5 -18t-31 -25.5t-32 -29q2 -4 5.5 -6.5t7.5 -5.5q64 56 129 75zM488 275q17 0 39 4.5t41.5 14.5t32.5 23.5t12 31.5
q-33 -14 -64 -32.5t-61 -41.5zM541 24q12 -5 27 -6q17 39 35.5 83t38.5 94h-16q-34 -100 -75 -169zM778 600l-1 5q76 34 156 143l74 27q-30 -39 -51 -64.5t-38.5 -42t-34 -26t-37.5 -17.5z" />
    <glyph glyph-name="Icircumflex" unicode="&#xce;" horiz-adv-x="774" 
d="M888 459q-14 -37 -32.5 -89t-43 -107.5t-56 -110t-71.5 -98t-89 -70t-109 -26.5q-51 0 -99 39l-78 74q-45 38 -86 38q-51 0 -117 -80q8 19 21.5 36t30.5 29.5t37 20t40 7.5q40 0 84 -41l78 -74q49 -39 102 -39q60 0 131 52q-93 -30 -134 -30q-21 0 -34 10.5t-22 24
t-16 26t-14 15.5l80 26q6 -3 12 -12.5t12 -20.5t12 -21t12 -14q43 76 77 171l-41 3q8 7 23 7q11 0 20 -3l16 57q10 41 25 46q-6 -24 -13 -49.5t-17 -53.5h15l56 147q-24 9 -46 9q-18 0 -31 -4q1 -3 1 -10q0 -15 -12 -29t-31 -24.5t-41 -17t-43 -6.5q-12 0 -17 1
q-71 -65 -71 -115q0 -21 13 -34t33 -13q12 0 24.5 5t23 13.5t17 20t6.5 25.5q0 11 -10 16t-20 5q-24 0 -24 -22q0 -13 16 -17q-5 -2 -9 -4t-8 -2q-11 0 -11 11q0 16 14 29t28 13q11 0 21.5 -7.5t10.5 -20.5q0 -14 -7.5 -27t-19.5 -23t-26.5 -15.5t-28.5 -5.5q-24 0 -39.5 14
t-15.5 37q0 51 76 120q-9 3 -16 11q-136 -112 -192 -112q-34 0 -34 41q0 15 5.5 32.5t14.5 32.5t20.5 25.5t24.5 12.5q-55 -38 -55 -90q0 -45 34 -45q49 0 179 109q-4 8 -4 21q0 18 7.5 38.5t20.5 41t31.5 40t41.5 34.5q21 16 51 27.5t60 11.5q91 0 129 -118q18 49 34 88.5
t30 70.5q-13 0 -40.5 1t-58.5 2.5t-59 2.5t-41 1q-102 0 -111 -17q12 -24 37 -28q-83 -27 -84 -27q-10 0 -19 12.5t-9 22.5q0 16 21 28t50.5 20t62.5 12t57 4q10 0 26.5 -0.5l33 -1t29.5 -1t16 -0.5q-7 2 -25.5 9.5t-43.5 18.5t-54.5 23t-59 22t-56.5 17t-47 7
q-32 0 -79 -15t-90.5 -40.5t-74.5 -60.5t-31 -74q0 -43 52 -43q20 0 41.5 7t39.5 18t30.5 26t14.5 32q-11 18 -27 18q-14 0 -27.5 -14t-16.5 -29q-1 2 -1 6q0 20 15.5 30.5t35.5 10.5q32 0 32 -19q0 -18 -15 -34.5t-37 -29t-48 -20.5t-47 -8q-55 0 -55 46q0 35 29 72t75 67
t102.5 49t112.5 19q24 0 43.5 -1.5t39 -7.5t41.5 -18t52 -33q28 -19 48.5 -30t43 -16t52.5 -6.5t77 -2.5l11 21l80 25q-21 -34 -37 -69t-29 -73zM1374 -149q-30 -11 -99 -11q-35 0 -80 3t-102 8l-351 41q-9 -23 -38.5 -43t-69.5 -35t-87 -23.5t-91 -8.5q-51 0 -82.5 11.5
t-31.5 30.5q0 11 11.5 23.5t32.5 22.5q43 20 91.5 31.5t99.5 11.5q18 0 56.5 -3t98.5 -10q3 6 3 14q0 41 -80 41q-37 0 -142 -18q48 14 83 28.5t64.5 33t55 42.5t54.5 57q-8 -19 -25.5 -39.5t-41.5 -40t-52.5 -36t-58.5 -28.5q17 2 33.5 3.5t31.5 1.5q88 0 88 -45
q0 -10 -1 -15l266 -34q79 -11 145.5 -15t122.5 -4q30 0 54 1.5t42 6.5v-3zM783 365q-6 26 -20 50.5t-32.5 43t-40 29.5t-41.5 11q-25 0 -50.5 -14t-42.5 -28q-18 -15 -35.5 -34.5t-31 -39t-22 -37.5t-8.5 -31q0 -12 3 -19q91 80 131 80q22 0 29 -20q25 9 46 9t35 -7
q5 13 7 18.5t5 7.5t8.5 4t17.5 7l-17 -47q25 -17 33 -54zM730 -107q-69 7 -110.5 10t-57.5 3q-44 0 -86.5 -10.5t-87.5 -29.5q-17 -7 -26 -20t-9 -21q0 -15 34 -23.5t88 -8.5q46 0 89 7t77.5 20t58 31.5t30.5 41.5zM608 20q31 9 94 144l-3 -1q9 11 22 42q-17 -2 -30 -4.5
t-25 -3.5q-20 -51 -38.5 -96t-36.5 -83zM668 203q12 1 25 3t30 4q25 56 25 65q0 35 -29 61zM610 353q-9 16 -26 16q-11 0 -24.5 -6.5t-28.5 -18t-31 -25.5t-32 -29q2 -4 5.5 -6.5t7.5 -5.5q64 56 129 75zM488 275q17 0 39 4.5t41.5 14.5t32.5 23.5t12 31.5
q-33 -14 -64 -32.5t-61 -41.5zM541 24q12 -5 27 -6q17 39 35.5 83t38.5 94h-16q-34 -100 -75 -169zM924 617q-21 18 -34 44.5t-21 61.5q-30 -42 -91 -67q-35 -16 -59 -16q16 5 27.5 11.5t22.5 13.5q15 10 25.5 22t20 27t20 33.5t24.5 41.5l69 25q0 -49 13 -92t54 -78z" />
    <glyph glyph-name="Idieresis" unicode="&#xcf;" horiz-adv-x="774" 
d="M888 459q-14 -37 -32.5 -89t-43 -107.5t-56 -110t-71.5 -98t-89 -70t-109 -26.5q-51 0 -99 39l-78 74q-45 38 -86 38q-51 0 -117 -80q8 19 21.5 36t30.5 29.5t37 20t40 7.5q40 0 84 -41l78 -74q49 -39 102 -39q60 0 131 52q-93 -30 -134 -30q-21 0 -34 10.5t-22 24
t-16 26t-14 15.5l80 26q6 -3 12 -12.5t12 -20.5t12 -21t12 -14q43 76 77 171l-41 3q8 7 23 7q11 0 20 -3l16 57q10 41 25 46q-6 -24 -13 -49.5t-17 -53.5h15l56 147q-24 9 -46 9q-18 0 -31 -4q1 -3 1 -10q0 -15 -12 -29t-31 -24.5t-41 -17t-43 -6.5q-12 0 -17 1
q-71 -65 -71 -115q0 -21 13 -34t33 -13q12 0 24.5 5t23 13.5t17 20t6.5 25.5q0 11 -10 16t-20 5q-24 0 -24 -22q0 -13 16 -17q-5 -2 -9 -4t-8 -2q-11 0 -11 11q0 16 14 29t28 13q11 0 21.5 -7.5t10.5 -20.5q0 -14 -7.5 -27t-19.5 -23t-26.5 -15.5t-28.5 -5.5q-24 0 -39.5 14
t-15.5 37q0 51 76 120q-9 3 -16 11q-136 -112 -192 -112q-34 0 -34 41q0 15 5.5 32.5t14.5 32.5t20.5 25.5t24.5 12.5q-55 -38 -55 -90q0 -45 34 -45q49 0 179 109q-4 8 -4 21q0 18 7.5 38.5t20.5 41t31.5 40t41.5 34.5q21 16 51 27.5t60 11.5q91 0 129 -118q18 49 34 88.5
t30 70.5q-13 0 -40.5 1t-58.5 2.5t-59 2.5t-41 1q-102 0 -111 -17q12 -24 37 -28q-83 -27 -84 -27q-10 0 -19 12.5t-9 22.5q0 16 21 28t50.5 20t62.5 12t57 4q10 0 26.5 -0.5l33 -1t29.5 -1t16 -0.5q-7 2 -25.5 9.5t-43.5 18.5t-54.5 23t-59 22t-56.5 17t-47 7
q-32 0 -79 -15t-90.5 -40.5t-74.5 -60.5t-31 -74q0 -43 52 -43q20 0 41.5 7t39.5 18t30.5 26t14.5 32q-11 18 -27 18q-14 0 -27.5 -14t-16.5 -29q-1 2 -1 6q0 20 15.5 30.5t35.5 10.5q32 0 32 -19q0 -18 -15 -34.5t-37 -29t-48 -20.5t-47 -8q-55 0 -55 46q0 35 29 72t75 67
t102.5 49t112.5 19q24 0 43.5 -1.5t39 -7.5t41.5 -18t52 -33q28 -19 48.5 -30t43 -16t52.5 -6.5t77 -2.5l11 21l80 25q-21 -34 -37 -69t-29 -73zM1374 -149q-30 -11 -99 -11q-35 0 -80 3t-102 8l-351 41q-9 -23 -38.5 -43t-69.5 -35t-87 -23.5t-91 -8.5q-51 0 -82.5 11.5
t-31.5 30.5q0 11 11.5 23.5t32.5 22.5q43 20 91.5 31.5t99.5 11.5q18 0 56.5 -3t98.5 -10q3 6 3 14q0 41 -80 41q-37 0 -142 -18q48 14 83 28.5t64.5 33t55 42.5t54.5 57q-8 -19 -25.5 -39.5t-41.5 -40t-52.5 -36t-58.5 -28.5q17 2 33.5 3.5t31.5 1.5q88 0 88 -45
q0 -10 -1 -15l266 -34q79 -11 145.5 -15t122.5 -4q30 0 54 1.5t42 6.5v-3zM783 365q-6 26 -20 50.5t-32.5 43t-40 29.5t-41.5 11q-25 0 -50.5 -14t-42.5 -28q-18 -15 -35.5 -34.5t-31 -39t-22 -37.5t-8.5 -31q0 -12 3 -19q91 80 131 80q22 0 29 -20q25 9 46 9t35 -7
q5 13 7 18.5t5 7.5t8.5 4t17.5 7l-17 -47q25 -17 33 -54zM730 -107q-69 7 -110.5 10t-57.5 3q-44 0 -86.5 -10.5t-87.5 -29.5q-17 -7 -26 -20t-9 -21q0 -15 34 -23.5t88 -8.5q46 0 89 7t77.5 20t58 31.5t30.5 41.5zM608 20q31 9 94 144l-3 -1q9 11 22 42q-17 -2 -30 -4.5
t-25 -3.5q-20 -51 -38.5 -96t-36.5 -83zM668 203q12 1 25 3t30 4q25 56 25 65q0 35 -29 61zM610 353q-9 16 -26 16q-11 0 -24.5 -6.5t-28.5 -18t-31 -25.5t-32 -29q2 -4 5.5 -6.5t7.5 -5.5q64 56 129 75zM488 275q17 0 39 4.5t41.5 14.5t32.5 23.5t12 31.5
q-33 -14 -64 -32.5t-61 -41.5zM541 24q12 -5 27 -6q17 39 35.5 83t38.5 94h-16q-34 -100 -75 -169zM976 681q-5 -11 -11 -20.5t-12 -18.5l-80 -26q34 45 55 122l39 11q3 11 5 19.5t4 16.5l77 25q-8 -47 -46 -119zM820 681q-5 -11 -11 -20.5t-12 -18.5l-80 -26q34 45 55 122
l39 11q3 11 5 19.5t4 16.5l77 25q-8 -47 -46 -119z" />
    <glyph glyph-name="Eth" unicode="&#xd0;" horiz-adv-x="589" 
d="M700 426q-19 -73 -68 -142t-119.5 -127.5t-157 -103t-179.5 -67.5l-10 -20l-79 -25q3 6 14 25.5t23.5 43.5t24 48.5t14.5 39.5l51 16l99 232q-1 0 -1.5 -0.5t-1.5 -0.5q-22 -30 -44 -54t-42 -42q12 -6 25 -6q7 0 13 2q-16 -13 -23 -13q-5 0 -26 8q-63 -46 -114 -46
q-55 0 -55 55q0 31 15 61l-23 -7l24 9q13 25 32.5 43t40.5 18q23 0 42 -25q32 8 67.5 15t74.5 12q23 39 40 82.5t28 94.5l62 19h-99q82 30 180 30t147 -37l35 11q41 -12 41 -80q0 -10 -0.5 -27.5t-0.5 -24.5zM429 257q-23 -56 -44 -104t-42 -89q32 20 66.5 50t67 65t61.5 73
t50.5 74.5t34 69.5t12.5 59q0 108 -174 116q-8 -32 -24.5 -80t-42.5 -112l30 1l39 96l26 9q-8 -21 -18.5 -47t-23.5 -57l142 4q-22 -7 -52.5 -12t-66.5 -10q-10 -26 -19.5 -51t-19.5 -49l29 1q-18 -7 -28 -7h-3zM610 -183q-154 -58 -247 -58q-62 0 -129.5 24t-139.5 73
q-128 -41 -174 -41q-25 0 -29 10q1 16 9.5 31t22 25.5t29.5 17t31 6.5q57 0 122 -43q103 33 226.5 104t260.5 189q-38 -45 -91 -88t-116 -81.5t-134 -70.5t-144 -55q142 -94 251 -94q27 0 45 1t42 6t61.5 16t103.5 31v-3zM170 329q-29 -4 -55.5 -8t-49.5 -9q-11 -27 -11 -48
q0 -29 19 -45.5t48 -16.5q36 0 88 43q-6 5 -10.5 14t-8 19.5t-7 20.5t-6.5 18zM90 -142q-66 44 -113 44q-8 0 -14 -3q-5 -2 -15 -9t-20.5 -16.5t-18.5 -20.5t-8 -21q0 -6 8.5 -8.5t19.5 -2.5q24 0 64 9.5t97 27.5zM226 8q10 2 19 5t19 8q12 18 25.5 45t27 58.5t27 65
t25.5 65.5l-27 1q-17 -42 -43.5 -103.5t-63.5 -142.5zM218 254q44 39 79 90q-29 -2 -57 -5t-55 -8q1 -3 5 -9q9 -17 14 -37.5t14 -30.5zM327 54q22 43 44.5 93t46.5 109l-26 -1l-45 -112q-14 -34 -26.5 -60.5t-24.5 -46.5zM412 355l-30 -3l-38 -90l28 -1zM456 361
q-9 -3 -19 -3q-9 -23 -20 -47t-22 -50l25 1zM66 315q20 6 43.5 13.5t51.5 15.5q-17 19 -42 19q-15 0 -29 -14t-24 -34zM575 171q-38 -31 -80.5 -61.5t-82.5 -55t-72.5 -42t-51.5 -21.5q51 27 83 46.5t60.5 38t61 40.5t82.5 55z" />
    <glyph glyph-name="Ntilde" unicode="&#xd1;" horiz-adv-x="701" 
d="M510 -38v64q0 16 0.5 28t0.5 21q0 208 -68 270q-45 -157 -108.5 -249t-146.5 -125q8 6 16 13.5t16 15.5q-6 -4 -13 -8.5t-19.5 -10.5t-32 -13.5t-49.5 -17.5q15 7 40 22t51 34t49 40t35 40q17 31 34 68.5t34 81.5h-29q-6 -17 -14 -36t-17.5 -35.5t-20.5 -28.5t-23 -15
q13 18 26 48.5t27 66.5l-22 1q-22 -59 -35.5 -94.5t-22.5 -56t-16 -29t-17 -12.5q36 75 81 192l-55 3q9 6 28 6q7 0 14 -0.5t14 -1.5q16 46 41 101l9 3l-39 -105h22q41 89 55 147q-10 2 -21 3t-22 1q-50 0 -101 -20.5t-92 -54.5t-67 -77.5t-26 -88.5q0 -24 21.5 -40
t50.5 -16q11 0 23 2.5t22 8t16.5 13t6.5 17.5q0 26 -43 26q-22 0 -22 -13q0 -9 7.5 -14.5t17.5 -5.5h5q-8 -3 -15 -3q-9 0 -17 6t-8 15q0 21 51 21q37 0 37 -30q0 -11 -7.5 -19.5t-20 -15.5t-28.5 -10.5t-32 -3.5q-75 0 -75 58q0 48 27.5 93t71 80t97.5 56t108 21
q9 0 18.5 -0.5t17.5 -1.5q2 8 2.5 12t2.5 6t7.5 4t17.5 5l-7 -32l22 -9l21 80q16 57 41 65q-5 14 -22 14q-8 0 -25.5 -3t-50.5 -23q27 32 59 43.5t55 11.5q52 0 76.5 -71t24.5 -231q0 -11 -0.5 -27.5t-0.5 -39.5v-67v-26.5t1 -21.5l58 169q59 158 106.5 238t91.5 80
q7 4 30 11.5t66 21.5q-28 -24 -48 -50t-33 -52l-61 -20q-26 -41 -56.5 -102t-65.5 -144q-80 -185 -81 -253zM299 -86q-53 -89 -102 -89q-33 0 -33 35q0 15 8.5 26.5t22.5 20t32.5 13t39.5 4.5h13.5t13.5 -1q8 17 19.5 44.5t25.5 67.5q-17 -20 -38.5 -37.5t-45.5 -32
t-49 -24.5t-47 -14q22 4 49.5 18t54 32.5t49.5 40.5t35 42l14 5l-25 -73q-8 -21 -16.5 -39t-16.5 -32q10 -1 85 -14.5t217 -39.5q91 -17 166.5 -24.5t136.5 -7.5q81 0 155.5 11.5t145.5 35.5q7 2 23.5 9.5t35.5 16t36.5 16t27.5 10.5q-179 -106 -419 -106q-128 0 -308 30z
M289 -84q-8 1 -14.5 1.5t-12.5 0.5q-20 0 -36 -6.5t-27 -16t-17.5 -21.5t-6.5 -23q0 -16 14 -16q10 0 23.5 7t27.5 18t27 26t22 30zM496 302q-9 111 -18 186q-8 -37 -15.5 -70t-15.5 -62q14 -11 26 -24t23 -30zM351 242q13 31 24.5 64t22.5 68l-21 9q-14 -52 -55 -141h29z
M572 497q40 -38 40 -130q0 -62 -18 -110q2 18 3.5 35.5t1.5 36.5q0 96 -27 168zM849 770q-5 -8 -11.5 -22.5t-12.5 -35.5q-9 -28 -16.5 -46.5t-15.5 -30t-17 -18t-20 -10.5q-72 -28 -81 -28q-16 0 -23.5 15.5t-12 38t-8.5 47.5t-12 44q-35 -51 -35 -88v-6l-69 -25v4
q0 15 6.5 35t17 39t23.5 34t27 20l68 25q6 2 10 2q22 0 33 -65q10 -71 24 -85q6 8 13 26.5t14.5 39t13.5 38.5t11 26z" />
    <glyph glyph-name="Ograve" unicode="&#xd2;" horiz-adv-x="704" 
d="M545 -22q9 0 31.5 6t48 13t49 13t35.5 6q15 0 27 -6q-11 -46 -73 -82q67 -18 133 -29.5t143 -19t172.5 -10.5t221.5 -3q-28 -11 -104 -11q-63 0 -150.5 5t-179.5 16q-61 8 -123 18.5t-125 27.5q-17 -7 -43.5 -14.5t-55 -14t-55 -10.5t-43.5 -4q-52 0 -57 26
q-15 -12 -34 -23t-39.5 -20t-40 -14t-35.5 -5q-37 0 -37 30q0 28 33 79q-11 -4 -25 -4q-20 0 -36 9q-65 -81 -146 -81q-44 0 -70 27t-26 72q0 46 31 104.5t85 117.5t126.5 113.5t155.5 91.5q-66 -37 -134.5 -89t-148.5 -123q25 20 43.5 24t36.5 4q35 0 35 -30
q0 -21 -10 -47.5t-27 -50.5t-39.5 -40t-47.5 -16q-29 0 -29 52q0 11 6 64q-70 -91 -70 -168q0 -43 24 -71.5t67 -28.5q71 0 132 82q-11 25 -11 59q0 31 12 65t33 66t49.5 60t61.5 49q35 69 75 116t81.5 78t83 47.5t80.5 25.5q-60 -23 -86 -57t-31 -90q7 24 12.5 36t11 17.5
t10.5 7t13 3.5l-43 -112l14 -20q2 6 5 15.5t7 19t9.5 17.5t13.5 10q-8 -15 -14.5 -31.5t-11.5 -36.5l26 -9q18 115 79 115q19 0 32.5 -13.5t13.5 -32.5q0 -61 -116 -76v-9q0 -52 63 -52q8 0 14.5 0.5t13.5 1.5q10 19 20.5 49t19 62.5t13.5 64.5t5 56q0 18 -2.5 27t-2.5 13
q0 9 3 16.5t9 10.5q-15 29 -48.5 40.5t-88.5 11.5h-34q83 28 132 28q53 0 89 -26l50 17q31 -25 31 -88v-8t-1 -9l-40 -13q-8 -379 -354 -491q-15 -5 -28.5 -7.5t-25.5 -2.5q-34 0 -55 21l-44 -13q-32 38 -32 87q0 7 0.5 14t1.5 14l43 14q0 76 28 159l-31 -16l-68 -152
q-20 -46 -39 -82.5t-39 -62.5q22 -16 34 -16q9 0 38 11q-37 -52 -37 -78q0 -31 39 -31q59 0 121 50q8 8 18 16.5t24.5 15t35.5 11t52 4.5q62 0 142 -21q56 34 67 76q-6 2 -12 2q-9 0 -36.5 -5.5t-58 -12.5t-58 -12.5t-37.5 -5.5q-27 0 -48 8q13 -3 29 -3q28 0 54 10t51.5 26
t50.5 36.5t51 41.5q-15 -20 -35.5 -38.5t-43 -33.5t-45.5 -26t-45 -15h4zM689 234q-41 -74 -102 -93q10 -7 10 -19q0 -13 -9 -25t-21.5 -21.5t-27 -15.5t-26.5 -6q-27 0 -43 21l18 -11q13 -5 22 -5q13 0 26 4.5t23.5 12.5t17.5 18.5t7 22.5q0 13 -9.5 17t-18.5 8
q23 4 39.5 10.5t30 17t25.5 25.5t24 36l-20 -4t-18 -2q-42 0 -55 27q-5 -2 -18.5 -3t-34.5 -2q-23 -59 -45 -110t-43 -96q23 -31 55 -31q23 0 53.5 21.5t61 55.5t57 75t41.5 79zM65 47q19 0 35.5 14t29 33.5t19.5 40t7 33.5q0 43 -39 43q-12 0 -27 -5.5t-28 -17.5t-22 -30.5
t-9 -43.5q0 -67 34 -67zM318 252q-26 -18 -52.5 -47.5t-47.5 -62t-34.5 -64.5t-13.5 -56q0 -25 14 -47q13 26 33.5 60t39.5 76zM645 -76q-81 21 -138 21q-42 0 -70.5 -11t-28.5 -28q0 -23 50 -23q15 0 41.5 4t55 10.5t53.5 13.5t37 13zM593 299q19 0 36 5.5t30 16t21 25
t8 32.5q0 31 -23 31q-9 0 -21 -7t-23 -20.5t-20 -34t-13 -48.5h5zM470 250q24 53 33 83t11.5 48.5t4.5 33t13 36.5q-73 -82 -103 -203zM491 246l-70 -161q5 -21 12 -34q21 44 42 93t42 103zM468 245l-41 -3q-5 -25 -8 -49t-3 -49v-17zM746 524q-2 -5 -2 -11q0 -5 1 -10
t1 -12q0 -151 -55 -253q15 3 26.5 32t19.5 67t12 77t4 60q0 18 -1.5 29.5t-5.5 20.5zM369 283q13 36 29.5 68.5t37.5 60.5q-27 -29 -51.5 -63.5t-45.5 -76.5q6 3 13.5 5.5zM581 255q-5 9 -5 23q0 10 1 15q-8 1 -15 2t-13 3q-5 -11 -9 -22t-9 -22q14 1 26 1h24zM519 252
q11 23 19 51q-10 8 -15 16q-8 -16 -14.5 -33t-13.5 -35zM763 633q-79 10 -139 136l68 26q59 -125 146 -135z" />
    <glyph glyph-name="Oacute" unicode="&#xd3;" horiz-adv-x="704" 
d="M545 -22q9 0 31.5 6t48 13t49 13t35.5 6q15 0 27 -6q-11 -46 -73 -82q67 -18 133 -29.5t143 -19t172.5 -10.5t221.5 -3q-28 -11 -104 -11q-63 0 -150.5 5t-179.5 16q-61 8 -123 18.5t-125 27.5q-17 -7 -43.5 -14.5t-55 -14t-55 -10.5t-43.5 -4q-52 0 -57 26
q-15 -12 -34 -23t-39.5 -20t-40 -14t-35.5 -5q-37 0 -37 30q0 28 33 79q-11 -4 -25 -4q-20 0 -36 9q-65 -81 -146 -81q-44 0 -70 27t-26 72q0 46 31 104.5t85 117.5t126.5 113.5t155.5 91.5q-66 -37 -134.5 -89t-148.5 -123q25 20 43.5 24t36.5 4q35 0 35 -30
q0 -21 -10 -47.5t-27 -50.5t-39.5 -40t-47.5 -16q-29 0 -29 52q0 11 6 64q-70 -91 -70 -168q0 -43 24 -71.5t67 -28.5q71 0 132 82q-11 25 -11 59q0 31 12 65t33 66t49.5 60t61.5 49q35 69 75 116t81.5 78t83 47.5t80.5 25.5q-60 -23 -86 -57t-31 -90q7 24 12.5 36t11 17.5
t10.5 7t13 3.5l-43 -112l14 -20q2 6 5 15.5t7 19t9.5 17.5t13.5 10q-8 -15 -14.5 -31.5t-11.5 -36.5l26 -9q18 115 79 115q19 0 32.5 -13.5t13.5 -32.5q0 -61 -116 -76v-9q0 -52 63 -52q8 0 14.5 0.5t13.5 1.5q10 19 20.5 49t19 62.5t13.5 64.5t5 56q0 18 -2.5 27t-2.5 13
q0 9 3 16.5t9 10.5q-15 29 -48.5 40.5t-88.5 11.5h-34q83 28 132 28q53 0 89 -26l50 17q31 -25 31 -88v-8t-1 -9l-40 -13q-8 -379 -354 -491q-15 -5 -28.5 -7.5t-25.5 -2.5q-34 0 -55 21l-44 -13q-32 38 -32 87q0 7 0.5 14t1.5 14l43 14q0 76 28 159l-31 -16l-68 -152
q-20 -46 -39 -82.5t-39 -62.5q22 -16 34 -16q9 0 38 11q-37 -52 -37 -78q0 -31 39 -31q59 0 121 50q8 8 18 16.5t24.5 15t35.5 11t52 4.5q62 0 142 -21q56 34 67 76q-6 2 -12 2q-9 0 -36.5 -5.5t-58 -12.5t-58 -12.5t-37.5 -5.5q-27 0 -48 8q13 -3 29 -3q28 0 54 10t51.5 26
t50.5 36.5t51 41.5q-15 -20 -35.5 -38.5t-43 -33.5t-45.5 -26t-45 -15h4zM689 234q-41 -74 -102 -93q10 -7 10 -19q0 -13 -9 -25t-21.5 -21.5t-27 -15.5t-26.5 -6q-27 0 -43 21l18 -11q13 -5 22 -5q13 0 26 4.5t23.5 12.5t17.5 18.5t7 22.5q0 13 -9.5 17t-18.5 8
q23 4 39.5 10.5t30 17t25.5 25.5t24 36l-20 -4t-18 -2q-42 0 -55 27q-5 -2 -18.5 -3t-34.5 -2q-23 -59 -45 -110t-43 -96q23 -31 55 -31q23 0 53.5 21.5t61 55.5t57 75t41.5 79zM65 47q19 0 35.5 14t29 33.5t19.5 40t7 33.5q0 43 -39 43q-12 0 -27 -5.5t-28 -17.5t-22 -30.5
t-9 -43.5q0 -67 34 -67zM318 252q-26 -18 -52.5 -47.5t-47.5 -62t-34.5 -64.5t-13.5 -56q0 -25 14 -47q13 26 33.5 60t39.5 76zM645 -76q-81 21 -138 21q-42 0 -70.5 -11t-28.5 -28q0 -23 50 -23q15 0 41.5 4t55 10.5t53.5 13.5t37 13zM593 299q19 0 36 5.5t30 16t21 25
t8 32.5q0 31 -23 31q-9 0 -21 -7t-23 -20.5t-20 -34t-13 -48.5h5zM470 250q24 53 33 83t11.5 48.5t4.5 33t13 36.5q-73 -82 -103 -203zM491 246l-70 -161q5 -21 12 -34q21 44 42 93t42 103zM468 245l-41 -3q-5 -25 -8 -49t-3 -49v-17zM746 524q-2 -5 -2 -11q0 -5 1 -10
t1 -12q0 -151 -55 -253q15 3 26.5 32t19.5 67t12 77t4 60q0 18 -1.5 29.5t-5.5 20.5zM369 283q13 36 29.5 68.5t37.5 60.5q-27 -29 -51.5 -63.5t-45.5 -76.5q6 3 13.5 5.5zM581 255q-5 9 -5 23q0 10 1 15q-8 1 -15 2t-13 3q-5 -11 -9 -22t-9 -22q14 1 26 1h24zM519 252
q11 23 19 51q-10 8 -15 16q-8 -16 -14.5 -33t-13.5 -35zM624 613l-1 5q76 34 156 143l74 27q-30 -39 -51 -64.5t-38.5 -42t-34 -26t-37.5 -17.5z" />
    <glyph glyph-name="Ocircumflex" unicode="&#xd4;" horiz-adv-x="704" 
d="M545 -22q9 0 31.5 6t48 13t49 13t35.5 6q15 0 27 -6q-11 -46 -73 -82q67 -18 133 -29.5t143 -19t172.5 -10.5t221.5 -3q-28 -11 -104 -11q-63 0 -150.5 5t-179.5 16q-61 8 -123 18.5t-125 27.5q-17 -7 -43.5 -14.5t-55 -14t-55 -10.5t-43.5 -4q-52 0 -57 26
q-15 -12 -34 -23t-39.5 -20t-40 -14t-35.5 -5q-37 0 -37 30q0 28 33 79q-11 -4 -25 -4q-20 0 -36 9q-65 -81 -146 -81q-44 0 -70 27t-26 72q0 46 31 104.5t85 117.5t126.5 113.5t155.5 91.5q-66 -37 -134.5 -89t-148.5 -123q25 20 43.5 24t36.5 4q35 0 35 -30
q0 -21 -10 -47.5t-27 -50.5t-39.5 -40t-47.5 -16q-29 0 -29 52q0 11 6 64q-70 -91 -70 -168q0 -43 24 -71.5t67 -28.5q71 0 132 82q-11 25 -11 59q0 31 12 65t33 66t49.5 60t61.5 49q35 69 75 116t81.5 78t83 47.5t80.5 25.5q-60 -23 -86 -57t-31 -90q7 24 12.5 36t11 17.5
t10.5 7t13 3.5l-43 -112l14 -20q2 6 5 15.5t7 19t9.5 17.5t13.5 10q-8 -15 -14.5 -31.5t-11.5 -36.5l26 -9q18 115 79 115q19 0 32.5 -13.5t13.5 -32.5q0 -61 -116 -76v-9q0 -52 63 -52q8 0 14.5 0.5t13.5 1.5q10 19 20.5 49t19 62.5t13.5 64.5t5 56q0 18 -2.5 27t-2.5 13
q0 9 3 16.5t9 10.5q-15 29 -48.5 40.5t-88.5 11.5h-34q83 28 132 28q53 0 89 -26l50 17q31 -25 31 -88v-8t-1 -9l-40 -13q-8 -379 -354 -491q-15 -5 -28.5 -7.5t-25.5 -2.5q-34 0 -55 21l-44 -13q-32 38 -32 87q0 7 0.5 14t1.5 14l43 14q0 76 28 159l-31 -16l-68 -152
q-20 -46 -39 -82.5t-39 -62.5q22 -16 34 -16q9 0 38 11q-37 -52 -37 -78q0 -31 39 -31q59 0 121 50q8 8 18 16.5t24.5 15t35.5 11t52 4.5q62 0 142 -21q56 34 67 76q-6 2 -12 2q-9 0 -36.5 -5.5t-58 -12.5t-58 -12.5t-37.5 -5.5q-27 0 -48 8q13 -3 29 -3q28 0 54 10t51.5 26
t50.5 36.5t51 41.5q-15 -20 -35.5 -38.5t-43 -33.5t-45.5 -26t-45 -15h4zM689 234q-41 -74 -102 -93q10 -7 10 -19q0 -13 -9 -25t-21.5 -21.5t-27 -15.5t-26.5 -6q-27 0 -43 21l18 -11q13 -5 22 -5q13 0 26 4.5t23.5 12.5t17.5 18.5t7 22.5q0 13 -9.5 17t-18.5 8
q23 4 39.5 10.5t30 17t25.5 25.5t24 36l-20 -4t-18 -2q-42 0 -55 27q-5 -2 -18.5 -3t-34.5 -2q-23 -59 -45 -110t-43 -96q23 -31 55 -31q23 0 53.5 21.5t61 55.5t57 75t41.5 79zM65 47q19 0 35.5 14t29 33.5t19.5 40t7 33.5q0 43 -39 43q-12 0 -27 -5.5t-28 -17.5t-22 -30.5
t-9 -43.5q0 -67 34 -67zM318 252q-26 -18 -52.5 -47.5t-47.5 -62t-34.5 -64.5t-13.5 -56q0 -25 14 -47q13 26 33.5 60t39.5 76zM645 -76q-81 21 -138 21q-42 0 -70.5 -11t-28.5 -28q0 -23 50 -23q15 0 41.5 4t55 10.5t53.5 13.5t37 13zM593 299q19 0 36 5.5t30 16t21 25
t8 32.5q0 31 -23 31q-9 0 -21 -7t-23 -20.5t-20 -34t-13 -48.5h5zM470 250q24 53 33 83t11.5 48.5t4.5 33t13 36.5q-73 -82 -103 -203zM491 246l-70 -161q5 -21 12 -34q21 44 42 93t42 103zM468 245l-41 -3q-5 -25 -8 -49t-3 -49v-17zM746 524q-2 -5 -2 -11q0 -5 1 -10
t1 -12q0 -151 -55 -253q15 3 26.5 32t19.5 67t12 77t4 60q0 18 -1.5 29.5t-5.5 20.5zM369 283q13 36 29.5 68.5t37.5 60.5q-27 -29 -51.5 -63.5t-45.5 -76.5q6 3 13.5 5.5zM581 255q-5 9 -5 23q0 10 1 15q-8 1 -15 2t-13 3q-5 -11 -9 -22t-9 -22q14 1 26 1h24zM519 252
q11 23 19 51q-10 8 -15 16q-8 -16 -14.5 -33t-13.5 -35zM789 619q-21 18 -34 44.5t-21 61.5q-30 -42 -91 -67q-35 -16 -59 -16q16 5 27.5 11.5t22.5 13.5q15 10 25.5 22t20 27t20 33.5t24.5 41.5l69 25q0 -49 13 -92t54 -78z" />
    <glyph glyph-name="Otilde" unicode="&#xd5;" horiz-adv-x="704" 
d="M545 -22q9 0 31.5 6t48 13t49 13t35.5 6q15 0 27 -6q-11 -46 -73 -82q67 -18 133 -29.5t143 -19t172.5 -10.5t221.5 -3q-28 -11 -104 -11q-63 0 -150.5 5t-179.5 16q-61 8 -123 18.5t-125 27.5q-17 -7 -43.5 -14.5t-55 -14t-55 -10.5t-43.5 -4q-52 0 -57 26
q-15 -12 -34 -23t-39.5 -20t-40 -14t-35.5 -5q-37 0 -37 30q0 28 33 79q-11 -4 -25 -4q-20 0 -36 9q-65 -81 -146 -81q-44 0 -70 27t-26 72q0 46 31 104.5t85 117.5t126.5 113.5t155.5 91.5q-66 -37 -134.5 -89t-148.5 -123q25 20 43.5 24t36.5 4q35 0 35 -30
q0 -21 -10 -47.5t-27 -50.5t-39.5 -40t-47.5 -16q-29 0 -29 52q0 11 6 64q-70 -91 -70 -168q0 -43 24 -71.5t67 -28.5q71 0 132 82q-11 25 -11 59q0 31 12 65t33 66t49.5 60t61.5 49q35 69 75 116t81.5 78t83 47.5t80.5 25.5q-60 -23 -86 -57t-31 -90q7 24 12.5 36t11 17.5
t10.5 7t13 3.5l-43 -112l14 -20q2 6 5 15.5t7 19t9.5 17.5t13.5 10q-8 -15 -14.5 -31.5t-11.5 -36.5l26 -9q18 115 79 115q19 0 32.5 -13.5t13.5 -32.5q0 -61 -116 -76v-9q0 -52 63 -52q8 0 14.5 0.5t13.5 1.5q10 19 20.5 49t19 62.5t13.5 64.5t5 56q0 18 -2.5 27t-2.5 13
q0 9 3 16.5t9 10.5q-15 29 -48.5 40.5t-88.5 11.5h-34q83 28 132 28q53 0 89 -26l50 17q31 -25 31 -88v-8t-1 -9l-40 -13q-8 -379 -354 -491q-15 -5 -28.5 -7.5t-25.5 -2.5q-34 0 -55 21l-44 -13q-32 38 -32 87q0 7 0.5 14t1.5 14l43 14q0 76 28 159l-31 -16l-68 -152
q-20 -46 -39 -82.5t-39 -62.5q22 -16 34 -16q9 0 38 11q-37 -52 -37 -78q0 -31 39 -31q59 0 121 50q8 8 18 16.5t24.5 15t35.5 11t52 4.5q62 0 142 -21q56 34 67 76q-6 2 -12 2q-9 0 -36.5 -5.5t-58 -12.5t-58 -12.5t-37.5 -5.5q-27 0 -48 8q13 -3 29 -3q28 0 54 10t51.5 26
t50.5 36.5t51 41.5q-15 -20 -35.5 -38.5t-43 -33.5t-45.5 -26t-45 -15h4zM689 234q-41 -74 -102 -93q10 -7 10 -19q0 -13 -9 -25t-21.5 -21.5t-27 -15.5t-26.5 -6q-27 0 -43 21l18 -11q13 -5 22 -5q13 0 26 4.5t23.5 12.5t17.5 18.5t7 22.5q0 13 -9.5 17t-18.5 8
q23 4 39.5 10.5t30 17t25.5 25.5t24 36l-20 -4t-18 -2q-42 0 -55 27q-5 -2 -18.5 -3t-34.5 -2q-23 -59 -45 -110t-43 -96q23 -31 55 -31q23 0 53.5 21.5t61 55.5t57 75t41.5 79zM65 47q19 0 35.5 14t29 33.5t19.5 40t7 33.5q0 43 -39 43q-12 0 -27 -5.5t-28 -17.5t-22 -30.5
t-9 -43.5q0 -67 34 -67zM318 252q-26 -18 -52.5 -47.5t-47.5 -62t-34.5 -64.5t-13.5 -56q0 -25 14 -47q13 26 33.5 60t39.5 76zM645 -76q-81 21 -138 21q-42 0 -70.5 -11t-28.5 -28q0 -23 50 -23q15 0 41.5 4t55 10.5t53.5 13.5t37 13zM593 299q19 0 36 5.5t30 16t21 25
t8 32.5q0 31 -23 31q-9 0 -21 -7t-23 -20.5t-20 -34t-13 -48.5h5zM470 250q24 53 33 83t11.5 48.5t4.5 33t13 36.5q-73 -82 -103 -203zM491 246l-70 -161q5 -21 12 -34q21 44 42 93t42 103zM468 245l-41 -3q-5 -25 -8 -49t-3 -49v-17zM746 524q-2 -5 -2 -11q0 -5 1 -10
t1 -12q0 -151 -55 -253q15 3 26.5 32t19.5 67t12 77t4 60q0 18 -1.5 29.5t-5.5 20.5zM369 283q13 36 29.5 68.5t37.5 60.5q-27 -29 -51.5 -63.5t-45.5 -76.5q6 3 13.5 5.5zM581 255q-5 9 -5 23q0 10 1 15q-8 1 -15 2t-13 3q-5 -11 -9 -22t-9 -22q14 1 26 1h24zM519 252
q11 23 19 51q-10 8 -15 16q-8 -16 -14.5 -33t-13.5 -35zM929 808q-5 -8 -11.5 -22.5t-12.5 -35.5q-9 -28 -16.5 -46.5t-15.5 -30t-17 -18t-20 -10.5q-72 -28 -81 -28q-16 0 -23.5 15.5t-12 38t-8.5 47.5t-12 44q-35 -51 -35 -88v-6l-69 -25v4q0 15 6.5 35t17 39t23.5 34
t27 20l68 25q6 2 10 2q22 0 33 -65q10 -71 24 -85q6 8 13 26.5t14.5 39t13.5 38.5t11 26z" />
    <glyph glyph-name="Odieresis" unicode="&#xd6;" horiz-adv-x="704" 
d="M545 -22q9 0 31.5 6t48 13t49 13t35.5 6q15 0 27 -6q-11 -46 -73 -82q67 -18 133 -29.5t143 -19t172.5 -10.5t221.5 -3q-28 -11 -104 -11q-63 0 -150.5 5t-179.5 16q-61 8 -123 18.5t-125 27.5q-17 -7 -43.5 -14.5t-55 -14t-55 -10.5t-43.5 -4q-52 0 -57 26
q-15 -12 -34 -23t-39.5 -20t-40 -14t-35.5 -5q-37 0 -37 30q0 28 33 79q-11 -4 -25 -4q-20 0 -36 9q-65 -81 -146 -81q-44 0 -70 27t-26 72q0 46 31 104.5t85 117.5t126.5 113.5t155.5 91.5q-66 -37 -134.5 -89t-148.5 -123q25 20 43.5 24t36.5 4q35 0 35 -30
q0 -21 -10 -47.5t-27 -50.5t-39.5 -40t-47.5 -16q-29 0 -29 52q0 11 6 64q-70 -91 -70 -168q0 -43 24 -71.5t67 -28.5q71 0 132 82q-11 25 -11 59q0 31 12 65t33 66t49.5 60t61.5 49q35 69 75 116t81.5 78t83 47.5t80.5 25.5q-60 -23 -86 -57t-31 -90q7 24 12.5 36t11 17.5
t10.5 7t13 3.5l-43 -112l14 -20q2 6 5 15.5t7 19t9.5 17.5t13.5 10q-8 -15 -14.5 -31.5t-11.5 -36.5l26 -9q18 115 79 115q19 0 32.5 -13.5t13.5 -32.5q0 -61 -116 -76v-9q0 -52 63 -52q8 0 14.5 0.5t13.5 1.5q10 19 20.5 49t19 62.5t13.5 64.5t5 56q0 18 -2.5 27t-2.5 13
q0 9 3 16.5t9 10.5q-15 29 -48.5 40.5t-88.5 11.5h-34q83 28 132 28q53 0 89 -26l50 17q31 -25 31 -88v-8t-1 -9l-40 -13q-8 -379 -354 -491q-15 -5 -28.5 -7.5t-25.5 -2.5q-34 0 -55 21l-44 -13q-32 38 -32 87q0 7 0.5 14t1.5 14l43 14q0 76 28 159l-31 -16l-68 -152
q-20 -46 -39 -82.5t-39 -62.5q22 -16 34 -16q9 0 38 11q-37 -52 -37 -78q0 -31 39 -31q59 0 121 50q8 8 18 16.5t24.5 15t35.5 11t52 4.5q62 0 142 -21q56 34 67 76q-6 2 -12 2q-9 0 -36.5 -5.5t-58 -12.5t-58 -12.5t-37.5 -5.5q-27 0 -48 8q13 -3 29 -3q28 0 54 10t51.5 26
t50.5 36.5t51 41.5q-15 -20 -35.5 -38.5t-43 -33.5t-45.5 -26t-45 -15h4zM689 234q-41 -74 -102 -93q10 -7 10 -19q0 -13 -9 -25t-21.5 -21.5t-27 -15.5t-26.5 -6q-27 0 -43 21l18 -11q13 -5 22 -5q13 0 26 4.5t23.5 12.5t17.5 18.5t7 22.5q0 13 -9.5 17t-18.5 8
q23 4 39.5 10.5t30 17t25.5 25.5t24 36l-20 -4t-18 -2q-42 0 -55 27q-5 -2 -18.5 -3t-34.5 -2q-23 -59 -45 -110t-43 -96q23 -31 55 -31q23 0 53.5 21.5t61 55.5t57 75t41.5 79zM65 47q19 0 35.5 14t29 33.5t19.5 40t7 33.5q0 43 -39 43q-12 0 -27 -5.5t-28 -17.5t-22 -30.5
t-9 -43.5q0 -67 34 -67zM318 252q-26 -18 -52.5 -47.5t-47.5 -62t-34.5 -64.5t-13.5 -56q0 -25 14 -47q13 26 33.5 60t39.5 76zM645 -76q-81 21 -138 21q-42 0 -70.5 -11t-28.5 -28q0 -23 50 -23q15 0 41.5 4t55 10.5t53.5 13.5t37 13zM593 299q19 0 36 5.5t30 16t21 25
t8 32.5q0 31 -23 31q-9 0 -21 -7t-23 -20.5t-20 -34t-13 -48.5h5zM470 250q24 53 33 83t11.5 48.5t4.5 33t13 36.5q-73 -82 -103 -203zM491 246l-70 -161q5 -21 12 -34q21 44 42 93t42 103zM468 245l-41 -3q-5 -25 -8 -49t-3 -49v-17zM746 524q-2 -5 -2 -11q0 -5 1 -10
t1 -12q0 -151 -55 -253q15 3 26.5 32t19.5 67t12 77t4 60q0 18 -1.5 29.5t-5.5 20.5zM369 283q13 36 29.5 68.5t37.5 60.5q-27 -29 -51.5 -63.5t-45.5 -76.5q6 3 13.5 5.5zM581 255q-5 9 -5 23q0 10 1 15q-8 1 -15 2t-13 3q-5 -11 -9 -22t-9 -22q14 1 26 1h24zM519 252
q11 23 19 51q-10 8 -15 16q-8 -16 -14.5 -33t-13.5 -35zM851 683q-5 -11 -11 -20.5t-12 -18.5l-80 -26q34 45 55 122l39 11q3 11 5 19.5t4 16.5l77 25q-8 -47 -46 -119zM695 683q-5 -11 -11 -20.5t-12 -18.5l-80 -26q34 45 55 122l39 11q3 11 5 19.5t4 16.5l77 25
q-8 -47 -46 -119z" />
    <glyph glyph-name="Oslash" unicode="&#xd8;" horiz-adv-x="704" 
d="M710 91q-16 -21 -37 -40.5t-44 -34.5t-46 -25t-42 -13h4q10 0 32.5 6t47.5 13t48.5 13t35.5 6q13 0 27 -6q-10 -45 -73 -82q65 -17 130 -29t142.5 -19.5t173.5 -10.5t224 -3q-25 -11 -104 -11q-63 0 -144.5 6.5t-185.5 19.5q-60 8 -96.5 12.5t-62 8.5t-45 8t-44.5 12
q-17 -7 -43.5 -14.5t-55 -14t-55 -10.5t-43.5 -4q-52 0 -57 26q-14 -11 -32.5 -22t-38.5 -20t-40.5 -14.5t-37.5 -5.5q-37 0 -37 30q0 29 33 79q-8 -2 -14 -3t-11 -1q-20 0 -36 9q-65 -81 -146 -81q-44 0 -70 27t-26 72q0 37 22 90t70 111t123.5 117t182.5 109
q-66 -37 -137.5 -89t-150.5 -124q48 29 85 29q35 0 35 -30q0 -13 -7.5 -34.5t-26.5 -46.5q19 31 19 61q0 43 -39 43q-16 0 -31.5 -5t-27.5 -16.5t-19.5 -30t-7.5 -45.5q0 -67 34 -67q14 0 29 9q-28 -22 -47 -22q-29 0 -29 52q0 10 6 64q-70 -91 -70 -168q0 -43 23 -71.5
t68 -28.5q71 0 132 82q-11 25 -11 59q0 31 12 65t33 66t49.5 60t61.5 49q35 69 75.5 116.5t82 78t83 47t79.5 25.5q-30 -12 -46.5 -21t-28.5 -20.5t-25.5 -28t-38.5 -43.5q-21 -24 -36.5 -59t-27 -73.5t-17.5 -76.5t-7 -69q94 101 177 189.5t159 166.5q-2 18 -7.5 34.5
t-20.5 29t-42.5 19.5t-74.5 7h-34q80 28 132 28q54 0 89 -26l50 17q31 -25 31 -88v-8q0 -7 -1 -9l-40 -13q-8 -379 -354 -491q-14 -5 -27 -7.5t-27 -2.5q-34 0 -55 21l-44 -13q-32 38 -32 87q0 7 0.5 14t1.5 14l43 14q0 78 28 159q-3 -2 -11 -5.5t-20 -10.5l-7 -16t-18 -42
t-26 -59t-31 -66t-32.5 -63t-31.5 -51q20 -16 34 -16l38 11q-37 -51 -37 -78q0 -31 39 -31q59 0 121 50l11 11q17 17 43 26t76 10q59 0 142 -21q57 35 67 76q-10 2 -12 2q-9 0 -35.5 -5.5t-57.5 -12.5t-59 -12.5t-38 -5.5q-27 0 -48 8q13 -3 29 -3q56 0 113 39zM740 357
q10 51 12 87q-3 -5 -28 -32t-61 -65t-78 -82t-78 -81.5t-61.5 -64t-27.5 -30.5q7 -43 29.5 -61t48.5 -18q24 0 54.5 22t60.5 55.5t55 72.5t38 72q11 29 20.5 60.5t15.5 64.5zM318 252q-26 -20 -52.5 -49.5t-47.5 -62t-34.5 -64t-13.5 -54.5q0 -25 14 -47q27 35 51 89t53 119
zM645 -76q-83 21 -138 21q-18 0 -36 -2.5t-32 -8t-22.5 -12.5t-8.5 -16q0 -23 50 -23q15 0 42 4t55.5 10.5t53.5 13.5t36 13zM369 283q13 36 29.5 68.5t37.5 60.5q-54 -55 -97 -140q5 3 12.5 5.5t17.5 5.5z" />
    <glyph glyph-name="Ugrave" unicode="&#xd9;" horiz-adv-x="703" 
d="M583 -61q-27 9 -27 46q0 14 2.5 32t10.5 38l25 67q-42 -45 -85.5 -72.5t-87 -45t-87.5 -29t-89 -26.5q-20 28 -20 68q0 12 2 27.5t6 35.5l48 16q9 41 24 86l-32 6q-88 -94 -157 -94q-45 0 -45 35q0 18 11 31.5t30 22.5t44.5 13.5t54.5 4.5q14 0 28.5 -1.5t31.5 -3.5
q126 142 216 345q-2 15 -22 15q-4 0 -24.5 -4.5t-57.5 -15.5q13 8 32.5 16.5t40.5 15t41 11t33 4.5q29 0 34 -18q-6 -12 -20 -39.5t-32.5 -63t-39.5 -75.5t-40.5 -79.5t-35 -74t-23.5 -57.5q61 -12 138 -12l30 80q-8 -1 -14.5 -1.5t-12.5 -0.5q-64 0 -64 56q0 44 55 122
q2 4 27.5 36t74.5 93q55 69 55 93q0 18 -24 29t-59 11q-40 0 -83.5 -9.5t-85 -26.5t-79 -41t-65.5 -51.5t-44.5 -58.5t-16.5 -63q0 -29 13 -41.5t44 -12.5q21 0 41 7.5t36.5 20.5t28 30.5t16.5 38.5q-4 16 -17 16q-10 0 -21.5 -5.5t-23.5 -10.5q19 11 33.5 17.5t24.5 6.5
q17 0 17 -20q0 -21 -13.5 -40.5t-34 -34.5t-45.5 -24t-48 -9q-64 0 -64 58q0 33 18 65t48 61t70 53.5t84.5 42t90.5 27.5t89 10q81 0 81 -37q0 -26 -56 -98l-105 -136q-57 -81 -57 -121q0 -48 77 -48l11 1l8 22l-49 -3q19 9 44 9h8q9 26 20 54t24 59l10 2l-44 -115l30 2
q23 62 35 95t19.5 48t14 18.5t18.5 6.5l-63 -166q17 0 37 4q23 60 48.5 125.5t54.5 137.5l28 9l21 39l79 25q-11 -26 -30.5 -64t-45.5 -89l-18 -8q-31 -78 -58 -148t-51 -135q40 5 81 12t83 17q-27 -13 -73 -21.5t-92 -13.5q-17 -43 -32.5 -85t-15.5 -71q0 -40 29 -50z
M426 -73q-12 -15 -38.5 -34.5t-58 -37.5t-63.5 -30.5t-56 -12.5q-31 0 -31 26q0 13 7.5 25t25.5 24t48 25t76 29q14 4 41 14.5t56 23.5t55 26.5t38 25.5q-45 -48 -93 -96l278 -53q126 -26 222.5 -38t164.5 -12q82 0 196 12t263 38q-87 -32 -182.5 -48t-201.5 -16
q-159 0 -376 38zM509 158h-13q-34 0 -65 2.5t-60 7.5q-14 -42 -20 -69.5t-6 -43.5q0 -49 37 -53q28 7 45 14.5t27.5 17t16.5 22t12 29.5zM418 -71q-12 2 -23.5 3.5t-21.5 1.5q-20 0 -41.5 -4t-44.5 -12q-16 -6 -33.5 -16t-32 -22t-24 -24.5t-9.5 -21.5q0 -13 23 -13
q24 0 50.5 8.5t53.5 23t53.5 34t49.5 42.5zM265 190q-23 3 -44 3q-27 0 -52.5 -5.5t-46 -14.5t-33 -21.5t-12.5 -26.5q0 -10 10 -15.5t35 -5.5q63 0 143 86zM652 277l-41 -15l-35 -96l3 1q11 13 23.5 26t27.5 26zM585 252q-8 -2 -16.5 -4t-15.5 -3q-20 -48 -30 -81
q7 1 13.5 1h14.5zM550 159h-15.5t-15.5 -1q-8 -23 -15.5 -44.5t-14.5 -41.5q7 6 14 10.5t14.5 13.5t15.5 23.5t17 39.5zM478 -9q-45 -28 -128 -50q20 0 38.5 -1t36.5 -3zM309 190l16 44t19 45q-36 -53 -63 -84zM592 273l-29 -1l-8 -22q7 1 14.5 3t15.5 4zM616 274l-3 -8
l24 10zM780 632q-79 10 -139 136l68 26q59 -125 146 -135z" />
    <glyph glyph-name="Uacute" unicode="&#xda;" horiz-adv-x="703" 
d="M583 -61q-27 9 -27 46q0 14 2.5 32t10.5 38l25 67q-42 -45 -85.5 -72.5t-87 -45t-87.5 -29t-89 -26.5q-20 28 -20 68q0 12 2 27.5t6 35.5l48 16q9 41 24 86l-32 6q-88 -94 -157 -94q-45 0 -45 35q0 18 11 31.5t30 22.5t44.5 13.5t54.5 4.5q14 0 28.5 -1.5t31.5 -3.5
q126 142 216 345q-2 15 -22 15q-4 0 -24.5 -4.5t-57.5 -15.5q13 8 32.5 16.5t40.5 15t41 11t33 4.5q29 0 34 -18q-6 -12 -20 -39.5t-32.5 -63t-39.5 -75.5t-40.5 -79.5t-35 -74t-23.5 -57.5q61 -12 138 -12l30 80q-8 -1 -14.5 -1.5t-12.5 -0.5q-64 0 -64 56q0 44 55 122
q2 4 27.5 36t74.5 93q55 69 55 93q0 18 -24 29t-59 11q-40 0 -83.5 -9.5t-85 -26.5t-79 -41t-65.5 -51.5t-44.5 -58.5t-16.5 -63q0 -29 13 -41.5t44 -12.5q21 0 41 7.5t36.5 20.5t28 30.5t16.5 38.5q-4 16 -17 16q-10 0 -21.5 -5.5t-23.5 -10.5q19 11 33.5 17.5t24.5 6.5
q17 0 17 -20q0 -21 -13.5 -40.5t-34 -34.5t-45.5 -24t-48 -9q-64 0 -64 58q0 33 18 65t48 61t70 53.5t84.5 42t90.5 27.5t89 10q81 0 81 -37q0 -26 -56 -98l-105 -136q-57 -81 -57 -121q0 -48 77 -48l11 1l8 22l-49 -3q19 9 44 9h8q9 26 20 54t24 59l10 2l-44 -115l30 2
q23 62 35 95t19.5 48t14 18.5t18.5 6.5l-63 -166q17 0 37 4q23 60 48.5 125.5t54.5 137.5l28 9l21 39l79 25q-11 -26 -30.5 -64t-45.5 -89l-18 -8q-31 -78 -58 -148t-51 -135q40 5 81 12t83 17q-27 -13 -73 -21.5t-92 -13.5q-17 -43 -32.5 -85t-15.5 -71q0 -40 29 -50z
M426 -73q-12 -15 -38.5 -34.5t-58 -37.5t-63.5 -30.5t-56 -12.5q-31 0 -31 26q0 13 7.5 25t25.5 24t48 25t76 29q14 4 41 14.5t56 23.5t55 26.5t38 25.5q-45 -48 -93 -96l278 -53q126 -26 222.5 -38t164.5 -12q82 0 196 12t263 38q-87 -32 -182.5 -48t-201.5 -16
q-159 0 -376 38zM509 158h-13q-34 0 -65 2.5t-60 7.5q-14 -42 -20 -69.5t-6 -43.5q0 -49 37 -53q28 7 45 14.5t27.5 17t16.5 22t12 29.5zM418 -71q-12 2 -23.5 3.5t-21.5 1.5q-20 0 -41.5 -4t-44.5 -12q-16 -6 -33.5 -16t-32 -22t-24 -24.5t-9.5 -21.5q0 -13 23 -13
q24 0 50.5 8.5t53.5 23t53.5 34t49.5 42.5zM265 190q-23 3 -44 3q-27 0 -52.5 -5.5t-46 -14.5t-33 -21.5t-12.5 -26.5q0 -10 10 -15.5t35 -5.5q63 0 143 86zM652 277l-41 -15l-35 -96l3 1q11 13 23.5 26t27.5 26zM585 252q-8 -2 -16.5 -4t-15.5 -3q-20 -48 -30 -81
q7 1 13.5 1h14.5zM550 159h-15.5t-15.5 -1q-8 -23 -15.5 -44.5t-14.5 -41.5q7 6 14 10.5t14.5 13.5t15.5 23.5t17 39.5zM478 -9q-45 -28 -128 -50q20 0 38.5 -1t36.5 -3zM309 190l16 44t19 45q-36 -53 -63 -84zM592 273l-29 -1l-8 -22q7 1 14.5 3t15.5 4zM616 274l-3 -8
l24 10zM685 614l-1 5q76 34 156 143l74 27q-30 -39 -51 -64.5t-38.5 -42t-34 -26t-37.5 -17.5z" />
    <glyph glyph-name="Ucircumflex" unicode="&#xdb;" horiz-adv-x="703" 
d="M583 -61q-27 9 -27 46q0 14 2.5 32t10.5 38l25 67q-42 -45 -85.5 -72.5t-87 -45t-87.5 -29t-89 -26.5q-20 28 -20 68q0 12 2 27.5t6 35.5l48 16q9 41 24 86l-32 6q-88 -94 -157 -94q-45 0 -45 35q0 18 11 31.5t30 22.5t44.5 13.5t54.5 4.5q14 0 28.5 -1.5t31.5 -3.5
q126 142 216 345q-2 15 -22 15q-4 0 -24.5 -4.5t-57.5 -15.5q13 8 32.5 16.5t40.5 15t41 11t33 4.5q29 0 34 -18q-6 -12 -20 -39.5t-32.5 -63t-39.5 -75.5t-40.5 -79.5t-35 -74t-23.5 -57.5q61 -12 138 -12l30 80q-8 -1 -14.5 -1.5t-12.5 -0.5q-64 0 -64 56q0 44 55 122
q2 4 27.5 36t74.5 93q55 69 55 93q0 10 -8 18q-2 0 -3 -0.5t-2 -0.5q-34 -16 -59 -16q16 5 27.5 11.5t22.5 13.5l1 1q-11 5 -27 9t-35 4q-40 0 -83.5 -9.5t-85 -26.5t-79 -41t-65.5 -51.5t-44.5 -58.5t-16.5 -63q0 -29 13 -41.5t44 -12.5q21 0 41 7.5t36.5 20.5t28 30.5
t16.5 38.5q-4 16 -17 16q-10 0 -21.5 -5.5t-23.5 -10.5q19 11 33.5 17.5t24.5 6.5q17 0 17 -20q0 -21 -13.5 -40.5t-34 -34.5t-45.5 -24t-48 -9q-64 0 -64 58q0 33 18 65t48 61t70 53.5t84.5 42t90.5 27.5t89 10q42 0 62 -10q22 20 36.5 47t39.5 67l69 25q0 -49 13 -92
t54 -78l-70 -27q-42 36 -55 106q-14 -18 -32 -32t-41 -27q5 -7 5 -16q0 -26 -56 -98l-105 -136q-57 -81 -57 -121q0 -48 77 -48l11 1l8 22l-49 -3q19 9 44 9h8q9 26 20 54t24 59l10 2l-44 -115l30 2q23 62 35 95t19.5 48t14 18.5t18.5 6.5l-63 -166q17 0 37 4
q23 60 48.5 125.5t54.5 137.5l28 9l21 39l79 25q-11 -26 -30.5 -64t-45.5 -89l-18 -8q-31 -78 -58 -148t-51 -135q40 5 81 12t83 17q-27 -13 -73 -21.5t-92 -13.5q-17 -43 -32.5 -85t-15.5 -71q0 -40 29 -50zM426 -73q-12 -15 -38.5 -34.5t-58 -37.5t-63.5 -30.5t-56 -12.5
q-31 0 -31 26q0 13 7.5 25t25.5 24t48 25t76 29q14 4 41 14.5t56 23.5t55 26.5t38 25.5q-45 -48 -93 -96l278 -53q126 -26 222.5 -38t164.5 -12q82 0 196 12t263 38q-87 -32 -182.5 -48t-201.5 -16q-159 0 -376 38zM509 158h-13q-34 0 -65 2.5t-60 7.5q-14 -42 -20 -69.5
t-6 -43.5q0 -49 37 -53q28 7 45 14.5t27.5 17t16.5 22t12 29.5zM418 -71q-12 2 -23.5 3.5t-21.5 1.5q-20 0 -41.5 -4t-44.5 -12q-16 -6 -33.5 -16t-32 -22t-24 -24.5t-9.5 -21.5q0 -13 23 -13q24 0 50.5 8.5t53.5 23t53.5 34t49.5 42.5zM265 190q-23 3 -44 3
q-27 0 -52.5 -5.5t-46 -14.5t-33 -21.5t-12.5 -26.5q0 -10 10 -15.5t35 -5.5q63 0 143 86zM652 277l-41 -15l-35 -96l3 1q11 13 23.5 26t27.5 26zM585 252q-8 -2 -16.5 -4t-15.5 -3q-20 -48 -30 -81q7 1 13.5 1h14.5zM550 159h-15.5t-15.5 -1q-8 -23 -15.5 -44.5
t-14.5 -41.5q7 6 14 10.5t14.5 13.5t15.5 23.5t17 39.5zM478 -9q-45 -28 -128 -50q20 0 38.5 -1t36.5 -3zM309 190l16 44t19 45q-36 -53 -63 -84zM592 273l-29 -1l-8 -22q7 1 14.5 3t15.5 4zM616 274l-3 -8l24 10z" />
    <glyph glyph-name="Udieresis" unicode="&#xdc;" horiz-adv-x="703" 
d="M583 -61q-27 9 -27 46q0 14 2.5 32t10.5 38l25 67q-42 -45 -85.5 -72.5t-87 -45t-87.5 -29t-89 -26.5q-20 28 -20 68q0 12 2 27.5t6 35.5l48 16q9 41 24 86l-32 6q-88 -94 -157 -94q-45 0 -45 35q0 18 11 31.5t30 22.5t44.5 13.5t54.5 4.5q14 0 28.5 -1.5t31.5 -3.5
q126 142 216 345q-2 15 -22 15q-4 0 -24.5 -4.5t-57.5 -15.5q13 8 32.5 16.5t40.5 15t41 11t33 4.5q29 0 34 -18q-6 -12 -20 -39.5t-32.5 -63t-39.5 -75.5t-40.5 -79.5t-35 -74t-23.5 -57.5q61 -12 138 -12l30 80q-8 -1 -14.5 -1.5t-12.5 -0.5q-64 0 -64 56q0 44 55 122
q2 4 27.5 36t74.5 93q55 69 55 93q0 10 -6 16l-21 -34l-80 -26q11 16 22 36.5t20 46.5q-5 1 -9 1h-9q-40 0 -83.5 -9.5t-85 -26.5t-79 -41t-65.5 -51.5t-44.5 -58.5t-16.5 -63q0 -29 13 -41.5t44 -12.5q21 0 41 7.5t36.5 20.5t28 30.5t16.5 38.5q-4 16 -17 16
q-10 0 -21.5 -5.5t-23.5 -10.5q19 11 33.5 17.5t24.5 6.5q17 0 17 -20q0 -21 -13.5 -40.5t-34 -34.5t-45.5 -24t-48 -9q-64 0 -64 58q0 33 18 65t48 61t70 53.5t84.5 42t90.5 27.5t89 10h7q4 8 6.5 16t4.5 16l38 11q3 11 5.5 19.5t4.5 16.5l77 26q-5 -23 -15.5 -53
t-30.5 -67l-21 -7q5 -7 5 -15q0 -26 -56 -98l-105 -136q-57 -81 -57 -121q0 -48 77 -48l11 1l8 22l-49 -3q19 9 44 9h8q9 26 20 54t24 59l10 2l-44 -115l30 2q23 62 35 95t19.5 48t14 18.5t18.5 6.5l-63 -166q17 0 37 4q23 60 48.5 125.5t54.5 137.5l28 9l21 39l79 25
q-11 -26 -30.5 -64t-45.5 -89l-18 -8q-31 -78 -58 -148t-51 -135q40 5 81 12t83 17q-27 -13 -73 -21.5t-92 -13.5q-17 -43 -32.5 -85t-15.5 -71q0 -40 29 -50zM426 -73q-12 -15 -38.5 -34.5t-58 -37.5t-63.5 -30.5t-56 -12.5q-31 0 -31 26q0 13 7.5 25t25.5 24t48 25t76 29
q14 4 41 14.5t56 23.5t55 26.5t38 25.5q-45 -48 -93 -96l278 -53q126 -26 222.5 -38t164.5 -12q82 0 196 12t263 38q-87 -32 -182.5 -48t-201.5 -16q-159 0 -376 38zM509 158h-13q-34 0 -65 2.5t-60 7.5q-14 -42 -20 -69.5t-6 -43.5q0 -49 37 -53q28 7 45 14.5t27.5 17
t16.5 22t12 29.5zM814 663q-12 -23 -23 -39l-80 -26q16 23 30 53t25 69l38 11l10 36l76 26q-4 -23 -14.5 -53t-30.5 -67zM418 -71q-12 2 -23.5 3.5t-21.5 1.5q-20 0 -41.5 -4t-44.5 -12q-16 -6 -33.5 -16t-32 -22t-24 -24.5t-9.5 -21.5q0 -13 23 -13q24 0 50.5 8.5t53.5 23
t53.5 34t49.5 42.5zM265 190q-23 3 -44 3q-27 0 -52.5 -5.5t-46 -14.5t-33 -21.5t-12.5 -26.5q0 -10 10 -15.5t35 -5.5q63 0 143 86zM652 277l-41 -15l-35 -96l3 1q11 13 23.5 26t27.5 26zM585 252q-8 -2 -16.5 -4t-15.5 -3q-20 -48 -30 -81q7 1 13.5 1h14.5zM550 159h-15.5
t-15.5 -1q-8 -23 -15.5 -44.5t-14.5 -41.5q7 6 14 10.5t14.5 13.5t15.5 23.5t17 39.5zM478 -9q-45 -28 -128 -50q20 0 38.5 -1t36.5 -3zM309 190l16 44t19 45q-36 -53 -63 -84zM592 273l-29 -1l-8 -22q7 1 14.5 3t15.5 4zM616 274l-3 -8l24 10z" />
    <glyph glyph-name="Yacute" unicode="&#xdd;" horiz-adv-x="668" 
d="M546 -179q187 95 407 95q20 0 63.5 -4t99.5 -10t120.5 -12.5t127.5 -12.5t119.5 -10t96.5 -4q-20 -11 -59 -11q-9 0 -44 4t-84.5 10t-109 13t-117.5 13t-110 10t-86 4q-245 0 -417 -86q87 -23 158 -23q14 0 27.5 1t27.5 4q-26 -13 -71 -13q-61 0 -154 24q-1 -1 -16 -11
t-37.5 -23.5t-48.5 -28.5t-49.5 -28t-40.5 -22t-21 -9q44 28 67 43.5t36.5 28t23.5 27t29 41.5l-60 21q0 -1 -1 -1l-26 13q-71 -36 -152 -48q82 25 126 57l-62 26q-94 -59 -154 -59q-28 0 -41 18q8 31 40 48t74 17q40 0 85 -15q24 16 45.5 32.5t39.5 33.5q-81 -28 -159 -28
q-50 0 -93 12t-74.5 34.5t-49.5 53t-18 68.5q0 115 153 226q-1 2 -1 8q0 38 28 82t71 84t95 71.5t100 45.5q-52 -19 -102.5 -51.5t-90.5 -71t-64.5 -79t-24.5 -74.5v-8q48 32 91 49q34 37 87.5 76.5t115 74.5t126 64t120.5 45q-30 -9 -68 -26t-80 -39t-85 -47t-81 -50.5
t-70 -50.5t-51 -45q34 10 65 10q62 0 62 -49q0 -11 -3 -24l26 -1q8 35 14.5 64.5t8.5 52.5q4 -8 4 -26q0 -31 -16 -91l38 3q8 36 12 61t4 39q0 33 -14 44q7 3 14 3q24 0 24 -38q0 -33 -15 -106l25 3q43 138 43 165q0 20 -12 20q-6 0 -19.5 -4t-31.5 -10.5t-39 -14.5t-41 -16
q124 85 174 85q38 0 38 -49q0 -18 -6.5 -48.5t-18.5 -72.5l-42 -129q-11 -40 -18.5 -73t-9.5 -59q18 24 71 127q7 13 20 38.5t29.5 57t36.5 66t40 66.5t39.5 58.5t36.5 40.5q-37 -45 -94 -148l-84 -165q-27 -49 -51 -88.5t-45 -68.5l2 -12q27 25 55.5 56.5t58.5 73.5t62 96
t67 122l69 133l40 13l12 14l79 25q-9 -10 -17.5 -24.5t-16.5 -32.5l-30 -59l-43 -15q-44 -85 -96.5 -174.5t-115.5 -185.5q-139 -212 -256 -281l25 -10q19 14 42.5 37t45 45t37.5 38t20 16q1 0 1 -3q0 -2 -3 -11l-36 -74q-11 -23 -21 -40.5t-20 -31.5zM425 56q-4 11 -6 22.5
t-2 27.5q0 21 3.5 43.5t10.5 49.5t17 59.5t23 72.5l-38 -3l-25 -62q-14 -37 -20 -70t-7 -61q0 -8 0.5 -17t1.5 -17q-10 34 -10 65q0 20 7 46.5t16 51t17 42.5t9 21l-29 1q-19 -34 -56 -54t-77 -20q-41 0 -71 21q-26 -55 -26 -104q0 -72 59.5 -112.5t158.5 -40.5q16 0 32.5 1
t33.5 3q14 14 25.5 27t21.5 25q-4 -1 -7 -1.5t-6 -0.5q-19 0 -19 35q0 19 5.5 45.5t13.5 57t18.5 63.5t19.5 65l-23 -2q-1 -5 -6.5 -20t-15.5 -43q-24 -68 -36.5 -119t-12.5 -86v-12zM442 17q-34 -7 -71 -7q-50 0 -90.5 11t-69.5 31t-45 49.5t-16 65.5q0 52 31 115
q-18 18 -23 50q-30 -24 -55.5 -52.5t-44 -58.5t-29 -60t-10.5 -57q0 -35 18.5 -62.5t51.5 -47t77.5 -29.5t96.5 -10q36 0 61.5 2.5t45 9.5t36.5 19t36 31zM270 393q-48 -53 -76 -105q28 -27 68 -27q20 0 43 8t42 21.5t31.5 30t12.5 33.5q0 47 -65 47q-26 0 -56 -8zM379 -118
q68 54 136 144q-11 -7 -24 -11.5t-34 -15.5t-54 -32.5t-84 -60.5zM301 -100q-39 16 -83 16q-77 0 -92 -54q1 -15 26 -15q12 0 32 5t41.5 13t42 17t33.5 18zM559 -35q-49 -53 -79 -79t-41 -28q14 -6 27 -11t24 -9q25 35 41.5 66.5t27.5 60.5zM508 79q-12 -14 -24 -27.5
t-26 -27.5q26 3 39.5 4.5t22.5 7.5t18 19.5t27 41.5zM254 388q-23 -9 -44 -20.5t-41 -26.5q2 -15 6.5 -27t11.5 -20q24 47 67 94zM534 -185q-10 2 -20 5t-20 8q-14 -17 -27.5 -33.5t-27.5 -32.5q26 16 49.5 29t45.5 24zM514 32q-14 -4 -29 -7.5t-31 -5.5q-14 -15 -32 -30
q25 9 50 20.5t42 22.5zM613 678l-1 5q76 34 156 143l74 27q-30 -39 -51 -64.5t-38.5 -42t-34 -26t-37.5 -17.5z" />
    <glyph glyph-name="Thorn" unicode="&#xde;" horiz-adv-x="694" 
d="M766 351v-11q0 -49 -9.5 -90t-36.5 -75.5t-74 -63t-122 -52.5q-29 -9 -51 -9q-11 0 -24.5 3t-24.5 9q-11 -27 -21.5 -50t-21.5 -42l-42 -14q-16 -28 -24 -53q-23 -5 -49 -12t-41 -17q27 27 27 57q0 21 -13 36.5t-33 15.5q-18 0 -30.5 -11t-12.5 -29q0 -13 6 -26
q22 7 40 7q22 0 26 -13q-26 -10 -45 -10q-18 0 -31 10q-15 -5 -29 -14.5t-25.5 -21.5t-18 -24.5t-6.5 -24.5q0 -23 23 -37t54 -14q24 0 57.5 9t72.5 22.5t82 30t85 31.5q125 45 243 62.5t228 17.5q-51 -7 -104 -13t-110.5 -15t-121.5 -23.5t-137 -38.5q-38 -13 -76.5 -28.5
t-76.5 -27.5q-48 -17 -86 -25.5t-67 -8.5q-30 0 -54 14t-24 40q0 13 8.5 27t21 27t28.5 23t31 14q-8 14 -8 28q0 22 19 35t43 13q23 0 37 -14t14 -41q16 28 48 90l35 12q18 41 40 99t49 136q-213 -317 -416 -317q-40 0 -79 12q9 -2 20 -3t23 -1q51 0 108 19t110 51
t96.5 73.5t67.5 86.5q-21 -21 -56 -44t-73.5 -42t-74.5 -31.5t-60 -12.5q-70 0 -70 72q0 24 9 51q-3 -17 -3 -32q0 -76 77 -76q19 0 42.5 6t47 15.5t45 23t38.5 28.5q-17 -7 -32 -7q-46 0 -46 53q0 25 10.5 45t26 34t35 21.5t37.5 7.5q37 0 37 -40q0 -53 -45 -101
q97 48 112 213q-11 -11 -25.5 -21t-30.5 -17.5t-32.5 -12t-31.5 -4.5q-59 0 -59 71q0 22 10 44t26.5 40t38 29t44.5 11q38 0 55 -28.5t17 -85.5q73 88 73 129q0 8 -9 10t-16 2q-4 0 -11.5 -1.5t-30.5 -6.5q35 21 62.5 29t49.5 8q28 0 28 -42q0 -32 -7.5 -56.5t-19.5 -58.5
q38 17 78 30t65 13q21 0 34 -8l64 21q15 -51 15 -89v-9t-1 -8zM557 211l-49 -125q18 -8 33 -8q37 0 65 27.5t46.5 67t27.5 82.5t9 74q0 103 -67 103q-14 0 -35.5 -10t-40.5 -24q-13 -41 -29.5 -90.5t-35.5 -100.5l22 3l31 89q14 38 23.5 59.5t12.5 25.5l21 7l-63 -180l20 3
q13 39 31 79l10 2l-30 -79q21 2 38 3.5t31 1.5q-8 -2 -16.5 -4t-19.5 -3zM422 405q0 105 -66 105q-20 0 -38.5 -10t-32.5 -26.5t-22.5 -37t-8.5 -41.5q0 -29 19 -47.5t48 -18.5q47 0 101 60v16zM290 155q7 4 17 17t19 29t15.5 31t6.5 23q0 18 -14 29t-34 11
q-17 0 -31.5 -8.5t-25.5 -22t-17.5 -30t-6.5 -32.5q0 -52 46 -52q17 0 25 5zM393 232q77 89 107 249q-18 -29 -35 -52t-32 -39q-5 -80 -40 -158zM499 90l46 120l-19 -3l-41 -106zM501 205l-22 -3l-28 -75l15 -14zM221 -90q-6 8 -24 8q-10 0 -23 -3q10 -7 30 -7q4 0 8 0.5
t9 1.5z" />
    <glyph glyph-name="germandbls" unicode="&#xdf;" horiz-adv-x="366" 
d="M429 153q-29 -30 -54.5 -50.5t-54 -35.5t-64 -26t-84.5 -21q47 16 75.5 34.5t43.5 37.5t20 37t5 34q0 72 -119 72q-8 -26 -16.5 -56.5t-16.5 -67.5l-27 -127l-32 -10l1 -27l-78 -25q-1 12 -1.5 22.5t-0.5 21.5q0 15 1.5 29t3.5 28l45 14l29 139q9 34 21.5 67t30.5 62
l28 45q12 17 36.5 33t53.5 28.5t60 20t56 7.5q57 0 57 -36q0 -20 -13 -40.5t-35.5 -39.5t-52 -34.5t-63.5 -25.5q5 1 9.5 1h8.5q42 0 66.5 -20.5t24.5 -55.5q0 -23 -12 -51zM197 236q50 23 83 40t52 32t26.5 29.5t7.5 32.5q0 45 -40 45q-13 0 -34 -8q-7 -3 -19.5 -19.5
t-26.5 -41t-27 -53.5t-22 -57z" />
    <glyph glyph-name="agrave" unicode="&#xe0;" horiz-adv-x="356" 
d="M258 -38q-13 12 -13 33q0 11 5 33q-15 -9 -36 -18.5t-42.5 -17t-41 -12.5t-31.5 -5q-18 0 -25 7l-37 -11q-19 12 -19 44t20 75l45 15q23 71 36.5 113.5t19.5 56.5q13 31 30.5 53t44.5 40t68 33t101 32l29 10l10 -25l56 17q-3 -48 -10 -83.5t-17 -58.5l-41 -12l-51 -130
q-33 -86 -33 -131q0 -24 10 -31zM281 110q38 93 56 156t19 98q0 38 -25 38q-8 0 -19 -2t-26 -14.5t-34.5 -40t-42.5 -78.5q-70 -153 -70 -220q0 -40 20 -40q8 0 23.5 6t31 15t29 18.5t18.5 16.5zM411 481q-79 10 -139 136l68 26q59 -125 146 -135z" />
    <glyph glyph-name="aacute" unicode="&#xe1;" horiz-adv-x="356" 
d="M258 -38q-13 12 -13 33q0 11 5 33q-15 -9 -36 -18.5t-42.5 -17t-41 -12.5t-31.5 -5q-18 0 -25 7l-37 -11q-19 12 -19 44t20 75l45 15q23 71 36.5 113.5t19.5 56.5q13 31 30.5 53t44.5 40t68 33t101 32l29 10l10 -25l56 17q-3 -48 -10 -83.5t-17 -58.5l-41 -12l-51 -130
q-33 -86 -33 -131q0 -24 10 -31zM281 110q38 93 56 156t19 98q0 38 -25 38q-8 0 -19 -2t-26 -14.5t-34.5 -40t-42.5 -78.5q-70 -153 -70 -220q0 -40 20 -40q8 0 23.5 6t31 15t29 18.5t18.5 16.5zM302 467l-1 5q76 34 156 143l74 27q-30 -39 -51 -64.5t-38.5 -42t-34 -26
t-37.5 -17.5z" />
    <glyph glyph-name="acircumflex" unicode="&#xe2;" horiz-adv-x="356" 
d="M258 -38q-13 12 -13 33q0 11 5 33q-15 -9 -36 -18.5t-42.5 -17t-41 -12.5t-31.5 -5q-18 0 -25 7l-37 -11q-19 12 -19 44t20 75l45 15q23 71 36.5 113.5t19.5 56.5q13 31 30.5 53t44.5 40t68 33t101 32l29 10l10 -25l56 17q-3 -48 -10 -83.5t-17 -58.5l-41 -12l-51 -130
q-33 -86 -33 -131q0 -24 10 -31zM281 110q38 93 56 156t19 98q0 38 -25 38q-8 0 -19 -2t-26 -14.5t-34.5 -40t-42.5 -78.5q-70 -153 -70 -220q0 -40 20 -40q8 0 23.5 6t31 15t29 18.5t18.5 16.5zM464 464q-21 18 -34 44.5t-21 61.5q-30 -42 -91 -67q-35 -16 -59 -16
q16 5 27.5 11.5t22.5 13.5q15 10 25.5 22t20 27t20 33.5t24.5 41.5l69 25q0 -49 13 -92t54 -78z" />
    <glyph glyph-name="atilde" unicode="&#xe3;" horiz-adv-x="356" 
d="M258 -38q-13 12 -13 33q0 11 5 33q-15 -9 -36 -18.5t-42.5 -17t-41 -12.5t-31.5 -5q-18 0 -25 7l-37 -11q-19 12 -19 44t20 75l45 15q23 71 36.5 113.5t19.5 56.5q13 31 30.5 53t44.5 40t68 33t101 32l29 10l10 -25l56 17q-3 -48 -10 -83.5t-17 -58.5l-41 -12l-51 -130
q-33 -86 -33 -131q0 -24 10 -31zM281 110q38 93 56 156t19 98q0 38 -25 38q-8 0 -19 -2t-26 -14.5t-34.5 -40t-42.5 -78.5q-70 -153 -70 -220q0 -40 20 -40q8 0 23.5 6t31 15t29 18.5t18.5 16.5zM577 650q-5 -8 -11.5 -22.5t-12.5 -35.5q-9 -28 -16.5 -46.5t-15.5 -30
t-17 -18t-20 -10.5q-72 -28 -81 -28q-16 0 -23.5 15.5t-12 38t-8.5 47.5t-12 44q-35 -51 -35 -88v-6l-69 -25v4q0 15 6.5 35t17 39t23.5 34t27 20l68 25q6 2 10 2q22 0 33 -65q10 -71 24 -85q6 8 13 26.5t14.5 39t13.5 38.5t11 26z" />
    <glyph glyph-name="adieresis" unicode="&#xe4;" horiz-adv-x="356" 
d="M258 -38q-13 12 -13 33q0 11 5 33q-15 -9 -36 -18.5t-42.5 -17t-41 -12.5t-31.5 -5q-18 0 -25 7l-37 -11q-19 12 -19 44t20 75l45 15q23 71 36.5 113.5t19.5 56.5q13 31 30.5 53t44.5 40t68 33t101 32l29 10l10 -25l56 17q-3 -48 -10 -83.5t-17 -58.5l-41 -12l-51 -130
q-33 -86 -33 -131q0 -24 10 -31zM281 110q38 93 56 156t19 98q0 38 -25 38q-8 0 -19 -2t-26 -14.5t-34.5 -40t-42.5 -78.5q-70 -153 -70 -220q0 -40 20 -40q8 0 23.5 6t31 15t29 18.5t18.5 16.5zM505 529q-5 -11 -11 -20.5t-12 -18.5l-80 -26q34 45 55 122l39 11
q3 11 5 19.5t4 16.5l77 25q-8 -47 -46 -119zM349 529q-5 -11 -11 -20.5t-12 -18.5l-80 -26q34 45 55 122l39 11q3 11 5 19.5t4 16.5l77 25q-8 -47 -46 -119z" />
    <glyph glyph-name="aring" unicode="&#xe5;" horiz-adv-x="356" 
d="M258 -38q-13 12 -13 33q0 11 5 33q-15 -9 -36 -18.5t-42.5 -17t-41 -12.5t-31.5 -5q-18 0 -25 7l-37 -11q-19 12 -19 44t20 75l45 15q23 71 36.5 113.5t19.5 56.5q13 31 30.5 53t44.5 40t68 33t101 32l29 10l10 -25l56 17q-3 -48 -10 -83.5t-17 -58.5l-41 -12l-51 -130
q-33 -86 -33 -131q0 -24 10 -31zM281 110q38 93 56 156t19 98q0 38 -25 38q-8 0 -19 -2t-26 -14.5t-34.5 -40t-42.5 -78.5q-70 -153 -70 -220q0 -40 20 -40q8 0 23.5 6t31 15t29 18.5t18.5 16.5zM445 487q53 37 53 104q0 18 -5.5 34.5t-15 29.5t-22 20.5t-27.5 7.5
q-18 0 -34.5 -9.5t-29 -24.5t-20 -33.5t-7.5 -36.5q0 -20 8.5 -37t22.5 -29t33 -19t39 -7h5zM483 490q-86 -31 -109 -31q-20 0 -39 7t-33.5 19.5t-23 29.5t-8.5 37q0 46 27 77t62.5 49.5t70 26.5t49.5 8q42 0 65 -28.5t23 -73.5q0 -90 -84 -121z" />
    <glyph glyph-name="ae" unicode="&#xe6;" horiz-adv-x="574" 
d="M579 89q-86 -104 -191 -104q-21 0 -62 41v-6q0 -23 3 -38l-71 -20q-13 13 -13 33q0 11 5 33q-15 -9 -36.5 -18.5t-43 -17t-41 -12.5t-30.5 -5q-19 0 -25 7l-37 -11q-19 10 -19 44q0 30 20 75l45 15q22 69 37 114.5t29.5 75.5t32.5 48t47.5 32.5t73 29.5t109.5 38l10 -25
l56 17q-3 -37 -9 -58q56 34 135 58q13 -9 22 -31l56 17q1 -4 1 -9v-9q0 -20 -7 -42t-20 -47l-30 -4q-19 -41 -108 -85l-135 -55q-6 -27 -6 -61q0 -44 12 -71.5t35 -27.5q31 0 75 54zM261 63q45 116 70 187.5t25 113.5q0 38 -25 38q-8 0 -19 -2t-26 -14.5t-34 -40t-43 -78.5
q-36 -77 -53 -132.5t-17 -87.5q0 -40 20 -40q8 0 23 6t31 15t29.5 18.5t18.5 16.5zM533 402q-105 -74 -144 -212q36 11 68 28t56.5 36.5t38.5 41t14 42.5q0 32 -33 64z" />
    <glyph glyph-name="ccedilla" unicode="&#xe7;" horiz-adv-x="350" 
d="M259 36l80 25q-14 -17 -35.5 -32.5t-45.5 -28.5t-48 -20.5t-43 -7.5q-18 0 -29 4l-31 -9q-11 3 -18 7t-12 13.5t-9 27.5t-9 48l41 13q11 251 215 329l36 17q12 5 21 6.5t17 2.5q17 0 26 -16l39 12q10 -21 10 -50q0 -11 -1.5 -24.5t-5.5 -30.5l-78 -26l9 42l-30 -9
q6 13 6 28q0 43 -26 43q-4 0 -6 -1q-30 -17 -59.5 -53.5t-52.5 -81t-37 -91.5t-14 -86t14.5 -62.5t41.5 -23.5q13 0 21 14zM214 -41q0 -1 1.5 -8t3.5 -15.5t3.5 -17.5t1.5 -14q0 -11 -8 -20.5t-26.5 -19.5t-50 -21t-78.5 -25q86 41 86 61q0 6 -1.5 15.5t-3.5 18t-3.5 14.5
t-1.5 7z" />
    <glyph glyph-name="egrave" unicode="&#xe8;" horiz-adv-x="343" 
d="M363 89q-87 -104 -192 -104q-11 0 -22 2t-22 5l-26 -10q-18 -6 -25 -6q-24 0 -24 52q0 25 4 40l24 8q3 69 21.5 124.5t56 99.5t94.5 77t136 58q12 -8 23 -31l54 17q1 -4 1 -8.5v-9.5q0 -41 -27 -89l-28 -4q-21 -42 -109 -85l-135 -55q-6 -29 -6 -61q0 -45 12.5 -72
t34.5 -27q31 0 75 54zM317 402q-107 -75 -145 -212q37 12 69.5 29t56.5 36.5t38 40.5t14 42q0 32 -33 64zM437 486q-79 10 -139 136l68 26q59 -125 146 -135z" />
    <glyph glyph-name="eacute" unicode="&#xe9;" horiz-adv-x="343" 
d="M363 89q-87 -104 -192 -104q-11 0 -22 2t-22 5l-26 -10q-18 -6 -25 -6q-24 0 -24 52q0 25 4 40l24 8q3 69 21.5 124.5t56 99.5t94.5 77t136 58q12 -8 23 -31l54 17q1 -4 1 -8.5v-9.5q0 -41 -27 -89l-28 -4q-21 -42 -109 -85l-135 -55q-6 -29 -6 -61q0 -45 12.5 -72
t34.5 -27q31 0 75 54zM317 402q-107 -75 -145 -212q37 12 69.5 29t56.5 36.5t38 40.5t14 42q0 32 -33 64zM285 481l-1 5q76 34 156 143l74 27q-30 -39 -51 -64.5t-38.5 -42t-34 -26t-37.5 -17.5z" />
    <glyph glyph-name="ecircumflex" unicode="&#xea;" horiz-adv-x="343" 
d="M363 89q-87 -104 -192 -104q-11 0 -22 2t-22 5l-26 -10q-18 -6 -25 -6q-24 0 -24 52q0 25 4 40l24 8q3 69 21.5 124.5t56 99.5t94.5 77t136 58q12 -8 23 -31l54 17q1 -4 1 -8.5v-9.5q0 -41 -27 -89l-28 -4q-21 -42 -109 -85l-135 -55q-6 -29 -6 -61q0 -45 12.5 -72
t34.5 -27q31 0 75 54zM317 402q-107 -75 -145 -212q37 12 69.5 29t56.5 36.5t38 40.5t14 42q0 32 -33 64zM473 478q-21 18 -34 44.5t-21 61.5q-30 -42 -91 -67q-35 -16 -59 -16q16 5 27.5 11.5t22.5 13.5q15 10 25.5 22t20 27t20 33.5t24.5 41.5l69 25q0 -49 13 -92t54 -78z
" />
    <glyph glyph-name="edieresis" unicode="&#xeb;" horiz-adv-x="343" 
d="M363 89q-87 -104 -192 -104q-11 0 -22 2t-22 5l-26 -10q-18 -6 -25 -6q-24 0 -24 52q0 25 4 40l24 8q3 69 21.5 124.5t56 99.5t94.5 77t136 58q12 -8 23 -31l54 17q1 -4 1 -8.5v-9.5q0 -41 -27 -89l-28 -4q-21 -42 -109 -85l-135 -55q-6 -29 -6 -61q0 -45 12.5 -72
t34.5 -27q31 0 75 54zM317 402q-107 -75 -145 -212q37 12 69.5 29t56.5 36.5t38 40.5t14 42q0 32 -33 64zM503 505q-5 -11 -11 -20.5t-12 -18.5l-80 -26q34 45 55 122l39 11q3 11 5 19.5t4 16.5l77 25q-8 -47 -46 -119zM347 505q-5 -11 -11 -20.5t-12 -18.5l-80 -26
q34 45 55 122l39 11q3 11 5 19.5t4 16.5l77 25q-8 -47 -46 -119z" />
    <glyph glyph-name="igrave" unicode="&#xec;" horiz-adv-x="201" 
d="M64 -32q-1 11 -1.5 21.5t-0.5 20.5q0 31 6 58l44 14q15 68 26 113.5t22 77.5t23 55.5t29 48.5l80 26q-21 -31 -37.5 -73.5t-30.5 -91t-26 -102t-24 -106.5l-33 -11l1 -27zM316 448q-79 10 -139 136l68 26q59 -125 146 -135z" />
    <glyph glyph-name="iacute" unicode="&#xed;" horiz-adv-x="201" 
d="M64 -32q-1 11 -1.5 21.5t-0.5 20.5q0 31 6 58l44 14q15 68 26 113.5t22 77.5t23 55.5t29 48.5l80 26q-21 -31 -37.5 -73.5t-30.5 -91t-26 -102t-24 -106.5l-33 -11l1 -27zM190 446l-1 5q76 34 156 143l74 27q-30 -39 -51 -64.5t-38.5 -42t-34 -26t-37.5 -17.5z" />
    <glyph glyph-name="icircumflex" unicode="&#xee;" horiz-adv-x="252" 
d="M90 -32q-1 11 -1.5 21.5t-0.5 20.5q0 31 6 58l44 14q15 68 26 113.5t22 77.5t23 55.5t29 48.5l80 26q-21 -31 -37.5 -73.5t-30.5 -91t-26 -102t-24 -106.5l-33 -11l1 -27zM384 416q-21 18 -34 44.5t-21 61.5q-30 -42 -91 -67q-35 -16 -59 -16q16 5 27.5 11.5t22.5 13.5
q15 10 25.5 22t20 27t20 33.5t24.5 41.5l69 25q0 -49 13 -92t54 -78z" />
    <glyph glyph-name="idieresis" unicode="&#xef;" horiz-adv-x="261" 
d="M90 -32q-1 11 -1.5 21.5t-0.5 20.5q0 31 6 58l44 14q15 68 26 113.5t22 77.5t23 55.5t29 48.5l80 26q-21 -31 -37.5 -73.5t-30.5 -91t-26 -102t-24 -106.5l-33 -11l1 -27zM429 495q-5 -11 -11 -20.5t-12 -18.5l-80 -26q34 45 55 122l39 11q3 11 5 19.5t4 16.5l77 25
q-8 -47 -46 -119zM273 495q-5 -11 -11 -20.5t-12 -18.5l-80 -26q34 45 55 122l39 11q3 11 5 19.5t4 16.5l77 25q-8 -47 -46 -119z" />
    <glyph glyph-name="eth" unicode="&#xf0;" horiz-adv-x="337" 
d="M130 -28l-25 20l-25 -9q-46 15 -46 69q0 14 4 25l40 12q9 72 29 126t50 93t70 65.5t89 43.5l54 18q1 -1 6.5 -6t18.5 -14q2 17 3 33.5t1 33.5t-1.5 33t-3.5 30q-44 -35 -72.5 -54.5t-33.5 -21.5q-5 -1 -21.5 -4t-46.5 -7q38 29 64 49.5t44.5 35t31 25.5t23.5 20
q-20 62 -62 106l69 44q38 -39 58 -100l52 36l67 11q-18 -14 -46 -36t-63 -51q4 -20 5.5 -40t1.5 -41q0 -42 -5.5 -83t-15.5 -82q-14 -55 -32.5 -111.5t-46.5 -105.5t-66.5 -86t-91.5 -52zM185 18q30 0 59.5 29t52.5 75t37 102.5t14 111.5t-34 55q-31 0 -60 -30.5
t-51.5 -77.5t-36.5 -103t-14 -108q0 -54 33 -54z" />
    <glyph glyph-name="ntilde" unicode="&#xf1;" horiz-adv-x="378" 
d="M409 137q0 -115 -213 -210q53 35 96 94q-21 -15 -33.5 -23.5t-24.5 -14t-27 -9t-39 -9.5q119 60 148 132q5 11 8 43t6 85q3 78 60 138l-157 -88q-5 -11 -18 -49t-34 -104l32 10q-15 -84 -64 -142l-79 -26l34 55l-31 -10q11 42 31 102t49 141l-37 -12q4 12 15 35
t22.5 48.5t22 48t15.5 33.5l79 26q-5 -11 -10 -23.5t-12 -25.5l35 11l-43 -93q89 49 160.5 81.5t127.5 50.5q-71 -42 -95 -90q-6 -14 -11 -41t-10 -58.5t-11.5 -62t-15.5 -50.5zM555 637q-5 -8 -11.5 -22.5t-12.5 -35.5q-9 -28 -16.5 -46.5t-15.5 -30t-17 -18t-20 -10.5
q-72 -28 -81 -28q-16 0 -23.5 15.5t-12 38t-8.5 47.5t-12 44q-35 -51 -35 -88v-6l-69 -25v4q0 15 6.5 35t17 39t23.5 34t27 20l68 25q6 2 10 2q22 0 33 -65q10 -71 24 -85q6 8 13 26.5t14.5 39t13.5 38.5t11 26z" />
    <glyph glyph-name="ograve" unicode="&#xf2;" horiz-adv-x="337" 
d="M130 -28l-25 20l-25 -9q-46 15 -46 69q0 14 4 25l40 12q9 72 29 126t50 93t70 65.5t89 43.5l54 18q1 -1 7 -6t20 -15l61 19q2 -8 3 -18t1 -19q0 -22 -4.5 -45t-12.5 -46l-26 -8q-38 -240 -212 -300zM185 18q30 0 59.5 29t52.5 75t37 102.5t14 111.5t-34 55
q-31 0 -60 -30.5t-51.5 -77.5t-36.5 -103t-14 -108q0 -54 33 -54zM438 455q-79 10 -139 136l68 26q59 -125 146 -135z" />
    <glyph glyph-name="oacute" unicode="&#xf3;" horiz-adv-x="337" 
d="M130 -28l-25 20l-25 -9q-46 15 -46 69q0 14 4 25l40 12q9 72 29 126t50 93t70 65.5t89 43.5l54 18q1 -1 7 -6t20 -15l61 19q2 -8 3 -18t1 -19q0 -22 -4.5 -45t-12.5 -46l-26 -8q-38 -240 -212 -300zM185 18q30 0 59.5 29t52.5 75t37 102.5t14 111.5t-34 55
q-31 0 -60 -30.5t-51.5 -77.5t-36.5 -103t-14 -108q0 -54 33 -54zM304 457l-1 5q76 34 156 143l74 27q-30 -39 -51 -64.5t-38.5 -42t-34 -26t-37.5 -17.5z" />
    <glyph glyph-name="ocircumflex" unicode="&#xf4;" horiz-adv-x="337" 
d="M130 -28l-25 20l-25 -9q-46 15 -46 69q0 14 4 25l40 12q9 72 29 126t50 93t70 65.5t89 43.5l54 18q1 -1 7 -6t20 -15l61 19q2 -8 3 -18t1 -19q0 -22 -4.5 -45t-12.5 -46l-26 -8q-38 -240 -212 -300zM185 18q30 0 59.5 29t52.5 75t37 102.5t14 111.5t-34 55
q-31 0 -60 -30.5t-51.5 -77.5t-36.5 -103t-14 -108q0 -54 33 -54zM450 451q-21 18 -34 44.5t-21 61.5q-30 -42 -91 -67q-35 -16 -59 -16q16 5 27.5 11.5t22.5 13.5q15 10 25.5 22t20 27t20 33.5t24.5 41.5l69 25q0 -49 13 -92t54 -78z" />
    <glyph glyph-name="otilde" unicode="&#xf5;" horiz-adv-x="337" 
d="M130 -28l-25 20l-25 -9q-46 15 -46 69q0 14 4 25l40 12q9 72 29 126t50 93t70 65.5t89 43.5l54 18q1 -1 7 -6t20 -15l61 19q2 -8 3 -18t1 -19q0 -22 -4.5 -45t-12.5 -46l-26 -8q-38 -240 -212 -300zM185 18q30 0 59.5 29t52.5 75t37 102.5t14 111.5t-34 55
q-31 0 -60 -30.5t-51.5 -77.5t-36.5 -103t-14 -108q0 -54 33 -54zM576 650q-5 -8 -11.5 -22.5t-12.5 -35.5q-9 -28 -16.5 -46.5t-15.5 -30t-17 -18t-20 -10.5q-72 -28 -81 -28q-16 0 -23.5 15.5t-12 38t-8.5 47.5t-12 44q-35 -51 -35 -88v-6l-69 -25v4q0 15 6.5 35t17 39
t23.5 34t27 20l68 25q6 2 10 2q22 0 33 -65q10 -71 24 -85q6 8 13 26.5t14.5 39t13.5 38.5t11 26z" />
    <glyph glyph-name="odieresis" unicode="&#xf6;" horiz-adv-x="337" 
d="M130 -28l-25 20l-25 -9q-46 15 -46 69q0 14 4 25l40 12q9 72 29 126t50 93t70 65.5t89 43.5l54 18q1 -1 7 -6t20 -15l61 19q2 -8 3 -18t1 -19q0 -22 -4.5 -45t-12.5 -46l-26 -8q-38 -240 -212 -300zM185 18q30 0 59.5 29t52.5 75t37 102.5t14 111.5t-34 55
q-31 0 -60 -30.5t-51.5 -77.5t-36.5 -103t-14 -108q0 -54 33 -54zM505 511q-5 -11 -11 -20.5t-12 -18.5l-80 -26q34 45 55 122l39 11q3 11 5 19.5t4 16.5l77 25q-8 -47 -46 -119zM349 511q-5 -11 -11 -20.5t-12 -18.5l-80 -26q34 45 55 122l39 11q3 11 5 19.5t4 16.5l77 25
q-8 -47 -46 -119z" />
    <glyph glyph-name="oslash" unicode="&#xf8;" horiz-adv-x="337" 
d="M105 -8l-25 -9q-46 14 -46 69q0 16 4 25l40 12q16 134 76.5 216.5t161.5 111.5q12 3 25 7.5t29 10.5q1 -1 7 -6t20 -15l61 19q4 -15 4 -33q0 -5 -4.5 -29t-12.5 -66l-26 -8q-38 -241 -212 -300q-13 -5 -32 -10.5t-45 -14.5zM348 339q-2 52 -34 52q-21 0 -46.5 -19
t-49.5 -55.5t-42 -91t-23 -124.5q53 66 101 125t94 113zM345 294q-23 -30 -52 -66.5t-56.5 -70t-50.5 -60.5t-34 -39q4 -40 33 -40q22 0 47 17t47.5 51.5t40 86.5t25.5 121z" />
    <glyph glyph-name="ugrave" unicode="&#xf9;" horiz-adv-x="349" 
d="M232 -68l20 40l-36 -11l17 36l-61 -21q-36 -12 -63 -12q-41 0 -41 35q0 30 94 267l-55 -18q9 20 22 48.5t25.5 54.5t21 44t8.5 17l77 25l-19 -40l44 14q-26 -67 -51.5 -133t-45.5 -120t-32.5 -90.5t-12.5 -43.5q0 -34 28 -34q32 0 70 28q150 321 151 378l77 25
q-2 -56 -127 -331l39 13q-5 -15 -13.5 -33.5t-20.5 -40.5l-38 -72zM408 460q-79 10 -139 136l68 26q59 -125 146 -135z" />
    <glyph glyph-name="uacute" unicode="&#xfa;" horiz-adv-x="349" 
d="M232 -68l20 40l-36 -11l17 36l-61 -21q-36 -12 -63 -12q-41 0 -41 35q0 30 94 267l-55 -18q9 20 22 48.5t25.5 54.5t21 44t8.5 17l77 25l-19 -40l44 14q-26 -67 -51.5 -133t-45.5 -120t-32.5 -90.5t-12.5 -43.5q0 -34 28 -34q32 0 70 28q150 321 151 378l77 25
q-2 -56 -127 -331l39 13q-5 -15 -13.5 -33.5t-20.5 -40.5l-38 -72zM286 450l-1 5q76 34 156 143l74 27q-30 -39 -51 -64.5t-38.5 -42t-34 -26t-37.5 -17.5z" />
    <glyph glyph-name="ucircumflex" unicode="&#xfb;" horiz-adv-x="349" 
d="M232 -68l20 40l-36 -11l17 36l-61 -21q-36 -12 -63 -12q-41 0 -41 35q0 30 94 267l-55 -18q9 20 22 48.5t25.5 54.5t21 44t8.5 17l77 25l-19 -40l44 14q-26 -67 -51.5 -133t-45.5 -120t-32.5 -90.5t-12.5 -43.5q0 -34 28 -34q32 0 70 28q150 321 151 378l77 25
q-2 -56 -127 -331l39 13q-5 -15 -13.5 -33.5t-20.5 -40.5l-38 -72zM430 448q-21 18 -34 44.5t-21 61.5q-30 -42 -91 -67q-35 -16 -59 -16q16 5 27.5 11.5t22.5 13.5q15 10 25.5 22t20 27t20 33.5t24.5 41.5l69 25q0 -49 13 -92t54 -78z" />
    <glyph glyph-name="udieresis" unicode="&#xfc;" horiz-adv-x="349" 
d="M232 -68l20 40l-36 -11l17 36l-61 -21q-36 -12 -63 -12q-41 0 -41 35q0 30 94 267l-55 -18q9 20 22 48.5t25.5 54.5t21 44t8.5 17l77 25l-19 -40l44 14q-26 -67 -51.5 -133t-45.5 -120t-32.5 -90.5t-12.5 -43.5q0 -34 28 -34q32 0 70 28q150 321 151 378l77 25
q-2 -56 -127 -331l39 13q-5 -15 -13.5 -33.5t-20.5 -40.5l-38 -72zM480 502q-5 -11 -11 -20.5t-12 -18.5l-80 -26q34 45 55 122l39 11q3 11 5 19.5t4 16.5l77 25q-8 -47 -46 -119zM324 502q-5 -11 -11 -20.5t-12 -18.5l-80 -26q34 45 55 122l39 11q3 11 5 19.5t4 16.5l77 25
q-8 -47 -46 -119z" />
    <glyph glyph-name="yacute" unicode="&#xfd;" horiz-adv-x="369" 
d="M187 -163q-48 -24 -77.5 -31.5t-57.5 -7.5q-19 0 -28 9l-24 -8q-30 7 -30 55q0 9 1.5 18t3.5 19l77 25l-3 -19l32 11q-1 -5 -1 -14q0 -13 3.5 -25.5t9.5 -23t14 -17t17 -6.5q41 0 83 81q14 27 28 56.5t23 61.5q-9 -4 -36.5 -14t-73.5 -25q-4 24 -5.5 47.5t-1.5 46.5
q0 48 7 94.5t21 92.5l-34 -12v10q0 34 21.5 72t46.5 79l78 26l-27 -44l41 13q-77 -163 -77 -306q0 -18 1 -36.5t3 -38.5q71 55 119 171l71 200l78 25q-5 -11 -16 -42.5t-24 -69t-26.5 -73.5t-22.5 -55h1q-9 -23 -26 -60t-35 -73.5t-32.5 -66.5t-17.5 -39l37 12
q-48 -120 -177 -156zM272 491l-1 5q76 34 156 143l74 27q-30 -39 -51 -64.5t-38.5 -42t-34 -26t-37.5 -17.5z" />
    <glyph glyph-name="thorn" unicode="&#xfe;" horiz-adv-x="384" 
d="M-18 -190q78 52 103 187q17 85 28.5 138.5t21.5 78.5t25 60t30 69.5t28 64.5t19 47l-32 -9q12 52 12 80q0 41 -21 61l79 26l13 -21l28 10q12 -20 12 -48t-12.5 -69t-38.5 -96q35 21 120 46l36 -31q19 -19 19 -42q0 -70 -19.5 -134.5t-52 -114t-75.5 -79t-89 -29.5
q-25 0 -55 9q-5 -50 -19 -85l39 13q-15 -34 -31.5 -58t-36.5 -41.5t-46.5 -30t-62.5 -22.5q12 11 22 20.5t20 20.5zM213 24q28 0 57 28t52.5 72.5t38 100t14.5 111.5t-32 56q-12 0 -28.5 -10t-32 -25t-29 -32t-20.5 -31q-11 -23 -20.5 -50t-17 -56.5t-11.5 -59t-4 -56.5
q0 -48 33 -48z" />
    <glyph glyph-name="ydieresis" unicode="&#xff;" horiz-adv-x="369" 
d="M187 -163q-48 -24 -77.5 -31.5t-57.5 -7.5q-19 0 -28 9l-24 -8q-30 7 -30 55q0 9 1.5 18t3.5 19l77 25l-3 -19l32 11q-1 -5 -1 -14q0 -13 3.5 -25.5t9.5 -23t14 -17t17 -6.5q41 0 83 81q14 27 28 56.5t23 61.5q-9 -4 -36.5 -14t-73.5 -25q-4 24 -5.5 47.5t-1.5 46.5
q0 48 7 94.5t21 92.5l-34 -12v10q0 34 21.5 72t46.5 79l78 26l-27 -44l41 13q-77 -163 -77 -306q0 -18 1 -36.5t3 -38.5q71 55 119 171l71 200l78 25q-5 -11 -16 -42.5t-24 -69t-26.5 -73.5t-22.5 -55h1q-9 -23 -26 -60t-35 -73.5t-32.5 -66.5t-17.5 -39l37 12
q-48 -120 -177 -156zM485 496q-5 -11 -11 -20.5t-12 -18.5l-80 -26q34 45 55 122l39 11q3 11 5 19.5t4 16.5l77 25q-8 -47 -46 -119zM329 496q-5 -11 -11 -20.5t-12 -18.5l-80 -26q34 45 55 122l39 11q3 11 5 19.5t4 16.5l77 25q-8 -47 -46 -119z" />
    <glyph glyph-name="Amacron" unicode="&#x100;" horiz-adv-x="739" 
d="M728 -9q-13 -5 -24.5 -7.5t-20.5 -2.5q-17 0 -28 7q-21 -12 -36 -12q-32 0 -32 51q0 65 47 191q-42 -7 -104 -9q-60 -68 -101 -112t-73.5 -74.5t-61 -52t-63.5 -44.5q46 -14 93 -38.5t94 -48t95 -41t96 -17.5q137 0 294 92q-70 -51 -136 -76.5t-129 -25.5q-35 0 -70.5 8
t-73.5 23q-12 4 -46.5 20t-76.5 35.5t-84 37t-68 24.5q-104 -68 -177 -68q-60 0 -60 38q0 12 9.5 23t25.5 19t38 12.5t46 4.5q55 0 123 -21q23 16 42.5 30t38.5 29.5t39 34.5t45 45t56.5 61t73.5 82l-39 -4q-147 -164 -337 -180q41 14 82.5 27.5t74.5 36.5l-79 -25
q173 99 306 279l-25 1q-36 -48 -57.5 -76.5t-37.5 -44.5t-31 -24t-37 -15q16 9 33.5 26.5t35.5 39.5t36.5 46.5t36.5 47.5h-17q-117 -154 -169 -169q78 61 159 170h-57q14 8 37 8q6 0 12 -0.5t12 -1.5q15 21 29.5 42t29 39t27.5 31t25 18q-7 -7 -31.5 -39.5t-68.5 -90.5
l16 -1q22 30 44.5 60t45 55.5t45.5 45t48 29.5q-55 -49 -161 -190h24q46 61 74.5 98.5t48.5 60t37 35.5t40 26l-149 -12q-83 -14 -109 -86l-78 -25q23 68 62 124l79 27l-29 -49q26 7 60 13.5t72 12.5t79 11l82 10l7 18q-8 32 -43.5 51t-80.5 19q-35 0 -56 -12.5t-21 -33.5
q0 -20 13 -20q16 0 24 14q-5 -21 -24 -21q-25 0 -25 22q0 26 27 41.5t64 15.5q24 0 46 -5t40 -14.5t30.5 -22.5t17.5 -28l67 21l-59 -142l-32 -11l-78 -219q-29 -78 -41.5 -130.5t-12.5 -81.5l40 14q8 -21 14 -33.5t12 -19.5t12.5 -9t15.5 -2q5 0 8 0.5t7 1.5v-3zM624 -69
q-38 0 -61 29.5t-23 71.5q0 38 22 57q-11 -25 -11 -54q0 -87 77 -104h-4zM532 222q52 57 86 98t56.5 75.5t37.5 67.5t30 74q-16 -17 -39 -44.5t-48.5 -60.5t-51.5 -67t-48.5 -64t-40 -52.5t-25.5 -31.5q8 1 18.5 2t24.5 3zM641 238q11 29 26.5 75.5t36.5 111.5
q-19 -32 -59 -81.5t-102 -118.5q39 7 63.5 10t34.5 3zM214 -80q-72 22 -127 22q-42 0 -67 -13t-25 -35q0 -19 17.5 -29t39.5 -10q60 0 162 65zM608 703q14 11 25.5 20.5t28 17t42.5 13t69 8.5l156 11q-15 -11 -26.5 -20.5t-28 -17t-42.5 -13.5t-68 -9z" />
    <glyph glyph-name="amacron" unicode="&#x101;" horiz-adv-x="356" 
d="M258 -38q-13 12 -13 33q0 11 5 33q-15 -9 -36 -18.5t-42.5 -17t-41 -12.5t-31.5 -5q-18 0 -25 7l-37 -11q-19 12 -19 44t20 75l45 15q23 71 36.5 113.5t19.5 56.5q13 31 30.5 53t44.5 40t68 33t101 32l29 10l10 -25l56 17q-3 -48 -10 -83.5t-17 -58.5l-41 -12l-51 -130
q-33 -86 -33 -131q0 -24 10 -31zM281 110q38 93 56 156t19 98q0 38 -25 38q-8 0 -19 -2t-26 -14.5t-34.5 -40t-42.5 -78.5q-70 -153 -70 -220q0 -40 20 -40q8 0 23.5 6t31 15t29 18.5t18.5 16.5zM221 501q14 11 25.5 20.5t28 17t42.5 13t69 8.5l156 11q-15 -11 -26.5 -20.5
t-28 -17t-42.5 -13.5t-68 -9z" />
    <glyph glyph-name="Abreve" unicode="&#x102;" horiz-adv-x="739" 
d="M728 -9q-13 -5 -24.5 -7.5t-20.5 -2.5q-17 0 -28 7q-21 -12 -36 -12q-32 0 -32 51q0 65 47 191q-42 -7 -104 -9q-60 -68 -101 -112t-73.5 -74.5t-61 -52t-63.5 -44.5q46 -14 93 -38.5t94 -48t95 -41t96 -17.5q137 0 294 92q-70 -51 -136 -76.5t-129 -25.5q-35 0 -70.5 8
t-73.5 23q-12 4 -46.5 20t-76.5 35.5t-84 37t-68 24.5q-104 -68 -177 -68q-60 0 -60 38q0 12 9.5 23t25.5 19t38 12.5t46 4.5q55 0 123 -21q23 16 42.5 30t38.5 29.5t39 34.5t45 45t56.5 61t73.5 82l-39 -4q-147 -164 -337 -180q41 14 82.5 27.5t74.5 36.5l-79 -25
q173 99 306 279l-25 1q-36 -48 -57.5 -76.5t-37.5 -44.5t-31 -24t-37 -15q16 9 33.5 26.5t35.5 39.5t36.5 46.5t36.5 47.5h-17q-117 -154 -169 -169q78 61 159 170h-57q14 8 37 8q6 0 12 -0.5t12 -1.5q15 21 29.5 42t29 39t27.5 31t25 18q-7 -7 -31.5 -39.5t-68.5 -90.5
l16 -1q22 30 44.5 60t45 55.5t45.5 45t48 29.5q-55 -49 -161 -190h24q46 61 74.5 98.5t48.5 60t37 35.5t40 26l-149 -12q-83 -14 -109 -86l-78 -25q23 68 62 124l79 27l-29 -49q26 7 60 13.5t72 12.5t79 11l82 10l7 18q-6 21 -25 37q-34 -10 -48 -10q-26 0 -49 10.5
t-39 27.5q-40 -11 -40 -41q0 -20 13 -20q16 0 24 14q-5 -21 -24 -21q-25 0 -25 22q0 18 13.5 30.5t34.5 20.5q-18 23 -18 52q0 22 7 41t18 34l66 15q-9 -14 -14.5 -30.5t-5.5 -30.5q0 -21 9 -38.5t24 -30t35 -19.5t41 -7h5q56 37 56 105q0 8 -1.5 15t-3.5 13l72 30
q5 -20 5 -37q0 -89 -88 -124l-54 -17q18 -17 24 -35l67 21l-59 -142l-32 -11l-78 -219q-29 -78 -41.5 -130.5t-12.5 -81.5l40 14q8 -21 14 -33.5t12 -19.5t12.5 -9t15.5 -2q5 0 8 0.5t7 1.5v-3zM214 -80q-72 22 -127 22q-42 0 -67 -13t-25 -35q0 -19 17.5 -29t39.5 -10
q60 0 162 65zM532 222q52 57 86 98t56.5 75.5t37.5 67.5t30 74q-16 -17 -39 -44.5t-48.5 -60.5t-51.5 -67t-48.5 -64t-40 -52.5t-25.5 -31.5q8 1 18.5 2t24.5 3zM641 238q11 29 26.5 75.5t36.5 111.5q-19 -32 -59 -81.5t-102 -118.5q39 7 63.5 10t34.5 3zM624 -69
q-38 0 -61 29.5t-23 71.5q0 38 22 57q-11 -25 -11 -54q0 -87 77 -104h-4z" />
    <glyph glyph-name="abreve" unicode="&#x103;" horiz-adv-x="356" 
d="M258 -38q-13 12 -13 33q0 11 5 33q-15 -9 -36 -18.5t-42.5 -17t-41 -12.5t-31.5 -5q-18 0 -25 7l-37 -11q-19 12 -19 44t20 75l45 15q23 71 36.5 113.5t19.5 56.5q13 31 30.5 53t44.5 40t68 33t101 32l29 10l10 -25l56 17q-3 -48 -10 -83.5t-17 -58.5l-41 -12l-51 -130
q-33 -86 -33 -131q0 -24 10 -31zM281 110q38 93 56 156t19 98q0 38 -25 38q-8 0 -19 -2t-26 -14.5t-34.5 -40t-42.5 -78.5q-70 -153 -70 -220q0 -40 20 -40q8 0 23.5 6t31 15t29 18.5t18.5 16.5zM451 501q56 38 56 105q0 8 -1.5 14.5t-3.5 13.5l71 30q6 -20 6 -38
q0 -88 -89 -123q-46 -15 -74.5 -23t-40.5 -8q-21 0 -40.5 7t-35 20t-24.5 30t-9 37q0 22 7 41t18 35l65 15q-8 -14 -13.5 -31t-5.5 -31q0 -21 9 -38.5t24 -29.5t34.5 -19t41.5 -7h5z" />
    <glyph glyph-name="Aogonek" unicode="&#x104;" horiz-adv-x="739" 
d="M774 -136q-12 -13 -34 -26t-47.5 -23.5t-50.5 -17t-44 -6.5q-17 0 -24 7l-31 -9q35 -8 66 -8q137 0 294 92q-70 -51 -136 -76.5t-129 -25.5q-35 0 -70.5 8t-73.5 23q-12 4 -46.5 20t-76.5 35.5t-84 37t-68 24.5q-104 -68 -177 -68q-60 0 -60 38q0 12 9.5 23t25.5 19
t38 12.5t46 4.5q55 0 123 -21q23 16 42.5 30t38.5 29.5t39 34.5t45 45t56.5 61t73.5 82l-39 -4q-147 -164 -337 -180q41 14 82.5 27.5t74.5 36.5l-79 -25q173 99 306 279l-25 1q-36 -48 -57.5 -76.5t-37.5 -44.5t-31 -24t-37 -15q16 9 33.5 26.5t35.5 39.5t36.5 46.5
t36.5 47.5h-17q-117 -154 -169 -169q78 61 159 170h-57q14 8 37 8q6 0 12 -0.5t12 -1.5q15 21 29.5 42t29 39t27.5 31t25 18q-7 -7 -31.5 -39.5t-68.5 -90.5l16 -1q22 30 44.5 60t45 55.5t45.5 45t48 29.5q-55 -49 -161 -190h24q46 61 74.5 98.5t48.5 60t37 35.5t40 26
l-149 -12q-83 -14 -109 -86l-78 -25q23 68 62 124l79 27l-29 -49q26 7 60 13.5t72 12.5t79 11l82 10l7 18q-8 32 -43.5 51t-80.5 19q-35 0 -56 -12.5t-21 -33.5q0 -20 13 -20q16 0 24 14q-5 -21 -24 -21q-25 0 -25 22q0 26 27 41.5t64 15.5q24 0 46 -5t40 -14.5t30.5 -22.5
t17.5 -28l67 21l-59 -142l-32 -11l-78 -219q-29 -78 -41.5 -130.5t-12.5 -81.5l40 14q8 -21 14 -33.5t12 -19.5t12.5 -9t15.5 -2q5 0 8 0.5t7 1.5v-3q-32 -11 -57 -30.5t-42 -42t-25.5 -44.5t-8.5 -37q0 -29 20 -29q26 0 42 9t30 23zM597 -63q-26 9 -41.5 35.5t-15.5 59.5
q0 38 22 57q-11 -25 -11 -54q0 -73 51 -95q27 23 70 42q-10 2 -17 6q-21 -12 -36 -12q-32 0 -32 51q0 65 47 191q-42 -7 -104 -9q-60 -68 -101 -112t-73.5 -74.5t-61 -52t-63.5 -44.5q37 -11 74 -29t74 -37.5t75 -37.5t76 -29q-13 15 -13 38q0 17 5.5 35.5t15.5 39.5l45 15z
M214 -80q-72 22 -127 22q-42 0 -67 -13t-25 -35q0 -19 17.5 -29t39.5 -10q60 0 162 65zM532 222q52 57 86 98t56.5 75.5t37.5 67.5t30 74q-16 -17 -39 -44.5t-48.5 -60.5t-51.5 -67t-48.5 -64t-40 -52.5t-25.5 -31.5q8 1 18.5 2t24.5 3zM641 238q11 29 26.5 75.5t36.5 111.5
q-19 -32 -59 -81.5t-102 -118.5q39 7 63.5 10t34.5 3z" />
    <glyph glyph-name="aogonek" unicode="&#x105;" horiz-adv-x="356" 
d="M370 -136q-12 -13 -34 -26t-47.5 -23.5t-50.5 -17t-44 -6.5q-17 0 -25 7l-36 -11q-20 11 -20 44q0 17 5.5 35.5t15.5 39.5l45 15q14 16 31.5 28.5t38.5 23.5q-4 8 -4 22q0 11 5 33q-15 -9 -36 -18.5t-42.5 -17t-41 -12.5t-31.5 -5q-18 0 -25 7l-37 -11q-19 12 -19 44
t20 75l45 15q23 71 36.5 113.5t19.5 56.5q13 31 30.5 53t44.5 40t68 33t101 32l29 10l10 -25l56 17q-3 -48 -10 -83.5t-17 -58.5l-41 -12l-51 -130q-33 -86 -33 -131q0 -24 10 -31q-35 -15 -55 -33t-30.5 -36.5t-13 -36t-2.5 -31.5q0 -29 20 -29q26 0 42 9t30 23zM281 110
q38 93 56 156t19 98q0 38 -25 38q-8 0 -19 -2t-26 -14.5t-34.5 -40t-42.5 -78.5q-70 -153 -70 -220q0 -40 20 -40q8 0 23.5 6t31 15t29 18.5t18.5 16.5z" />
    <glyph glyph-name="Cacute" unicode="&#x106;" horiz-adv-x="511" 
d="M685 -34q-62 -19 -107.5 -32t-80 -22.5t-60 -15t-48 -8t-45 -3.5t-50.5 -1q-232 0 -232 199q0 100 60 225q-18 13 -18 35q0 20 13 44t32.5 44.5t42 34.5t41.5 14h5q43 43 89 63q-41 -25 -81 -65q32 -13 32 -39q0 -9 -5.5 -19.5t-14 -19t-18.5 -14.5t-19 -6q-10 0 -10 12
v5.5t2 7.5q-1 -3 -1 -7q0 -8 6 -8q7 0 15 6.5t15 16t11.5 19t4.5 15.5q0 20 -21 28q-65 -67 -109 -162q7 -6 14.5 -8.5t15.5 -2.5q39 0 92 56l72 90q23 28 46 48t45 33q6 3 23.5 11t40.5 16.5t48 15t46 6.5q37 0 68 -22l2 10l78 26q-13 -41 -30.5 -79t-39.5 -74l-79 -23
q20 31 33.5 57t23.5 48h-3q-1 0 -12.5 3.5t-28 8t-34 8.5t-29.5 4q-142 0 -232 -289l54 4l38 101q23 59 32 101l26 9q-5 -23 -13 -49.5t-19 -56.5l-41 -103h23l24 62l12 5l-25 -68l23 -9q-8 -1 -13 -1.5t-4 -0.5q-1 0 -9 2q-30 -74 -87 -225q7 -2 15.5 -3t16.5 -1
q55 0 183 61q-17 -17 -47.5 -33t-66 -29t-70.5 -20.5t-61 -7.5q-28 0 -47 8q-22 -11 -41 -11q-26 0 -41.5 21t-15.5 52v13l52 17q5 136 89 283q-13 -15 -29 -29.5t-33.5 -25.5t-34.5 -17.5t-32 -6.5q-14 0 -23 4q-55 -122 -55 -216q0 -97 57 -146.5t164 -49.5q42 0 90.5 6.5
t106.5 21.5zM294 250q-25 -79 -25 -137q0 -27 6 -45q10 23 27.5 69.5t43.5 118.5zM127 319q46 93 108 157q-17 0 -38 -13t-39 -32.5t-30 -41.5t-12 -41t11 -29zM392 256l-22 1l-81 -212l15 -14zM521 19q-21 -14 -48.5 -26.5t-55 -22.5t-53 -16t-41.5 -6q-27 0 -40 14
q5 -1 11.5 -2t14.5 -1q21 2 47.5 6.5t59.5 15.5zM474 583l-1 5q76 34 156 143l74 27q-30 -39 -51 -64.5t-38.5 -42t-34 -26t-37.5 -17.5z" />
    <glyph glyph-name="cacute" unicode="&#x107;" horiz-adv-x="350" 
d="M259 36l80 25q-14 -17 -35.5 -32.5t-45.5 -28.5t-48 -20.5t-43 -7.5q-18 0 -29 4l-31 -9q-11 3 -18 7t-12 13.5t-9 27.5t-9 48l41 13q11 251 215 329l36 17q12 5 21 6.5t17 2.5q17 0 26 -16l39 12q10 -21 10 -50q0 -11 -1.5 -24.5t-5.5 -30.5l-78 -26l9 42l-30 -9
q6 13 6 28q0 43 -26 43q-4 0 -6 -1q-30 -17 -59.5 -53.5t-52.5 -81t-37 -91.5t-14 -86t14.5 -62.5t41.5 -23.5q13 0 21 14zM303 450l-1 5q76 34 156 143l74 27q-30 -39 -51 -64.5t-38.5 -42t-34 -26t-37.5 -17.5z" />
    <glyph glyph-name="Cdotaccent" unicode="&#x10a;" horiz-adv-x="511" 
d="M685 -34q-62 -19 -107.5 -32t-80 -22.5t-60 -15t-48 -8t-45 -3.5t-50.5 -1q-232 0 -232 199q0 100 60 225q-18 13 -18 35q0 20 13 44t32.5 44.5t42 34.5t41.5 14h5q43 43 89 63q-41 -25 -81 -65q32 -13 32 -39q0 -9 -5.5 -19.5t-14 -19t-18.5 -14.5t-19 -6q-10 0 -10 12
v5.5t2 7.5q-1 -3 -1 -7q0 -8 6 -8q7 0 15 6.5t15 16t11.5 19t4.5 15.5q0 20 -21 28q-65 -67 -109 -162q7 -6 14.5 -8.5t15.5 -2.5q39 0 92 56l72 90q23 28 46 48t45 33q6 3 23.5 11t40.5 16.5t48 15t46 6.5q37 0 68 -22l2 10l78 26q-13 -41 -30.5 -79t-39.5 -74l-79 -23
q20 31 33.5 57t23.5 48h-3q-1 0 -12.5 3.5t-28 8t-34 8.5t-29.5 4q-142 0 -232 -289l54 4l38 101q23 59 32 101l26 9q-5 -23 -13 -49.5t-19 -56.5l-41 -103h23l24 62l12 5l-25 -68l23 -9q-8 -1 -13 -1.5t-4 -0.5q-1 0 -9 2q-30 -74 -87 -225q7 -2 15.5 -3t16.5 -1
q55 0 183 61q-17 -17 -47.5 -33t-66 -29t-70.5 -20.5t-61 -7.5q-28 0 -47 8q-22 -11 -41 -11q-26 0 -41.5 21t-15.5 52v13l52 17q5 136 89 283q-13 -15 -29 -29.5t-33.5 -25.5t-34.5 -17.5t-32 -6.5q-14 0 -23 4q-55 -122 -55 -216q0 -97 57 -146.5t164 -49.5q42 0 90.5 6.5
t106.5 21.5zM294 250q-25 -79 -25 -137q0 -27 6 -45q10 23 27.5 69.5t43.5 118.5zM127 319q46 93 108 157q-17 0 -38 -13t-39 -32.5t-30 -41.5t-12 -41t11 -29zM392 256l-22 1l-81 -212l15 -14zM521 19q-21 -14 -48.5 -26.5t-55 -22.5t-53 -16t-41.5 -6q-27 0 -40 14
q5 -1 11.5 -2t14.5 -1q21 2 47.5 6.5t59.5 15.5zM624 646q-5 -11 -10.5 -20.5t-11.5 -18.5l-80 -26q33 45 55 122l38 11q3 11 5 19.5t4 16.5l77 25q-4 -23 -14.5 -52.5t-30.5 -66.5z" />
    <glyph glyph-name="cdotaccent" unicode="&#x10b;" horiz-adv-x="350" 
d="M259 36l80 25q-14 -17 -35.5 -32.5t-45.5 -28.5t-48 -20.5t-43 -7.5q-18 0 -29 4l-31 -9q-11 3 -18 7t-12 13.5t-9 27.5t-9 48l41 13q11 251 215 329l36 17q12 5 21 6.5t17 2.5q17 0 26 -16l39 12q10 -21 10 -50q0 -11 -1.5 -24.5t-5.5 -30.5l-78 -26l9 42l-30 -9
q6 13 6 28q0 43 -26 43q-4 0 -6 -1q-30 -17 -59.5 -53.5t-52.5 -81t-37 -91.5t-14 -86t14.5 -62.5t41.5 -23.5q13 0 21 14zM432 496q-5 -11 -10.5 -20.5t-11.5 -18.5l-80 -26q33 45 55 122l38 11q3 11 5 19.5t4 16.5l77 25q-4 -23 -14.5 -52.5t-30.5 -66.5z" />
    <glyph glyph-name="Ccaron" unicode="&#x10c;" horiz-adv-x="511" 
d="M685 -34q-62 -19 -107.5 -32t-80 -22.5t-60 -15t-48 -8t-45 -3.5t-50.5 -1q-232 0 -232 199q0 100 60 225q-18 13 -18 35q0 20 13 44t32.5 44.5t42 34.5t41.5 14h5q43 43 89 63q-41 -25 -81 -65q32 -13 32 -39q0 -9 -5.5 -19.5t-14 -19t-18.5 -14.5t-19 -6q-10 0 -10 12
v5.5t2 7.5q-1 -3 -1 -7q0 -8 6 -8q7 0 15 6.5t15 16t11.5 19t4.5 15.5q0 20 -21 28q-65 -67 -109 -162q7 -6 14.5 -8.5t15.5 -2.5q39 0 92 56l72 90q23 28 46 48t45 33q6 3 23.5 11t40.5 16.5t48 15t46 6.5q37 0 68 -22l2 10l78 26q-13 -41 -30.5 -79t-39.5 -74l-79 -23
q20 31 33.5 57t23.5 48h-3q-1 0 -12.5 3.5t-28 8t-34 8.5t-29.5 4q-142 0 -232 -289l54 4l38 101q23 59 32 101l26 9q-5 -23 -13 -49.5t-19 -56.5l-41 -103h23l24 62l12 5l-25 -68l23 -9q-8 -1 -13 -1.5t-4 -0.5q-1 0 -9 2q-30 -74 -87 -225q7 -2 15.5 -3t16.5 -1
q55 0 183 61q-17 -17 -47.5 -33t-66 -29t-70.5 -20.5t-61 -7.5q-28 0 -47 8q-22 -11 -41 -11q-26 0 -41.5 21t-15.5 52v13l52 17q5 136 89 283q-13 -15 -29 -29.5t-33.5 -25.5t-34.5 -17.5t-32 -6.5q-14 0 -23 4q-55 -122 -55 -216q0 -97 57 -146.5t164 -49.5q42 0 90.5 6.5
t106.5 21.5zM294 250q-25 -79 -25 -137q0 -27 6 -45q10 23 27.5 69.5t43.5 118.5zM127 319q46 93 108 157q-17 0 -38 -13t-39 -32.5t-30 -41.5t-12 -41t11 -29zM392 256l-22 1l-81 -212l15 -14zM521 19q-21 -14 -48.5 -26.5t-55 -22.5t-53 -16t-41.5 -6q-27 0 -40 14
q5 -1 11.5 -2t14.5 -1q21 2 47.5 6.5t59.5 15.5zM512 602q0 49 -13 92t-54 78l70 27q41 -35 55 -106q31 42 92 67q35 16 59 16q-16 -5 -27.5 -11.5t-22.5 -13.5q-15 -10 -25.5 -22t-20.5 -27t-20 -33.5t-24 -41.5z" />
    <glyph glyph-name="ccaron" unicode="&#x10d;" horiz-adv-x="350" 
d="M259 36l80 25q-14 -17 -35.5 -32.5t-45.5 -28.5t-48 -20.5t-43 -7.5q-18 0 -29 4l-31 -9q-11 3 -18 7t-12 13.5t-9 27.5t-9 48l41 13q11 251 215 329l36 17q12 5 21 6.5t17 2.5q17 0 26 -16l39 12q10 -21 10 -50q0 -11 -1.5 -24.5t-5.5 -30.5l-78 -26l9 42l-30 -9
q6 13 6 28q0 43 -26 43q-4 0 -6 -1q-30 -17 -59.5 -53.5t-52.5 -81t-37 -91.5t-14 -86t14.5 -62.5t41.5 -23.5q13 0 21 14zM364 459q0 49 -13 92t-54 78l70 27q41 -35 55 -106q31 42 92 67q35 16 59 16q-16 -5 -27.5 -11.5t-22.5 -13.5q-15 -10 -25.5 -22t-20.5 -27
t-20 -33.5t-24 -41.5z" />
    <glyph glyph-name="Dcaron" unicode="&#x10e;" horiz-adv-x="589" 
d="M700 426q-19 -73 -68 -142t-119.5 -127.5t-157 -103t-179.5 -67.5l-10 -20l-79 -25q3 6 14 25.5t23.5 43.5t24 48.5t14.5 39.5l51 16l103 242q-23 -33 -46.5 -60t-46.5 -47q12 -6 25 -6q7 0 13 2q-16 -13 -23 -13q-5 0 -26 8q-63 -46 -114 -46q-55 0 -55 55q0 20 7.5 42
t20 40t28.5 30t33 12q32 0 57 -51q4 -8 6.5 -17t6.5 -17q4 -11 7 -19.5t8 -14.5q123 110 167 298l62 19h-99q82 30 180 30t147 -37l35 11q41 -12 41 -80q0 -10 -0.5 -27.5t-0.5 -24.5zM429 257q-23 -56 -44 -104t-42 -89q32 20 66.5 50t67 65t61.5 73t50.5 74.5t34 69.5
t12.5 59q0 108 -174 116q-11 -45 -40 -122t-77 -187l28 -1q30 70 53.5 123.5t37.5 91.5l26 9q-14 -39 -38 -95t-56 -129l25 1l40 108l14 4q-11 -29 -21.5 -56.5t-21.5 -54.5l29 1q-18 -7 -28 -7h-3zM610 -183q-154 -58 -247 -58q-62 0 -129.5 24t-139.5 73
q-128 -41 -174 -41q-25 0 -29 10q1 16 9.5 31t22 25.5t29.5 17t31 6.5q57 0 122 -43q103 33 226.5 104t260.5 189q-38 -45 -91 -88t-116 -81.5t-134 -70.5t-144 -55q142 -94 251 -94q27 0 45 1t42 6t61.5 16t103.5 31v-3zM209 245q-5 5 -10.5 14t-8.5 20t-6.5 20.5
t-6.5 17.5q-20 46 -58 46q-12 0 -24 -10t-21 -25t-14.5 -32.5t-5.5 -31.5q0 -29 19 -45.5t48 -16.5q36 0 88 43zM90 -142q-66 44 -113 44q-8 0 -14 -3q-5 -2 -15.5 -9t-21 -17t-18 -21t-7.5 -21q4 -10 28 -10t64 9.5t97 27.5zM226 8q10 2 19 5t19 8q12 18 25.5 45t27 58.5
t27 65t25.5 65.5l-27 1q-17 -42 -43.5 -103.5t-63.5 -142.5zM327 54q22 43 44.5 93t46.5 109l-26 -1l-45 -112q-14 -34 -26.5 -60.5t-24.5 -46.5zM575 171q-38 -31 -80.5 -61.5t-82.5 -55t-72.5 -42t-51.5 -21.5q51 27 83 46.5t60.5 38t61 40.5t82.5 55zM516 621
q0 49 -13 92t-54 78l70 27q41 -35 55 -106q31 42 92 67q35 16 59 16q-16 -5 -27.5 -11.5t-22.5 -13.5q-15 -10 -25.5 -22t-20.5 -27t-20 -33.5t-24 -41.5z" />
    <glyph glyph-name="dcaron" unicode="&#x10f;" horiz-adv-x="448" 
d="M96 -14q-37 26 -37 84q0 24 6 53l39 12q45 225 199 273q1 0 21 6.5t60 18.5v28q0 85 -39 109l43 14q-3 14 -12 26l78 24q35 -46 37 -97l-32 -9q1 -13 1.5 -26t0.5 -27q0 -53 -6.5 -108t-22.5 -113q-17 -66 -36 -109.5t-49 -73.5t-77 -52.5t-121 -46.5q0 -1 -27 23z
M205 18q30 0 59 29t52 75t37 102.5t14 111.5t-33 55q-31 0 -60.5 -30.5t-52.5 -77.5t-37 -103.5t-14 -107.5q0 -54 35 -54zM628 654q0 -1 1.5 -7.5t3.5 -15.5t3.5 -17.5t1.5 -14.5q0 -11 -8 -20.5t-26.5 -19.5t-50 -21t-78.5 -25q86 41 86 61q0 6 -1.5 15.5t-3.5 18
t-3.5 14.5t-1.5 7z" />
    <glyph glyph-name="Dcroat" unicode="&#x110;" horiz-adv-x="589" 
d="M700 426q-19 -73 -68 -142t-119.5 -127.5t-157 -103t-179.5 -67.5l-10 -20l-79 -25q3 6 14 25.5t23.5 43.5t24 48.5t14.5 39.5l51 16l99 232q-1 0 -1.5 -0.5t-1.5 -0.5q-22 -30 -44 -54t-42 -42q12 -6 25 -6q7 0 13 2q-16 -13 -23 -13q-5 0 -26 8q-63 -46 -114 -46
q-55 0 -55 55q0 31 15 61l-23 -7l24 9q13 25 32.5 43t40.5 18q23 0 42 -25q32 8 67.5 15t74.5 12q23 39 40 82.5t28 94.5l62 19h-99q82 30 180 30t147 -37l35 11q41 -12 41 -80q0 -10 -0.5 -27.5t-0.5 -24.5zM429 257q-23 -56 -44 -104t-42 -89q32 20 66.5 50t67 65t61.5 73
t50.5 74.5t34 69.5t12.5 59q0 108 -174 116q-8 -32 -24.5 -80t-42.5 -112l30 1l39 96l26 9q-8 -21 -18.5 -47t-23.5 -57l142 4q-22 -7 -52.5 -12t-66.5 -10q-10 -26 -19.5 -51t-19.5 -49l29 1q-18 -7 -28 -7h-3zM610 -183q-154 -58 -247 -58q-62 0 -129.5 24t-139.5 73
q-128 -41 -174 -41q-25 0 -29 10q1 16 9.5 31t22 25.5t29.5 17t31 6.5q57 0 122 -43q103 33 226.5 104t260.5 189q-38 -45 -91 -88t-116 -81.5t-134 -70.5t-144 -55q142 -94 251 -94q27 0 45 1t42 6t61.5 16t103.5 31v-3zM170 329q-29 -4 -55.5 -8t-49.5 -9q-11 -27 -11 -48
q0 -29 19 -45.5t48 -16.5q36 0 88 43q-6 5 -10.5 14t-8 19.5t-7 20.5t-6.5 18zM90 -142q-66 44 -113 44q-8 0 -14 -3q-5 -2 -15 -9t-20.5 -16.5t-18.5 -20.5t-8 -21q0 -6 8.5 -8.5t19.5 -2.5q24 0 64 9.5t97 27.5zM226 8q10 2 19 5t19 8q12 18 25.5 45t27 58.5t27 65
t25.5 65.5l-27 1q-17 -42 -43.5 -103.5t-63.5 -142.5zM218 254q44 39 79 90q-29 -2 -57 -5t-55 -8q1 -3 5 -9q9 -17 14 -37.5t14 -30.5zM327 54q22 43 44.5 93t46.5 109l-26 -1l-45 -112q-14 -34 -26.5 -60.5t-24.5 -46.5zM412 355l-30 -3l-38 -90l28 -1zM456 361
q-9 -3 -19 -3q-9 -23 -20 -47t-22 -50l25 1zM66 315q20 6 43.5 13.5t51.5 15.5q-17 19 -42 19q-15 0 -29 -14t-24 -34zM575 171q-38 -31 -80.5 -61.5t-82.5 -55t-72.5 -42t-51.5 -21.5q51 27 83 46.5t60.5 38t61 40.5t82.5 55z" />
    <glyph glyph-name="dmacron" unicode="&#x111;" horiz-adv-x="348" 
d="M96 -14q-37 26 -37 84q0 24 6 53l39 12q45 225 199 273q1 0 21 6.5t60 18.5v28q0 53 -15 82l-126 -8q13 10 23.5 19t25 16.5t36.5 13t57 8.5q-3 9 -9 18l78 24q6 -9 11.5 -17.5t10.5 -18.5l88 7q-19 -14 -33.5 -26t-42.5 -20q3 -11 3 -22l-32 -9q1 -13 1.5 -26t0.5 -27
q0 -53 -6.5 -108t-22.5 -113q-17 -66 -36 -109.5t-49 -73.5t-77 -52.5t-121 -46.5q0 -1 -27 23zM205 18q30 0 59 29t52 75t37 102.5t14 111.5t-33 55q-31 0 -60.5 -30.5t-52.5 -77.5t-37 -103.5t-14 -107.5q0 -54 35 -54z" />
    </font>
</defs>
</svg>
